<svg width="1379" height="306" viewBox="0 0 1379 306" fill="none" xmlns="http://www.w3.org/2000/svg">
<path opacity="0.6" d="M33.0028 143H32.3538V143.649H33.0028V143ZM47.2994 143V143.649H47.9484V143H47.2994ZM47.2994 13.1713V12.5223H46.6504V13.1713H47.2994ZM79.9498 13.1713V13.8203H80.5987V13.1713H79.9498ZM79.9498 0.227058H80.5987V-0.421939H79.9498V0.227058ZM0.352382 0.227058V-0.421939H-0.296615V0.227058H0.352382ZM0.352382 13.1713H-0.296615V13.8203H0.352382V13.1713ZM33.0028 13.1713H33.6518V12.5223H33.0028V13.1713ZM33.0028 143.649H47.2994V142.351H33.0028V143.649ZM47.9484 143V13.1713H46.6504V143H47.9484ZM47.2994 13.8203H79.9498V12.5223H47.2994V13.8203ZM80.5987 13.1713V0.227058H79.3008V13.1713H80.5987ZM79.9498 -0.421939H0.352382V0.876057H79.9498V-0.421939ZM-0.296615 0.227058V13.1713H1.00138V0.227058H-0.296615ZM0.352382 13.8203H33.0028V12.5223H0.352382V13.8203ZM32.3538 13.1713V143H33.6518V13.1713H32.3538ZM95.9429 143H95.2939V143.649H95.9429V143ZM110.239 143V143.649H110.888V143H110.239ZM110.239 75.9605V75.3115H109.59V75.9605H110.239ZM184.234 75.9605H184.883V75.3115H184.234V75.9605ZM184.234 143H183.585V143.649H184.234V143ZM198.531 143V143.649H199.18V143H198.531ZM198.531 0.227058H199.18V-0.421939H198.531V0.227058ZM184.234 0.227058V-0.421939H183.585V0.227058H184.234ZM184.234 63.0162V63.6652H184.883V63.0162H184.234ZM110.239 63.0162H109.59V63.6652H110.239V63.0162ZM110.239 0.227058H110.888V-0.421939H110.239V0.227058ZM95.9429 0.227058V-0.421939H95.2939V0.227058H95.9429ZM95.9429 143.649H110.239V142.351H95.9429V143.649ZM110.888 143V75.9605H109.59V143H110.888ZM110.239 76.6095H184.234V75.3115H110.239V76.6095ZM183.585 75.9605V143H184.883V75.9605H183.585ZM184.234 143.649H198.531V142.351H184.234V143.649ZM199.18 143V0.227058H197.882V143H199.18ZM198.531 -0.421939H184.234V0.876057H198.531V-0.421939ZM183.585 0.227058V63.0162H184.883V0.227058H183.585ZM184.234 62.3672H110.239V63.6652H184.234V62.3672ZM110.888 63.0162V0.227058H109.59V63.0162H110.888ZM110.239 -0.421939H95.9429V0.876057H110.239V-0.421939ZM95.2939 0.227058V143H96.5919V0.227058H95.2939ZM227.823 143H227.174V143.649H227.823V143ZM305.875 143V143.649H306.524V143H305.875ZM305.875 130.056H306.524V129.407H305.875V130.056ZM242.119 130.056H241.47V130.705H242.119V130.056ZM242.119 77.3129V76.6639H241.47V77.3129H242.119ZM303.749 77.3129V77.9619H304.398V77.3129H303.749ZM303.749 64.3686H304.398V63.7196H303.749V64.3686ZM242.119 64.3686H241.47V65.0176H242.119V64.3686ZM242.119 13.1713V12.5223H241.47V13.1713H242.119ZM305.875 13.1713V13.8203H306.524V13.1713H305.875ZM305.875 0.227058H306.524V-0.421939H305.875V0.227058ZM227.823 0.227058V-0.421939H227.174V0.227058H227.823ZM227.823 143.649H305.875V142.351H227.823V143.649ZM306.524 143V130.056H305.226V143H306.524ZM305.875 129.407H242.119V130.705H305.875V129.407ZM242.768 130.056V77.3129H241.47V130.056H242.768ZM242.119 77.9619H303.749V76.6639H242.119V77.9619ZM304.398 77.3129V64.3686H303.1V77.3129H304.398ZM303.749 63.7196H242.119V65.0176H303.749V63.7196ZM242.768 64.3686V13.1713H241.47V64.3686H242.768ZM242.119 13.8203H305.875V12.5223H242.119V13.8203ZM306.524 13.1713V0.227058H305.226V13.1713H306.524ZM305.875 -0.421939H227.823V0.876057H305.875V-0.421939ZM227.174 0.227058V143H228.472V0.227058H227.174ZM13.683 303H13.034V303.649H13.683V303ZM27.9796 303V303.649H28.6286V303H27.9796ZM27.9796 263.974L27.4762 263.565L27.3306 263.743V263.974H27.9796ZM46.5266 241.177L47.0411 240.781L46.541 240.131L46.0231 240.767L46.5266 241.177ZM94.0532 303L93.5386 303.396L93.7335 303.649H94.0532V303ZM112.021 303V303.649H113.34L112.535 302.604L112.021 303ZM55.6069 229.778L55.1028 229.369L54.7796 229.768L55.0928 230.174L55.6069 229.778ZM112.021 160.227L112.525 160.636L113.383 159.578H112.021V160.227ZM94.0532 160.227V159.578H93.7424L93.5475 159.82L94.0532 160.227ZM27.9796 242.336H27.3306V244.178L28.4852 242.743L27.9796 242.336ZM27.9796 160.227H28.6286V159.578H27.9796V160.227ZM13.683 160.227V159.578H13.034V160.227H13.683ZM13.683 303.649H27.9796V302.351H13.683V303.649ZM28.6286 303V263.974H27.3306V303H28.6286ZM28.4831 264.384L47.03 241.586L46.0231 240.767L27.4762 263.565L28.4831 264.384ZM46.0121 241.572L93.5386 303.396L94.5677 302.604L47.0411 240.781L46.0121 241.572ZM94.0532 303.649H112.021V302.351H94.0532V303.649ZM112.535 302.604L56.121 229.382L55.0928 230.174L111.506 303.396L112.535 302.604ZM56.1109 230.187L112.525 160.636L111.516 159.818L55.1028 229.369L56.1109 230.187ZM112.021 159.578H94.0532V160.876H112.021V159.578ZM93.5475 159.82L27.474 241.929L28.4852 242.743L94.5588 160.634L93.5475 159.82ZM28.6286 242.336V160.227H27.3306V242.336H28.6286ZM27.9796 159.578H13.683V160.876H27.9796V159.578ZM13.034 160.227V303H14.332V160.227H13.034ZM127.828 160.227V159.578H127.179V160.227H127.828ZM137.874 287.931L137.356 288.322L137.357 288.323L137.874 287.931ZM214.96 287.931L215.477 288.323L215.478 288.322L214.96 287.931ZM225.006 160.227H225.655V159.578H225.006V160.227ZM210.71 160.227V159.578H210.061V160.227H210.71ZM204.141 278.85L203.599 278.494L203.597 278.496L204.141 278.85ZM148.693 278.85L149.237 278.496L149.236 278.494L148.693 278.85ZM142.125 160.227H142.774V159.578H142.125V160.227ZM127.179 160.227V249.291H128.477V160.227H127.179ZM127.179 249.291C127.179 267.718 130.09 278.698 137.356 288.322L138.392 287.54C131.362 278.23 128.477 267.571 128.477 249.291H127.179ZM137.357 288.323C145.999 299.715 160.308 306.161 176.321 306.161V304.863C160.648 304.863 146.751 298.557 138.391 287.538L137.357 288.323ZM176.321 306.161C192.524 306.161 206.834 299.716 215.477 288.323L214.443 287.538C206.085 298.556 192.187 304.863 176.321 304.863V306.161ZM215.478 288.322C222.745 278.698 225.655 267.718 225.655 249.291H224.357C224.357 267.571 221.472 278.23 214.442 287.54L215.478 288.322ZM225.655 249.291V160.227H224.357V249.291H225.655ZM225.006 159.578H210.71V160.876H225.006V159.578ZM210.061 160.227V249.291H211.359V160.227H210.061ZM210.061 249.291C210.061 262.183 207.941 271.887 203.599 278.494L204.683 279.207C209.228 272.29 211.359 262.287 211.359 249.291H210.061ZM203.597 278.496C198.33 286.585 187.93 291.725 176.321 291.725V293.023C188.281 293.023 199.133 287.73 204.685 279.204L203.597 278.496ZM176.321 291.725C164.906 291.725 154.506 286.587 149.237 278.496L148.149 279.204C153.7 287.729 164.551 293.023 176.321 293.023V291.725ZM149.236 278.494C144.894 271.887 142.774 262.183 142.774 249.291H141.476C141.476 262.287 143.606 272.29 148.151 279.207L149.236 278.494ZM142.774 249.291V160.227H141.476V249.291H142.774ZM142.125 159.578H127.828V160.876H142.125V159.578ZM254.425 303H253.776V303.649H254.425V303ZM268.722 303V303.649H269.371V303H268.722ZM268.722 263.974L268.218 263.565L268.073 263.743V263.974H268.722ZM287.269 241.177L287.783 240.781L287.283 240.131L286.765 240.767L287.269 241.177ZM334.795 303L334.281 303.396L334.476 303.649H334.795V303ZM352.763 303V303.649H354.082L353.277 302.604L352.763 303ZM296.349 229.778L295.845 229.369L295.522 229.768L295.835 230.174L296.349 229.778ZM352.763 160.227L353.267 160.636L354.125 159.578H352.763V160.227ZM334.795 160.227V159.578H334.485L334.29 159.82L334.795 160.227ZM268.722 242.336H268.073V244.178L269.227 242.743L268.722 242.336ZM268.722 160.227H269.371V159.578H268.722V160.227ZM254.425 160.227V159.578H253.776V160.227H254.425ZM254.425 303.649H268.722V302.351H254.425V303.649ZM269.371 303V263.974H268.073V303H269.371ZM269.225 264.384L287.772 241.586L286.765 240.767L268.218 263.565L269.225 264.384ZM286.754 241.572L334.281 303.396L335.31 302.604L287.783 240.781L286.754 241.572ZM334.795 303.649H352.763V302.351H334.795V303.649ZM353.277 302.604L296.863 229.382L295.835 230.174L352.249 303.396L353.277 302.604ZM296.853 230.187L353.267 160.636L352.259 159.818L295.845 229.369L296.853 230.187ZM352.763 159.578H334.795V160.876H352.763V159.578ZM334.29 159.82L268.216 241.929L269.227 242.743L335.301 160.634L334.29 159.82ZM269.371 242.336V160.227H268.073V242.336H269.371ZM268.722 159.578H254.425V160.876H268.722V159.578ZM253.776 160.227V303H255.074V160.227H253.776ZM356.012 303L355.416 302.744L355.028 303.649H356.012V303ZM371.082 303V303.649H371.508L371.677 303.258L371.082 303ZM391.947 254.894V254.245H391.521L391.352 254.636L391.947 254.894ZM458.407 254.894L459.003 254.638L458.835 254.245H458.407V254.894ZM479.079 303L478.483 303.256L478.652 303.649H479.079V303ZM494.728 303V303.649H495.714L495.324 302.743L494.728 303ZM433.291 160.227L433.887 159.971L433.719 159.578H433.291V160.227ZM417.256 160.227V159.578H416.828L416.66 159.971L417.256 160.227ZM397.357 241.95L396.76 241.694L396.373 242.599H397.357V241.95ZM425.37 176.456L425.969 176.205L425.376 174.791L424.774 176.2L425.37 176.456ZM452.804 241.95V242.599H453.78L453.403 241.699L452.804 241.95ZM356.012 303.649H371.082V302.351H356.012V303.649ZM371.677 303.258L392.542 255.152L391.352 254.636L370.486 302.742L371.677 303.258ZM391.947 255.543H458.407V254.245H391.947V255.543ZM457.811 255.15L478.483 303.256L479.675 302.744L459.003 254.638L457.811 255.15ZM479.079 303.649H494.728V302.351H479.079V303.649ZM495.324 302.743L433.887 159.971L432.695 160.484L494.132 303.257L495.324 302.743ZM433.291 159.578H417.256V160.876H433.291V159.578ZM416.66 159.971L355.416 302.744L356.609 303.256L417.852 160.483L416.66 159.971ZM397.953 242.205L425.967 176.711L424.774 176.2L396.76 241.694L397.953 242.205ZM424.772 176.706L452.206 242.2L453.403 241.699L425.969 176.205L424.772 176.706ZM452.804 241.301H397.357V242.599H452.804V241.301ZM511.582 303H510.933V303.649H511.582V303ZM525.878 303V303.649H526.527V303H525.878ZM525.878 235.96V235.311H525.229V235.96H525.878ZM599.873 235.96H600.522V235.311H599.873V235.96ZM599.873 303H599.224V303.649H599.873V303ZM614.169 303V303.649H614.818V303H614.169ZM614.169 160.227H614.818V159.578H614.169V160.227ZM599.873 160.227V159.578H599.224V160.227H599.873ZM599.873 223.016V223.665H600.522V223.016H599.873ZM525.878 223.016H525.229V223.665H525.878V223.016ZM525.878 160.227H526.527V159.578H525.878V160.227ZM511.582 160.227V159.578H510.933V160.227H511.582ZM511.582 303.649H525.878V302.351H511.582V303.649ZM526.527 303V235.96H525.229V303H526.527ZM525.878 236.609H599.873V235.311H525.878V236.609ZM599.224 235.96V303H600.522V235.96H599.224ZM599.873 303.649H614.169V302.351H599.873V303.649ZM614.818 303V160.227H613.52V303H614.818ZM614.169 159.578H599.873V160.876H614.169V159.578ZM599.224 160.227V223.016H600.522V160.227H599.224ZM599.873 222.367H525.878V223.665H599.873V222.367ZM526.527 223.016V160.227H525.229V223.016H526.527ZM525.878 159.578H511.582V160.876H525.878V159.578ZM510.933 160.227V303H512.231V160.227H510.933ZM815.28 265.52V264.871H814.959L814.765 265.126L815.28 265.52ZM801.757 280.009L802.163 280.515L802.17 280.51L801.757 280.009ZM798.086 179.933L797.739 180.482L797.741 180.483L798.086 179.933ZM814.508 197.321L813.959 197.667L814.15 197.97H814.508V197.321ZM830.543 197.321V197.97H831.546L831.135 197.055L830.543 197.321ZM831.123 265.52L831.694 265.828L832.211 264.871H831.123V265.52ZM814.765 265.126C809.187 272.434 805.743 275.874 801.343 279.509L802.17 280.51C806.657 276.803 810.168 273.288 815.796 265.913L814.765 265.126ZM801.35 279.504C791.618 287.327 778.819 291.725 765.629 291.725V293.023C779.099 293.023 792.189 288.534 802.163 280.515L801.35 279.504ZM765.629 291.725C732.763 291.725 706 264.78 706 231.517H704.702C704.702 265.486 732.035 293.023 765.629 293.023V291.725ZM706 231.517C706 197.479 731.605 171.502 765.435 171.502V170.204C730.874 170.204 704.702 196.776 704.702 231.517H706ZM765.435 171.502C777.493 171.502 788.384 174.563 797.739 180.482L798.433 179.385C788.855 173.325 777.72 170.204 765.435 170.204V171.502ZM797.741 180.483C804.4 184.669 808.394 188.84 813.959 197.667L815.057 196.975C809.416 188.028 805.295 183.698 798.431 179.384L797.741 180.483ZM814.508 197.97H830.543V196.672H814.508V197.97ZM831.135 197.055C820.005 172.256 794.636 157.066 764.856 157.066V158.364C794.194 158.364 819.057 173.314 829.951 197.587L831.135 197.055ZM764.856 157.066C721.991 157.066 690.212 189.045 690.212 232.097H691.51C691.51 189.755 722.714 158.364 764.856 158.364V157.066ZM690.212 232.097C690.212 274.198 722.779 306.161 765.822 306.161V304.863C723.471 304.863 691.51 273.457 691.51 232.097H690.212ZM765.822 306.161C795.052 306.161 817.29 292.495 831.694 265.828L830.552 265.211C816.363 291.48 794.551 304.863 765.822 304.863V306.161ZM831.123 264.871H815.28V266.169H831.123V264.871ZM854.205 303H853.556V303.649H854.205V303ZM932.257 303V303.649H932.906V303H932.257ZM932.257 290.056H932.906V289.407H932.257V290.056ZM868.502 290.056H867.853V290.705H868.502V290.056ZM868.502 237.313V236.664H867.853V237.313H868.502ZM930.132 237.313V237.962H930.781V237.313H930.132ZM930.132 224.369H930.781V223.72H930.132V224.369ZM868.502 224.369H867.853V225.018H868.502V224.369ZM868.502 173.171V172.522H867.853V173.171H868.502ZM932.257 173.171V173.82H932.906V173.171H932.257ZM932.257 160.227H932.906V159.578H932.257V160.227ZM854.205 160.227V159.578H853.556V160.227H854.205ZM854.205 303.649H932.257V302.351H854.205V303.649ZM932.906 303V290.056H931.608V303H932.906ZM932.257 289.407H868.502V290.705H932.257V289.407ZM869.151 290.056V237.313H867.853V290.056H869.151ZM868.502 237.962H930.132V236.664H868.502V237.962ZM930.781 237.313V224.369H929.483V237.313H930.781ZM930.132 223.72H868.502V225.018H930.132V223.72ZM869.151 224.369V173.171H867.853V224.369H869.151ZM868.502 173.82H932.257V172.522H868.502V173.82ZM932.906 173.171V160.227H931.608V173.171H932.906ZM932.257 159.578H854.205V160.876H932.257V159.578ZM853.556 160.227V303H854.854V160.227H853.556ZM957.785 303H957.136V303.649H957.785V303ZM972.081 303V303.649H972.73V303H972.081ZM972.081 177.422L972.619 177.058L971.432 175.305V177.422H972.081ZM1057.09 303L1056.55 303.364L1056.74 303.649H1057.09V303ZM1071.38 303V303.649H1072.03V303H1071.38ZM1071.38 160.227H1072.03V159.578H1071.38V160.227ZM1057.09 160.227V159.578H1056.44V160.227H1057.09ZM1057.09 278.657L1056.55 279.02L1057.74 280.778V278.657H1057.09ZM977.104 160.227L977.642 159.864L977.449 159.578H977.104V160.227ZM957.785 160.227V159.578H957.136V160.227H957.785ZM957.785 303.649H972.081V302.351H957.785V303.649ZM972.73 303V177.422H971.432V303H972.73ZM971.544 177.785L1056.55 303.364L1057.63 302.636L972.619 177.058L971.544 177.785ZM1057.09 303.649H1071.38V302.351H1057.09V303.649ZM1072.03 303V160.227H1070.74V303H1072.03ZM1071.38 159.578H1057.09V160.876H1071.38V159.578ZM1056.44 160.227V278.657H1057.74V160.227H1056.44ZM1057.63 278.294L977.642 159.864L976.567 160.59L1056.55 279.02L1057.63 278.294ZM977.104 159.578H957.785V160.876H977.104V159.578ZM957.136 160.227V303H958.434V160.227H957.136ZM1120.12 303H1119.47V303.649H1120.12V303ZM1134.41 303V303.649H1135.06V303H1134.41ZM1134.41 173.171V172.522H1133.76V173.171H1134.41ZM1167.06 173.171V173.82H1167.71V173.171H1167.06ZM1167.06 160.227H1167.71V159.578H1167.06V160.227ZM1087.47 160.227V159.578H1086.82V160.227H1087.47ZM1087.47 173.171H1086.82V173.82H1087.47V173.171ZM1120.12 173.171H1120.76V172.522H1120.12V173.171ZM1120.12 303.649H1134.41V302.351H1120.12V303.649ZM1135.06 303V173.171H1133.76V303H1135.06ZM1134.41 173.82H1167.06V172.522H1134.41V173.82ZM1167.71 173.171V160.227H1166.41V173.171H1167.71ZM1167.06 159.578H1087.47V160.876H1167.06V159.578ZM1086.82 160.227V173.171H1088.11V160.227H1086.82ZM1087.47 173.82H1120.12V172.522H1087.47V173.82ZM1119.47 173.171V303H1120.76V173.171H1119.47ZM1237.73 249.677L1237.66 249.032L1236.53 249.152L1237.21 250.067L1237.73 249.677ZM1259.37 167.569L1259.69 167.007L1259.68 167.001L1259.37 167.569ZM1183.06 160.227V159.578H1182.41V160.227H1183.06ZM1183.06 303H1182.41V303.649H1183.06V303ZM1197.35 303V303.649H1198V303H1197.35ZM1197.35 173.171V172.522H1196.7V173.171H1197.35ZM1250.29 178.388L1250.57 177.803L1250.57 177.801L1250.29 178.388ZM1244.69 235.574L1244.86 236.198L1244.87 236.196L1244.69 235.574ZM1211.84 238.279V237.63H1210.55L1211.32 238.666L1211.84 238.279ZM1259.95 303L1259.43 303.387L1259.62 303.649H1259.95V303ZM1277.72 303V303.649H1279.02L1278.24 302.611L1277.72 303ZM1237.8 250.323C1251.62 248.863 1262.31 244.28 1269.54 236.773C1276.79 229.26 1280.5 218.894 1280.5 206.015H1279.2C1279.2 218.638 1275.57 228.654 1268.61 235.872C1261.65 243.097 1251.28 247.594 1237.66 249.032L1237.8 250.323ZM1280.5 206.015C1280.5 188.429 1273.25 174.867 1259.69 167.007L1259.04 168.13C1272.15 175.726 1279.2 188.825 1279.2 206.015H1280.5ZM1259.68 167.001C1250.46 161.897 1237.96 159.578 1218.41 159.578V160.876C1237.89 160.876 1250.12 163.194 1259.05 168.136L1259.68 167.001ZM1218.41 159.578H1183.06V160.876H1218.41V159.578ZM1182.41 160.227V303H1183.71V160.227H1182.41ZM1183.06 303.649H1197.35V302.351H1183.06V303.649ZM1198 303V173.171H1196.7V303H1198ZM1197.35 173.82H1217.45V172.522H1197.35V173.82ZM1217.45 173.82C1232.48 173.82 1242.41 175.366 1250.01 178.974L1250.57 177.801C1242.71 174.068 1232.54 172.522 1217.45 172.522V173.82ZM1250.01 178.973C1259.39 183.477 1264.71 192.873 1264.71 205.822H1266.01C1266.01 192.496 1260.5 182.571 1250.57 177.803L1250.01 178.973ZM1264.71 205.822C1264.71 213.552 1262.99 219.836 1259.63 224.675C1256.28 229.508 1251.24 232.957 1244.5 234.952L1244.87 236.196C1251.84 234.134 1257.15 230.531 1260.7 225.415C1264.25 220.304 1266.01 213.74 1266.01 205.822H1264.71ZM1244.51 234.95C1237.84 236.855 1229.23 237.63 1211.84 237.63V238.928C1229.23 238.928 1238.01 238.157 1244.86 236.198L1244.51 234.95ZM1211.32 238.666L1259.43 303.387L1260.47 302.613L1212.36 237.892L1211.32 238.666ZM1259.95 303.649H1277.72V302.351H1259.95V303.649ZM1278.24 302.611L1238.25 249.288L1237.21 250.067L1277.2 303.389L1278.24 302.611ZM1300.41 303H1299.76V303.649H1300.41V303ZM1378.46 303V303.649H1379.11V303H1378.46ZM1378.46 290.056H1379.11V289.407H1378.46V290.056ZM1314.7 290.056H1314.06V290.705H1314.7V290.056ZM1314.7 237.313V236.664H1314.06V237.313H1314.7ZM1376.33 237.313V237.962H1376.98V237.313H1376.33ZM1376.33 224.369H1376.98V223.72H1376.33V224.369ZM1314.7 224.369H1314.06V225.018H1314.7V224.369ZM1314.7 173.171V172.522H1314.06V173.171H1314.7ZM1378.46 173.171V173.82H1379.11V173.171H1378.46ZM1378.46 160.227H1379.11V159.578H1378.46V160.227ZM1300.41 160.227V159.578H1299.76V160.227H1300.41ZM1300.41 303.649H1378.46V302.351H1300.41V303.649ZM1379.11 303V290.056H1377.81V303H1379.11ZM1378.46 289.407H1314.7V290.705H1378.46V289.407ZM1315.35 290.056V237.313H1314.06V290.056H1315.35ZM1314.7 237.962H1376.33V236.664H1314.7V237.962ZM1376.98 237.313V224.369H1375.69V237.313H1376.98ZM1376.33 223.72H1314.7V225.018H1376.33V223.72ZM1315.35 224.369V173.171H1314.06V224.369H1315.35ZM1314.7 173.82H1378.46V172.522H1314.7V173.82ZM1379.11 173.171V160.227H1377.81V173.171H1379.11ZM1378.46 159.578H1300.41V160.876H1378.46V159.578ZM1299.76 160.227V303H1301.06V160.227H1299.76Z" fill="#DCA236"/>
</svg>
