<svg width="1252" height="230" viewBox="0 0 1252 230" fill="none" xmlns="http://www.w3.org/2000/svg">
<path opacity="0.6" d="M85.7 123.7V122.692H84.6922V123.7H85.7ZM85.7 143.8H84.6922V144.808H85.7V143.8ZM209.6 143.8L210.58 144.034L210.877 142.792H209.6V143.8ZM187.4 181.9L188.125 182.6L188.13 182.595L187.4 181.9ZM197.9 63.4L197.023 63.8968L197.313 64.4078H197.9V63.4ZM222.8 63.4V64.4078H224.273L223.739 63.0347L222.8 63.4ZM205.4 194.2L204.661 193.515L204.655 193.522L205.4 194.2ZM236.3 123.7L237.306 123.758L237.368 122.692H236.3V123.7ZM84.6922 123.7V143.8H86.7078V123.7H84.6922ZM85.7 144.808H209.6V142.792H85.7V144.808ZM208.62 143.566C205.371 157.153 198.579 168.701 186.67 181.205L188.13 182.595C200.221 169.899 207.229 158.047 210.58 144.034L208.62 143.566ZM186.675 181.2C169.479 198.989 146.047 208.492 119.9 208.492V210.508C146.553 210.508 170.521 200.811 188.125 182.6L186.675 181.2ZM119.9 208.492C66.1253 208.492 23.7078 167.513 23.7078 115.3H21.6922C21.6922 168.687 65.0747 210.508 119.9 210.508V208.492ZM23.7078 115.3C23.7078 62.4793 65.2336 21.8078 119.6 21.8078V19.7922C64.1664 19.7922 21.6922 61.3207 21.6922 115.3H23.7078ZM119.6 21.8078C153.485 21.8078 181.924 37.2519 197.023 63.8968L198.777 62.9031C183.276 35.548 154.115 19.7922 119.6 19.7922V21.8078ZM197.9 64.4078H222.8V62.3922H197.9V64.4078ZM223.739 63.0347C208.855 24.761 166.415 -0.607784 117.8 -0.607784V1.40776C165.785 1.40776 207.345 26.439 221.861 63.7652L223.739 63.0347ZM117.8 -0.607784C51.271 -0.607784 -0.807773 49.9163 -0.807773 114.7H1.20778C1.20778 51.0837 52.329 1.40776 117.8 1.40776V-0.607784ZM-0.807773 114.7C-0.807773 180.4 52.1877 230.908 120.8 230.908V228.892C53.2123 228.892 1.20778 179.2 1.20778 114.7H-0.807773ZM120.8 230.908C155.259 230.908 184.638 218.506 206.145 194.878L204.655 193.522C183.562 216.694 154.741 228.892 120.8 228.892V230.908ZM206.139 194.885C225.189 174.323 235.792 149.805 237.306 123.758L235.294 123.641C233.808 149.195 223.411 173.277 204.661 193.515L206.139 194.885ZM236.3 122.692H85.7V124.708H236.3V122.692ZM239.616 226L238.69 225.603L238.088 227.008H239.616V226ZM263.016 226V227.008H263.678L263.941 226.401L263.016 226ZM295.416 151.3V150.292H294.755L294.492 150.899L295.416 151.3ZM398.616 151.3L399.542 150.902L399.28 150.292H398.616V151.3ZM430.716 226L429.79 226.398L430.053 227.008H430.716V226ZM455.016 226V227.008H456.547L455.942 225.602L455.016 226ZM359.616 4.29999L360.542 3.90165L360.28 3.29222H359.616V4.29999ZM334.716 4.29999V3.29222H334.052L333.79 3.90271L334.716 4.29999ZM303.816 131.2L302.89 130.804L302.289 132.208H303.816V131.2ZM347.316 29.5L348.246 29.1106L347.326 26.9147L346.39 29.1037L347.316 29.5ZM389.916 131.2V132.208H391.431L390.846 130.811L389.916 131.2ZM239.616 227.008H263.016V224.992H239.616V227.008ZM263.941 226.401L296.341 151.701L294.492 150.899L262.092 225.599L263.941 226.401ZM295.416 152.308H398.616V150.292H295.416V152.308ZM397.69 151.698L429.79 226.398L431.642 225.602L399.542 150.902L397.69 151.698ZM430.716 227.008H455.016V224.992H430.716V227.008ZM455.942 225.602L360.542 3.90165L358.691 4.69834L454.091 226.398L455.942 225.602ZM359.616 3.29222H334.716V5.30777H359.616V3.29222ZM333.79 3.90271L238.69 225.603L240.543 226.397L335.643 4.69728L333.79 3.90271ZM304.743 131.596L348.243 29.8963L346.39 29.1037L302.89 130.804L304.743 131.596ZM346.387 29.8893L388.987 131.589L390.846 130.811L348.246 29.1106L346.387 29.8893ZM389.916 130.192H303.816V132.208H389.916V130.192ZM481.187 226H480.179V227.008H481.187V226ZM595.187 226V227.008H596.195V226H595.187ZM595.187 205.9H596.195V204.892H595.187V205.9ZM503.387 205.9H502.379V206.908H503.387V205.9ZM503.387 4.29999H504.394V3.29222H503.387V4.29999ZM481.187 4.29999V3.29222H480.179V4.29999H481.187ZM481.187 227.008H595.187V224.992H481.187V227.008ZM596.195 226V205.9H594.179V226H596.195ZM595.187 204.892H503.387V206.908H595.187V204.892ZM504.394 205.9V4.29999H502.379V205.9H504.394ZM503.387 3.29222H481.187V5.30777H503.387V3.29222ZM480.179 4.29999V226H482.194V4.29999H480.179ZM619.761 226H618.753V227.008H619.761V226ZM733.761 226V227.008H734.769V226H733.761ZM733.761 205.9H734.769V204.892H733.761V205.9ZM641.961 205.9H640.953V206.908H641.961V205.9ZM641.961 4.29999H642.969V3.29222H641.961V4.29999ZM619.761 4.29999V3.29222H618.753V4.29999H619.761ZM619.761 227.008H733.761V224.992H619.761V227.008ZM734.769 226V205.9H732.753V226H734.769ZM733.761 204.892H641.961V206.908H733.761V204.892ZM642.969 205.9V4.29999H640.953V205.9H642.969ZM641.961 3.29222H619.761V5.30777H641.961V3.29222ZM618.753 4.29999V226H620.769V4.29999H618.753ZM758.335 226H757.327V227.008H758.335V226ZM879.535 226V227.008H880.543V226H879.535ZM879.535 205.9H880.543V204.892H879.535V205.9ZM780.535 205.9H779.527V206.908H780.535V205.9ZM780.535 124V122.992H779.527V124H780.535ZM876.235 124V125.008H877.243V124H876.235ZM876.235 103.9H877.243V102.892H876.235V103.9ZM780.535 103.9H779.527V104.908H780.535V103.9ZM780.535 24.4V23.3922H779.527V24.4H780.535ZM879.535 24.4V25.4078H880.543V24.4H879.535ZM879.535 4.29999H880.543V3.29222H879.535V4.29999ZM758.335 4.29999V3.29222H757.327V4.29999H758.335ZM758.335 227.008H879.535V224.992H758.335V227.008ZM880.543 226V205.9H878.527V226H880.543ZM879.535 204.892H780.535V206.908H879.535V204.892ZM781.543 205.9V124H779.527V205.9H781.543ZM780.535 125.008H876.235V122.992H780.535V125.008ZM877.243 124V103.9H875.227V124H877.243ZM876.235 102.892H780.535V104.908H876.235V102.892ZM781.543 103.9V24.4H779.527V103.9H781.543ZM780.535 25.4078H879.535V23.3922H780.535V25.4078ZM880.543 24.4V4.29999H878.527V24.4H880.543ZM879.535 3.29222H758.335V5.30777H879.535V3.29222ZM757.327 4.29999V226H759.343V4.29999H757.327ZM1004.08 143.2L1003.97 142.198L1002.2 142.384L1003.27 143.805L1004.08 143.2ZM1037.68 15.7L1038.18 14.8281L1038.17 14.8231L1038.16 14.8182L1037.68 15.7ZM919.175 4.29999V3.29222H918.167V4.29999H919.175ZM919.175 226H918.167V227.008H919.175V226ZM941.375 226V227.008H942.383V226H941.375ZM941.375 24.4V23.3922H940.367V24.4H941.375ZM1023.57 32.5L1024.01 31.5914L1024.01 31.5897L1023.57 32.5ZM1014.88 121.3L1015.15 122.269L1015.16 122.266L1014.88 121.3ZM963.875 125.5V124.492H961.87L963.066 126.101L963.875 125.5ZM1038.57 226L1037.77 226.601L1038.07 227.008H1038.57V226ZM1066.18 226V227.008H1068.19L1066.98 225.395L1066.18 226ZM1004.18 144.202C1025.64 141.935 1042.24 134.819 1053.48 123.162C1064.72 111.496 1070.48 95.3985 1070.48 75.4H1068.47C1068.47 95.0015 1062.83 110.554 1052.02 121.763C1041.21 132.981 1025.11 139.965 1003.97 142.198L1004.18 144.202ZM1070.48 75.4C1070.48 48.0925 1059.23 27.033 1038.18 14.8281L1037.17 16.5719C1057.52 28.367 1068.47 48.7075 1068.47 75.4H1070.48ZM1038.16 14.8182C1023.84 6.89327 1004.43 3.29222 974.075 3.29222V5.30777C1004.32 5.30777 1023.31 8.90669 1037.19 16.5818L1038.16 14.8182ZM974.075 3.29222H919.175V5.30777H974.075V3.29222ZM918.167 4.29999V226H920.183V4.29999H918.167ZM919.175 227.008H941.375V224.992H919.175V227.008ZM942.383 226V24.4H940.367V226H942.383ZM941.375 25.4078H972.575V23.3922H941.375V25.4078ZM972.575 25.4078C995.928 25.4078 1011.35 27.8075 1023.14 33.4103L1024.01 31.5897C1011.8 25.7925 996.022 23.3922 972.575 23.3922V25.4078ZM1023.14 33.4085C1037.71 40.4033 1045.97 54.9927 1045.97 75.1H1047.98C1047.98 54.4073 1039.44 38.9967 1024.01 31.5915L1023.14 33.4085ZM1045.97 75.1C1045.97 87.1036 1043.3 96.8618 1038.08 104.375C1032.87 111.88 1025.06 117.237 1014.59 120.334L1015.16 122.266C1025.99 119.063 1034.23 113.47 1039.74 105.525C1045.25 97.5882 1047.98 87.3964 1047.98 75.1H1045.97ZM1014.6 120.331C1004.25 123.289 990.872 124.492 963.875 124.492V126.508C990.878 126.508 1004.5 125.311 1015.15 122.269L1014.6 120.331ZM963.066 126.101L1037.77 226.601L1039.38 225.399L964.684 124.899L963.066 126.101ZM1038.57 227.008H1066.18V224.992H1038.57V227.008ZM1066.98 225.395L1004.88 142.595L1003.27 143.805L1065.37 226.605L1066.98 225.395ZM1151.9 226H1150.89V227.008H1151.9V226ZM1174.1 226V227.008H1175.11V226H1174.1ZM1174.1 151.9L1173.21 151.432L1173.09 151.652V151.9H1174.1ZM1251.5 4.29999L1252.39 4.76801L1253.17 3.29222H1251.5V4.29999ZM1227.2 4.29999V3.29222H1226.59L1226.31 3.83553L1227.2 4.29999ZM1162.7 128.5L1161.8 128.956L1162.69 130.707L1163.59 128.964L1162.7 128.5ZM1099.7 4.29999L1100.6 3.8441L1100.32 3.29222H1099.7V4.29999ZM1075.1 4.29999V3.29222H1073.44L1074.21 4.76516L1075.1 4.29999ZM1151.9 151.9H1152.91V151.654L1152.79 151.435L1151.9 151.9ZM1151.9 227.008H1174.1V224.992H1151.9V227.008ZM1175.11 226V151.9H1173.09V226H1175.11ZM1174.99 152.368L1252.39 4.76801L1250.61 3.83197L1173.21 151.432L1174.99 152.368ZM1251.5 3.29222H1227.2V5.30777H1251.5V3.29222ZM1226.31 3.83553L1161.81 128.036L1163.59 128.964L1228.09 4.76446L1226.31 3.83553ZM1163.6 128.044L1100.6 3.8441L1098.8 4.75589L1161.8 128.956L1163.6 128.044ZM1099.7 3.29222H1075.1V5.30777H1099.7V3.29222ZM1074.21 4.76516L1151.01 152.365L1152.79 151.435L1075.99 3.83483L1074.21 4.76516ZM1150.89 151.9V226H1152.91V151.9H1150.89Z" fill="#1B3459"/>
</svg>
