<svg width="1159" height="479" viewBox="0 0 1159 479" fill="none" xmlns="http://www.w3.org/2000/svg">
<path opacity="0.6" d="M92.7 123.7V122.692H91.6922V123.7H92.7ZM92.7 143.8H91.6922V144.808H92.7V143.8ZM216.6 143.8L217.58 144.034L217.877 142.792H216.6V143.8ZM194.4 181.9L195.125 182.6L195.13 182.595L194.4 181.9ZM204.9 63.4L204.023 63.8968L204.313 64.4078H204.9V63.4ZM229.8 63.4V64.4078H231.273L230.739 63.0347L229.8 63.4ZM212.4 194.2L211.661 193.515L211.655 193.522L212.4 194.2ZM243.3 123.7L244.306 123.758L244.368 122.692H243.3V123.7ZM91.6922 123.7V143.8H93.7078V123.7H91.6922ZM92.7 144.808H216.6V142.792H92.7V144.808ZM215.62 143.566C212.371 157.153 205.579 168.701 193.67 181.205L195.13 182.595C207.221 169.899 214.229 158.047 217.58 144.034L215.62 143.566ZM193.675 181.2C176.479 198.989 153.047 208.492 126.9 208.492V210.508C153.553 210.508 177.521 200.811 195.125 182.6L193.675 181.2ZM126.9 208.492C73.1253 208.492 30.7078 167.513 30.7078 115.3H28.6922C28.6922 168.687 72.0747 210.508 126.9 210.508V208.492ZM30.7078 115.3C30.7078 62.4793 72.2336 21.8078 126.6 21.8078V19.7922C71.1664 19.7922 28.6922 61.3207 28.6922 115.3H30.7078ZM126.6 21.8078C160.485 21.8078 188.924 37.2519 204.023 63.8968L205.777 62.9031C190.276 35.548 161.115 19.7922 126.6 19.7922V21.8078ZM204.9 64.4078H229.8V62.3922H204.9V64.4078ZM230.739 63.0347C215.855 24.761 173.415 -0.607784 124.8 -0.607784V1.40776C172.785 1.40776 214.345 26.439 228.861 63.7652L230.739 63.0347ZM124.8 -0.607784C58.271 -0.607784 6.19223 49.9163 6.19223 114.7H8.20778C8.20778 51.0837 59.329 1.40776 124.8 1.40776V-0.607784ZM6.19223 114.7C6.19223 180.4 59.1877 230.908 127.8 230.908V228.892C60.2123 228.892 8.20778 179.2 8.20778 114.7H6.19223ZM127.8 230.908C162.259 230.908 191.638 218.506 213.145 194.878L211.655 193.522C190.562 216.694 161.741 228.892 127.8 228.892V230.908ZM213.139 194.885C232.189 174.323 242.792 149.805 244.306 123.758L242.294 123.641C240.808 149.195 230.411 173.277 211.661 193.515L213.139 194.885ZM243.3 122.692H92.7V124.708H243.3V122.692ZM278.421 226H277.413V227.008H278.421V226ZM399.621 226V227.008H400.629V226H399.621ZM399.621 205.9H400.629V204.892H399.621V205.9ZM300.621 205.9H299.613V206.908H300.621V205.9ZM300.621 124V122.992H299.613V124H300.621ZM396.321 124V125.008H397.329V124H396.321ZM396.321 103.9H397.329V102.892H396.321V103.9ZM300.621 103.9H299.613V104.908H300.621V103.9ZM300.621 24.4V23.3922H299.613V24.4H300.621ZM399.621 24.4V25.4078H400.629V24.4H399.621ZM399.621 4.29999H400.629V3.29222H399.621V4.29999ZM278.421 4.29999V3.29222H277.413V4.29999H278.421ZM278.421 227.008H399.621V224.992H278.421V227.008ZM400.629 226V205.9H398.613V226H400.629ZM399.621 204.892H300.621V206.908H399.621V204.892ZM301.629 205.9V124H299.613V205.9H301.629ZM300.621 125.008H396.321V122.992H300.621V125.008ZM397.329 124V103.9H395.313V124H397.329ZM396.321 102.892H300.621V104.908H396.321V102.892ZM301.629 103.9V24.4H299.613V103.9H301.629ZM300.621 25.4078H399.621V23.3922H300.621V25.4078ZM400.629 24.4V4.29999H398.613V24.4H400.629ZM399.621 3.29222H278.421V5.30777H399.621V3.29222ZM277.413 4.29999V226H279.429V4.29999H277.413ZM469.261 226H468.253V227.008H469.261V226ZM491.461 226V227.008H492.469V226H491.461ZM491.461 24.4V23.3922H490.453V24.4H491.461ZM542.161 24.4V25.4078H543.169V24.4H542.161ZM542.161 4.29999H543.169V3.29222H542.161V4.29999ZM418.561 4.29999V3.29222H417.553V4.29999H418.561ZM418.561 24.4H417.553V25.4078H418.561V24.4ZM469.261 24.4H470.269V23.3922H469.261V24.4ZM469.261 227.008H491.461V224.992H469.261V227.008ZM492.469 226V24.4H490.453V226H492.469ZM491.461 25.4078H542.161V23.3922H491.461V25.4078ZM543.169 24.4V4.29999H541.153V24.4H543.169ZM542.161 3.29222H418.561V5.30777H542.161V3.29222ZM417.553 4.29999V24.4H419.569V4.29999H417.553ZM418.561 25.4078H469.261V23.3922H418.561V25.4078ZM468.253 24.4V226H470.269V24.4H468.253ZM0.6 412.9V411.892H-0.462209L-0.40638 412.953L0.6 412.9ZM114.9 365.8L115.51 364.998L115.497 364.988L115.483 364.978L114.9 365.8ZM73.5 348.1L73.7919 347.135L73.7883 347.134L73.5 348.1ZM40.8 334.3L40.1239 335.047L40.1354 335.058L40.1473 335.068L40.8 334.3ZM108.3 309.4L107.294 309.463L107.353 310.408H108.3V309.4ZM131.4 309.4V310.408H132.433L132.407 309.375L131.4 309.4ZM23.4 348.4L24.1001 347.675L24.09 347.665L23.4 348.4ZM64.8 368.2L64.5013 369.162L64.5089 369.165L64.5165 369.167L64.8 368.2ZM99.3 382.6L99.8882 381.782L99.8775 381.774L99.8667 381.767L99.3 382.6ZM35.4 442.9L36.18 442.262L36.1747 442.255L36.1693 442.249L35.4 442.9ZM24.3 412.9L25.3021 412.793L25.2063 411.892H24.3V412.9ZM-0.40638 412.953C0.655308 433.125 8.09461 449.879 20.3796 461.592C32.6651 473.305 49.7247 479.908 69.9 479.908V477.892C50.1753 477.892 33.6349 471.445 21.7704 460.133C9.9054 448.821 2.64469 432.575 1.60638 412.847L-0.40638 412.953ZM69.9 479.908C108.838 479.908 137.808 451.575 137.808 413.2H135.792C135.792 450.425 107.762 477.892 69.9 477.892V479.908ZM137.808 413.2C137.808 393.426 129.592 375.712 115.51 364.998L114.29 366.602C127.808 376.888 135.792 393.974 135.792 413.2H137.808ZM115.483 364.978C106.049 358.283 96.6247 354.045 73.7919 347.135L73.2081 349.065C95.9753 355.955 105.151 360.117 114.317 366.622L115.483 364.978ZM73.7883 347.134C53.6599 341.126 47.2668 338.474 41.4527 333.532L40.1473 335.068C46.3332 340.326 53.1401 343.074 73.2117 349.066L73.7883 347.134ZM41.4761 333.553C35.4159 328.07 31.3078 318.456 31.3078 308.5H29.2922C29.2922 318.944 33.5841 329.13 40.1239 335.047L41.4761 333.553ZM31.3078 308.5C31.3078 286.551 47.0618 270.808 68.7 270.808V268.792C45.9382 268.792 29.2922 285.449 29.2922 308.5H31.3078ZM68.7 270.808C79.707 270.808 88.9679 274.618 95.6624 281.313C102.362 288.012 106.557 297.667 107.294 309.463L109.306 309.337C108.543 297.133 104.188 286.988 97.0876 279.887C89.9821 272.782 80.193 268.792 68.7 268.792V270.808ZM108.3 310.408H131.4V308.392H108.3V310.408ZM132.407 309.375C131.952 291.142 125.412 275.88 114.325 265.175C103.239 254.471 87.6767 248.392 69.3 248.392V250.408C87.2233 250.408 102.261 256.329 112.925 266.625C123.588 276.92 129.948 291.658 130.393 309.425L132.407 309.375ZM69.3 248.392C33.0735 248.392 6.79223 273.714 6.79223 309.1H8.80777C8.80777 274.886 34.1265 250.408 69.3 250.408V248.392ZM6.79223 309.1C6.79223 324.629 12.5738 339.613 22.71 349.135L24.09 347.665C14.4262 338.587 8.80777 324.171 8.80777 309.1H6.79223ZM22.7 349.125C27.112 353.385 31.0236 356.378 37.138 359.321C43.213 362.244 51.4537 365.113 64.5013 369.162L65.0987 367.238C52.0463 363.187 43.937 360.356 38.012 357.504C32.1264 354.672 28.388 351.815 24.1 347.675L22.7 349.125ZM64.5165 369.167C81.8779 374.256 91.3611 378.42 98.7333 383.433L99.8667 381.767C92.2389 376.58 82.5221 372.344 65.0835 367.233L64.5165 369.167ZM98.7118 383.418C108.01 390.101 113.292 401.174 113.292 414.4H115.308C115.308 400.626 109.79 388.899 99.8882 381.782L98.7118 383.418ZM113.292 414.4C113.292 439.353 95.4343 457.492 70.5 457.492V459.508C96.5657 459.508 115.308 440.447 115.308 414.4H113.292ZM70.5 457.492C56.9607 457.492 44.0637 451.897 36.18 442.262L34.62 443.538C42.9363 453.702 56.4393 459.508 70.5 459.508V457.492ZM36.1693 442.249C29.7411 434.652 26.7888 426.768 25.3021 412.793L23.2979 413.007C24.8113 427.232 27.8589 435.548 34.6307 443.551L36.1693 442.249ZM24.3 411.892H0.6V413.908H24.3V411.892ZM197.093 475H196.085V476.008H197.093V475ZM219.293 475V476.008H220.301V475H219.293ZM219.293 273.4V272.392H218.285V273.4H219.293ZM269.993 273.4V274.408H271.001V273.4H269.993ZM269.993 253.3H271.001V252.292H269.993V253.3ZM146.393 253.3V252.292H145.385V253.3H146.393ZM146.393 273.4H145.385V274.408H146.393V273.4ZM197.093 273.4H198.101V272.392H197.093V273.4ZM197.093 476.008H219.293V473.992H197.093V476.008ZM220.301 475V273.4H218.285V475H220.301ZM219.293 274.408H269.993V272.392H219.293V274.408ZM271.001 273.4V253.3H268.985V273.4H271.001ZM269.993 252.292H146.393V254.308H269.993V252.292ZM145.385 253.3V273.4H147.401V253.3H145.385ZM146.393 274.408H197.093V272.392H146.393V274.408ZM196.085 273.4V475H198.101V273.4H196.085ZM260.386 475L259.46 474.603L258.857 476.008H260.386V475ZM283.786 475V476.008H284.447L284.71 475.401L283.786 475ZM316.186 400.3V399.292H315.525L315.261 399.899L316.186 400.3ZM419.386 400.3L420.312 399.902L420.05 399.292H419.386V400.3ZM451.486 475L450.56 475.398L450.822 476.008H451.486V475ZM475.786 475V476.008H477.317L476.712 474.602L475.786 475ZM380.386 253.3L381.312 252.902L381.049 252.292H380.386V253.3ZM355.486 253.3V252.292H354.822L354.56 252.903L355.486 253.3ZM324.586 380.2L323.659 379.804L323.059 381.208H324.586V380.2ZM368.086 278.5L369.015 278.111L368.096 275.915L367.159 278.104L368.086 278.5ZM410.686 380.2V381.208H412.201L411.615 379.811L410.686 380.2ZM260.386 476.008H283.786V473.992H260.386V476.008ZM284.71 475.401L317.111 400.701L315.261 399.899L282.861 474.599L284.71 475.401ZM316.186 401.308H419.386V399.292H316.186V401.308ZM418.46 400.698L450.56 475.398L452.412 474.602L420.312 399.902L418.46 400.698ZM451.486 476.008H475.786V473.992H451.486V476.008ZM476.712 474.602L381.312 252.902L379.46 253.698L474.86 475.398L476.712 474.602ZM380.386 252.292H355.486V254.308H380.386V252.292ZM354.56 252.903L259.46 474.603L261.312 475.397L356.412 253.697L354.56 252.903ZM325.513 380.596L369.013 278.896L367.159 278.104L323.659 379.804L325.513 380.596ZM367.156 278.889L409.756 380.589L411.615 379.811L369.015 278.111L367.156 278.889ZM410.686 379.192H324.586V381.208H410.686V379.192ZM586.856 392.2L586.75 391.198L584.985 391.384L586.05 392.805L586.856 392.2ZM620.456 264.7L620.962 263.828L620.953 263.823L620.944 263.818L620.456 264.7ZM501.956 253.3V252.292H500.948V253.3H501.956ZM501.956 475H500.948V476.008H501.956V475ZM524.156 475V476.008H525.164V475H524.156ZM524.156 273.4V272.392H523.148V273.4H524.156ZM606.356 281.5L606.792 280.591L606.789 280.59L606.356 281.5ZM597.656 370.3L597.933 371.269L597.942 371.266L597.656 370.3ZM546.656 374.5V373.492H544.652L545.847 375.101L546.656 374.5ZM621.356 475L620.547 475.601L620.85 476.008H621.356V475ZM648.956 475V476.008H650.972L649.763 474.395L648.956 475ZM586.962 393.202C608.421 390.935 625.021 383.819 636.257 372.162C647.502 360.496 653.264 344.398 653.264 324.4H651.248C651.248 344.001 645.611 359.554 634.806 370.763C623.992 381.981 607.892 388.965 586.75 391.198L586.962 393.202ZM653.264 324.4C653.264 297.092 642.015 276.033 620.962 263.828L619.951 265.572C640.297 277.367 651.248 297.707 651.248 324.4H653.264ZM620.944 263.818C606.618 255.893 587.211 252.292 556.856 252.292V254.308C587.102 254.308 606.094 257.907 619.968 265.582L620.944 263.818ZM556.856 252.292H501.956V254.308H556.856V252.292ZM500.948 253.3V475H502.964V253.3H500.948ZM501.956 476.008H524.156V473.992H501.956V476.008ZM525.164 475V273.4H523.148V475H525.164ZM524.156 274.408H555.356V272.392H524.156V274.408ZM555.356 274.408C578.71 274.408 594.128 276.807 605.924 282.41L606.789 280.59C594.584 274.793 578.803 272.392 555.356 272.392V274.408ZM605.92 282.409C620.493 289.403 628.748 303.993 628.748 324.1H630.764C630.764 303.407 622.22 287.997 606.792 280.591L605.92 282.409ZM628.748 324.1C628.748 336.104 626.082 345.862 620.866 353.375C615.656 360.88 607.84 366.237 597.37 369.334L597.942 371.266C608.772 368.063 617.006 362.47 622.522 354.525C628.031 346.588 630.764 336.396 630.764 324.1H628.748ZM597.379 369.331C587.028 372.289 573.653 373.492 546.656 373.492V375.508C573.659 375.508 587.285 374.311 597.933 371.269L597.379 369.331ZM545.847 375.101L620.547 475.601L622.165 474.399L547.465 373.899L545.847 375.101ZM621.356 476.008H648.956V473.992H621.356V476.008ZM649.763 474.395L587.662 391.595L586.05 392.805L648.15 475.605L649.763 474.395ZM713.011 475H712.003V476.008H713.011V475ZM735.211 475V476.008H736.219V475H735.211ZM735.211 273.4V272.392H734.203V273.4H735.211ZM785.911 273.4V274.408H786.919V273.4H785.911ZM785.911 253.3H786.919V252.292H785.911V253.3ZM662.311 253.3V252.292H661.303V253.3H662.311ZM662.311 273.4H661.303V274.408H662.311V273.4ZM713.011 273.4H714.019V272.392H713.011V273.4ZM713.011 476.008H735.211V473.992H713.011V476.008ZM736.219 475V273.4H734.203V475H736.219ZM735.211 274.408H785.911V272.392H735.211V274.408ZM786.919 273.4V253.3H784.903V273.4H786.919ZM785.911 252.292H662.311V254.308H785.911V252.292ZM661.303 253.3V273.4H663.319V253.3H661.303ZM662.311 274.408H713.011V272.392H662.311V274.408ZM712.003 273.4V475H714.019V273.4H712.003ZM810.745 475H809.738V476.008H810.745V475ZM931.945 475V476.008H932.953V475H931.945ZM931.945 454.9H932.953V453.892H931.945V454.9ZM832.945 454.9H831.938V455.908H832.945V454.9ZM832.945 373V371.992H831.938V373H832.945ZM928.645 373V374.008H929.653V373H928.645ZM928.645 352.9H929.653V351.892H928.645V352.9ZM832.945 352.9H831.938V353.908H832.945V352.9ZM832.945 273.4V272.392H831.938V273.4H832.945ZM931.945 273.4V274.408H932.953V273.4H931.945ZM931.945 253.3H932.953V252.292H931.945V253.3ZM810.745 253.3V252.292H809.738V253.3H810.745ZM810.745 476.008H931.945V473.992H810.745V476.008ZM932.953 475V454.9H930.938V475H932.953ZM931.945 453.892H832.945V455.908H931.945V453.892ZM833.953 454.9V373H831.938V454.9H833.953ZM832.945 374.008H928.645V371.992H832.945V374.008ZM929.653 373V352.9H927.638V373H929.653ZM928.645 351.892H832.945V353.908H928.645V351.892ZM833.953 352.9V273.4H831.938V352.9H833.953ZM832.945 274.408H931.945V272.392H832.945V274.408ZM932.953 273.4V253.3H930.938V273.4H932.953ZM931.945 252.292H810.745V254.308H931.945V252.292ZM809.738 253.3V475H811.753V253.3H809.738ZM971.585 475H970.577V476.008H971.585V475ZM1105.39 459.7L1105.87 460.584L1105.87 460.582L1105.39 459.7ZM1110.79 272.2L1110.24 273.049L1110.25 273.053L1110.79 272.2ZM971.585 253.3V252.292H970.577V253.3H971.585ZM993.785 454.9H992.777V455.908H993.785V454.9ZM993.785 273.4V272.392H992.777V273.4H993.785ZM1093.99 286.6L1093.48 287.474L1093.49 287.479L1093.99 286.6ZM1106.29 433.6L1106.94 434.368L1106.94 434.364L1106.29 433.6ZM971.585 476.008H1031.29V473.992H971.585V476.008ZM1031.29 476.008C1063.49 476.008 1086.47 471.193 1105.87 460.584L1104.9 458.816C1085.9 469.207 1063.29 473.992 1031.29 473.992V476.008ZM1105.87 460.582C1141.02 441.189 1159.79 407.533 1159.79 364.9H1157.78C1157.78 406.867 1139.35 439.811 1104.9 458.818L1105.87 460.582ZM1159.79 364.9C1159.79 323.797 1143.15 291.353 1111.32 271.347L1110.25 273.053C1141.42 292.647 1157.78 324.403 1157.78 364.9H1159.79ZM1111.33 271.351C1089.49 257.4 1065.27 252.292 1023.79 252.292V254.308C1065.1 254.308 1088.88 259.4 1110.24 273.049L1111.33 271.351ZM1023.79 252.292H971.585V254.308H1023.79V252.292ZM970.577 253.3V475H972.593V253.3H970.577ZM994.793 454.9V273.4H992.777V454.9H994.793ZM993.785 274.408H1024.69V272.392H993.785V274.408ZM1024.69 274.408C1057.02 274.408 1077.51 278.305 1093.48 287.474L1094.49 285.726C1078.06 276.295 1057.15 272.392 1024.69 272.392V274.408ZM1093.49 287.479C1119.84 302.279 1135.28 330.418 1135.28 364H1137.29C1137.29 329.782 1121.53 300.921 1094.48 285.721L1093.49 287.479ZM1135.28 364C1135.28 391.941 1124.58 416.549 1105.63 432.836L1106.94 434.364C1126.39 417.651 1137.29 392.459 1137.29 364H1135.28ZM1105.63 432.832C1087.91 447.899 1065.1 453.892 1024.69 453.892V455.908C1065.27 455.908 1088.66 449.901 1106.94 434.368L1105.63 432.832ZM1024.69 453.892H993.785V455.908H1024.69V453.892Z" fill="#DCA236"/>
</svg>
