<svg width="666" height="101" viewBox="0 0 666 101" fill="none" xmlns="http://www.w3.org/2000/svg">
<path d="M54.1882 8.52655V88.8803C54.2794 91.2531 55.1464 93.2608 56.7891 94.9034C58.523 96.5461 60.5763 97.3674 62.9491 97.3674H64.5917L64.7286 98.7363H23.1144V97.3674H24.894C27.1754 97.3674 29.1375 96.5461 30.7802 94.9034C32.5141 93.2608 33.4723 91.2987 33.6548 89.0172V8.52655H15.1748C10.9769 8.61781 7.64596 9.94106 5.18196 12.4963C2.71796 15.0516 1.48596 18.3825 1.48596 22.4892V24.1319H0.117067V0.313214C1.3947 0.860768 3.67618 1.40832 6.96151 1.95588C10.3381 2.50344 13.4409 2.77721 16.27 2.77721H71.4362C75.9079 2.68596 79.5583 2.32092 82.3873 1.6821C85.2163 1.04329 86.9503 0.586993 87.5891 0.313214V24.1319H86.2202V22.4892C86.2202 18.3825 84.9882 15.0516 82.5242 12.4963C80.0602 9.94106 76.7292 8.61781 72.5313 8.52655H54.1882ZM161.785 97.3674C164.158 97.3674 165.983 96.7743 167.261 95.5879C169.359 93.4889 170.455 91.2531 170.546 88.8803V53.9737H126.194V88.7434C126.194 91.1162 127.061 93.1695 128.795 94.9034C130.529 96.5461 132.582 97.3674 134.955 97.3674H136.597L136.734 98.7363H95.1201V97.3674H96.8996C99.2724 97.3674 101.28 96.5461 102.923 94.9034C104.657 93.1695 105.569 91.1162 105.661 88.7434V12.7701C105.569 10.3974 104.657 8.38966 102.923 6.74699C101.28 5.10432 99.2724 4.28299 96.8996 4.28299H95.1201V2.9141H136.734L136.597 4.28299H134.955C132.582 4.28299 130.529 5.10432 128.795 6.74699C127.061 8.38966 126.194 10.3974 126.194 12.7701V48.0874H170.546V12.7701C170.455 10.3974 169.542 8.38966 167.808 6.74699C166.165 5.10432 164.158 4.28299 161.785 4.28299H160.005V2.9141H201.62V4.28299H199.84C197.467 4.28299 195.414 5.14995 193.68 6.88389C191.946 8.52655 191.079 10.5342 191.079 12.907V88.7434C191.079 91.1162 191.946 93.1695 193.68 94.9034C195.414 96.5461 197.467 97.3674 199.84 97.3674H201.62V98.7363H160.005V97.3674H161.785ZM162.269 97.3674C164.642 97.3674 166.65 96.5461 168.293 94.9034C170.026 93.1695 170.939 91.1162 171.03 88.7434V12.4963C170.757 9.30225 169.251 6.92951 166.513 5.3781C165.144 4.64803 163.73 4.28299 162.269 4.28299H160.49V2.9141H212.918C215.747 2.9141 218.85 2.64032 222.227 2.09277C225.603 1.54522 227.976 0.99766 229.345 0.450101V24.4057H227.976V22.763C227.976 18.6563 226.744 15.371 224.28 12.907C221.907 10.3517 218.668 8.98285 214.561 8.80033H191.564V48.635H209.633C213.01 48.5437 215.793 47.403 217.983 45.2128C220.173 42.9313 221.269 40.1479 221.269 36.8625V35.6305H222.637V67.2519H221.269V66.1568C221.269 61.5938 219.443 58.2172 215.793 56.027C213.968 55.0231 211.96 54.4756 209.77 54.3843H191.564V92.8501H209.496C216.158 92.8501 221.725 90.9337 226.197 87.1008C230.76 83.2679 234.136 77.838 236.326 70.811H237.695L231.398 98.7363H160.49V97.3674H162.269ZM282.849 97.3674C285.222 97.3674 287.23 96.5461 288.872 94.9034C290.606 93.1695 291.519 91.1162 291.61 88.7434V12.7701C291.519 10.3974 290.606 8.38966 288.872 6.74699C287.23 5.10432 285.222 4.28299 282.849 4.28299H281.07V2.9141H322.684L322.547 4.28299H320.904C318.532 4.28299 316.478 5.10432 314.744 6.74699C313.01 8.38966 312.144 10.3974 312.144 12.7701V88.7434C312.144 91.1162 313.01 93.1695 314.744 94.9034C316.478 96.5461 318.532 97.3674 320.904 97.3674H322.547L322.684 98.7363H281.07V97.3674H282.849ZM387.745 100.516C370.132 100.516 356.306 96.0898 346.267 87.2377C336.229 78.3855 331.21 66.248 331.21 50.8252C331.21 35.4024 336.183 23.2649 346.13 14.4128C356.078 5.46936 369.721 0.997658 387.06 0.997658C400.293 0.997658 411.655 3.46166 421.146 8.38966L421.419 31.9345H420.324C415.67 15.1428 405.038 6.74699 388.429 6.74699C377.661 6.74699 369.128 10.6711 362.831 18.5194C356.625 26.2765 353.522 36.9082 353.522 50.4145C353.522 63.9209 356.488 74.6439 362.42 82.5834C368.443 90.523 376.565 94.6297 386.786 94.9034C397.373 94.9034 405.449 92.2569 411.016 86.9639C416.674 81.4883 420.598 72.0886 422.788 58.7648H423.883L425.252 82.3097C417.86 94.5384 405.358 100.607 387.745 100.516ZM492.091 0.997658C508.974 0.997658 522.39 5.46936 532.337 14.4128C542.284 23.3562 547.258 35.4937 547.258 50.8252C547.258 66.1568 542.284 78.2943 532.337 87.2377C522.39 96.1811 508.974 100.653 492.091 100.653C475.208 100.653 461.793 96.1811 451.846 87.2377C441.899 78.2943 436.925 66.1568 436.925 50.8252C436.925 40.6954 439.161 31.8889 443.633 24.4057C448.196 16.8311 454.63 11.0362 462.934 7.02077C471.239 3.00536 480.958 0.997658 492.091 0.997658ZM468.136 83.131C474.068 90.9793 482.053 94.9034 492.091 94.9034C502.13 94.9034 510.07 90.9793 515.91 83.131C521.842 75.1914 524.808 64.4228 524.808 50.8252C524.808 41.8818 523.485 34.0791 520.838 27.4172C518.192 20.7553 514.404 15.6448 509.476 12.0857C504.548 8.52655 498.753 6.74699 492.091 6.74699C482.053 6.74699 474.068 10.7168 468.136 18.6563C462.295 26.5046 459.375 37.2276 459.375 50.8252C459.375 64.4228 462.295 75.1914 468.136 83.131ZM662.808 4.28299C660.526 4.28299 658.564 5.10432 656.922 6.74699C655.279 8.2984 654.412 10.2148 654.321 12.4963V83.131C654.321 89.2454 654.732 94.4015 655.553 98.5994L655.964 100.653H654.732L585.603 34.8092V89.1541C585.603 91.4356 586.424 93.3977 588.067 95.0403C589.709 96.5917 591.671 97.3674 593.953 97.3674H596.554V98.7363H555.076V97.3674H557.54C559.913 97.3674 561.921 96.5917 563.564 95.0403C565.206 93.3977 566.028 91.39 566.028 89.0172V17.9719C566.028 11.9488 565.617 6.92951 564.796 2.9141L564.522 0.86077H565.754L634.883 66.7043V12.6332C634.791 10.2605 633.924 8.2984 632.282 6.74699C630.639 5.10432 628.677 4.28299 626.396 4.28299H623.932V2.9141H665.409V4.28299H662.808Z" fill="#DCA236"/>
</svg>
