<svg width="26" height="26" viewBox="0 0 26 26" fill="none" xmlns="http://www.w3.org/2000/svg">
<g clip-path="url(#clip0_220_4788)">
<path d="M7.86246 5.98293C7.86218 6.53809 7.64138 7.0704 7.24863 7.46275C6.85588 7.85511 6.32335 8.07538 5.76819 8.0751C5.21304 8.07482 4.68073 7.85402 4.28837 7.46127C3.89602 7.06852 3.67575 6.536 3.67603 5.98084C3.6763 5.42569 3.8971 4.89338 4.28985 4.50102C4.6826 4.10866 5.21513 3.88839 5.77029 3.88867C6.32544 3.88895 6.85775 4.10975 7.25011 4.5025C7.64246 4.89525 7.86273 5.42778 7.86246 5.98293ZM7.92525 9.62513H3.73882V22.7287H7.92525V9.62513ZM14.5398 9.62513H10.3743V22.7287H14.4979V15.8524C14.4979 12.0219 19.4903 11.666 19.4903 15.8524V22.7287H23.6244V14.4291C23.6244 7.97149 16.2353 8.21221 14.4979 11.3834L14.5398 9.62513Z" fill="#1B3459"/>
</g>
<defs>
<clipPath id="clip0_220_4788">
<rect width="25.1186" height="25.1186" fill="white" transform="translate(0.599548 0.749023)"/>
</clipPath>
</defs>
</svg>
