<svg width="1422" height="152" viewBox="0 0 1422 152" fill="none" xmlns="http://www.w3.org/2000/svg">
<path opacity="0.6" d="M0.0275517 149H-0.631552V149.659H0.0275517V149ZM14.6596 149V149.659H15.3187V149H14.6596ZM14.6596 2.87684H15.3187V2.21774H14.6596V2.87684ZM0.0275517 2.87684V2.21774H-0.631552V2.87684H0.0275517ZM0.0275517 149.659H14.6596V148.341H0.0275517V149.659ZM15.3187 149V2.87684H14.0005V149H15.3187ZM14.6596 2.21774H0.0275517V3.53594H14.6596V2.21774ZM-0.631552 2.87684V149H0.686654V2.87684H-0.631552ZM44.6329 149H43.9738V149.659H44.6329V149ZM59.265 149V149.659H59.9241V149H59.265ZM59.265 20.4749L59.8108 20.1054L58.6059 18.3254V20.4749H59.265ZM146.267 149L145.721 149.369L145.917 149.659H146.267V149ZM160.899 149V149.659H161.558V149H160.899ZM160.899 2.87684H161.558V2.21774H160.899V2.87684ZM146.267 2.87684V2.21774H145.607V2.87684H146.267ZM146.267 124.086L145.72 124.455L146.926 126.239V124.086H146.267ZM64.406 2.87684L64.9522 2.50795L64.7562 2.21774H64.406V2.87684ZM44.6329 2.87684V2.21774H43.9738V2.87684H44.6329ZM44.6329 149.659H59.265V148.341H44.6329V149.659ZM59.9241 149V20.4749H58.6059V149H59.9241ZM58.7191 20.8444L145.721 149.369L146.812 148.631L59.8108 20.1054L58.7191 20.8444ZM146.267 149.659H160.899V148.341H146.267V149.659ZM161.558 149V2.87684H160.24V149H161.558ZM160.899 2.21774H146.267V3.53594H160.899V2.21774ZM145.607 2.87684V124.086H146.926V2.87684H145.607ZM146.813 123.717L64.9522 2.50795L63.8598 3.24573L145.72 124.455L146.813 123.717ZM64.406 2.21774H44.6329V3.53594H64.406V2.21774ZM43.9738 2.87684V149H45.292V2.87684H43.9738ZM210.773 149H210.114V149.659H210.773V149ZM225.405 149V149.659H226.064V149H225.405ZM225.405 16.1248V15.4657H224.746V16.1248H225.405ZM258.822 16.1248V16.7839H259.481V16.1248H258.822ZM258.822 2.87684H259.481V2.21774H258.822V2.87684ZM177.357 2.87684V2.21774H176.698V2.87684H177.357ZM177.357 16.1248H176.698V16.7839H177.357V16.1248ZM210.773 16.1248H211.432V15.4657H210.773V16.1248ZM210.773 149.659H225.405V148.341H210.773V149.659ZM226.064 149V16.1248H224.746V149H226.064ZM225.405 16.7839H258.822V15.4657H225.405V16.7839ZM259.481 16.1248V2.87684H258.163V16.1248H259.481ZM258.822 2.21774H177.357V3.53594H258.822V2.21774ZM176.698 2.87684V16.1248H178.016V2.87684H176.698ZM177.357 16.7839H210.773V15.4657H177.357V16.7839ZM210.114 16.1248V149H211.432V16.1248H210.114ZM331.148 94.4263L331.079 93.7708L329.924 93.8928L330.621 94.8217L331.148 94.4263ZM353.294 10.3906L353.625 9.82028L353.613 9.81388L353.294 10.3906ZM275.19 2.87684V2.21774H274.531V2.87684H275.19ZM275.19 149H274.531V149.659H275.19V149ZM289.822 149V149.659H290.481V149H289.822ZM289.822 16.1248V15.4657H289.163V16.1248H289.822ZM344.001 21.4635L344.286 20.8693L344.283 20.8682L344.001 21.4635ZM338.266 79.9919L338.447 80.6257L338.453 80.6239L338.266 79.9919ZM304.652 82.7601V82.101H303.341L304.123 83.1533L304.652 82.7601ZM353.887 149L353.358 149.393L353.556 149.659H353.887V149ZM372.078 149V149.659H373.397L372.606 148.605L372.078 149ZM331.217 95.0817C345.36 93.5878 356.3 88.8974 363.704 81.2155C371.115 73.5277 374.913 62.9191 374.913 49.7391H373.594C373.594 62.6595 369.878 72.9116 362.755 80.3007C355.627 87.6958 345.014 92.2988 331.079 93.7708L331.217 95.0817ZM374.913 49.7391C374.913 31.7422 367.499 17.8636 353.624 9.8204L352.963 10.9608C366.376 18.7361 373.594 32.1444 373.594 49.7391H374.913ZM353.613 9.81388C344.172 4.5912 331.381 2.21774 311.375 2.21774V3.53594C331.31 3.53594 343.829 5.90801 352.975 10.9674L353.613 9.81388ZM311.375 2.21774H275.19V3.53594H311.375V2.21774ZM274.531 2.87684V149H275.849V2.87684H274.531ZM275.19 149.659H289.822V148.341H275.19V149.659ZM290.481 149V16.1248H289.163V149H290.481ZM289.822 16.7839H310.386V15.4657H289.822V16.7839ZM310.386 16.7839C325.779 16.7839 335.942 18.3656 343.718 22.0589L344.283 20.8682C336.24 17.0477 325.84 15.4657 310.386 15.4657V16.7839ZM343.715 22.0577C353.322 26.6691 358.764 36.2871 358.764 49.5413H360.083C360.083 35.9042 354.452 25.7491 344.286 20.8693L343.715 22.0577ZM358.764 49.5413C358.764 57.4537 357.007 63.8865 353.568 68.8397C350.134 73.7874 344.981 77.3185 338.079 79.3599L338.453 80.6239C345.591 78.5129 351.017 74.8269 354.651 69.5914C358.281 64.3615 360.083 57.6452 360.083 49.5413H358.764ZM338.085 79.3582C331.262 81.3078 322.446 82.101 304.652 82.101V83.4192C322.45 83.4192 331.43 82.6306 338.447 80.6256L338.085 79.3582ZM304.123 83.1533L353.358 149.393L354.416 148.607L305.181 82.367L304.123 83.1533ZM353.887 149.659H372.078V148.341H353.887V149.659ZM372.606 148.605L331.675 94.0308L330.621 94.8217L371.551 149.395L372.606 148.605ZM467.463 -0.352767C423.62 -0.352767 388.503 33.5358 388.503 76.0373H389.821C389.821 34.3054 424.306 0.96544 467.463 0.96544V-0.352767ZM388.503 76.0373C388.503 117.741 423.811 152.23 466.475 152.23V150.911C424.51 150.911 389.821 116.985 389.821 76.0373H388.503ZM466.475 152.23C509.14 152.23 544.249 117.938 544.249 76.0373H542.931C542.931 117.184 508.439 150.911 466.475 150.911V152.23ZM544.249 76.0373C544.249 34.3431 509.149 -0.352767 467.463 -0.352767V0.96544C508.43 0.96544 542.931 35.08 542.931 76.0373H544.249ZM465.684 14.4111C500.324 14.4111 528.101 42.0015 528.101 76.235H529.419C529.419 41.2627 501.041 13.0929 465.684 13.0929V14.4111ZM528.101 76.235C528.101 109.679 500.125 137.466 466.475 137.466V138.784C500.844 138.784 529.419 110.415 529.419 76.235H528.101ZM466.475 137.466C432.627 137.466 404.651 109.679 404.651 76.0373H403.333C403.333 110.415 431.907 138.784 466.475 138.784V137.466ZM404.651 76.0373C404.651 42.7802 432.638 14.4111 465.684 14.4111V13.0929C431.897 13.0929 403.333 42.0658 403.333 76.0373H404.651ZM567.345 149H566.686V149.659H567.345V149ZM655.533 138.916L655.85 139.494L655.852 139.493L655.533 138.916ZM659.093 15.3339L658.738 15.8893L658.742 15.8919L659.093 15.3339ZM567.345 2.87684V2.21774H566.686V2.87684H567.345ZM581.978 135.752H581.318V136.411H581.978V135.752ZM581.978 16.1248V15.4657H581.318V16.1248H581.978ZM648.02 24.825L647.691 25.3966L647.697 25.3996L648.02 24.825ZM656.127 121.713L656.553 122.215L656.556 122.213L656.127 121.713ZM567.345 149.659H606.694V148.341H567.345V149.659ZM606.694 149.659C627.917 149.659 643.065 146.486 655.85 139.494L655.217 138.337C642.692 145.187 627.786 148.341 606.694 148.341V149.659ZM655.852 139.493C679.017 126.712 691.389 104.531 691.389 76.4327H690.07C690.07 104.095 677.923 125.81 655.215 138.339L655.852 139.493ZM691.389 76.4327C691.389 49.3433 680.42 27.9612 659.443 14.7759L658.742 15.8919C679.289 28.8071 690.07 49.7394 690.07 76.4327H691.389ZM659.447 14.7785C645.057 5.58429 629.09 2.21774 601.751 2.21774V3.53594C628.985 3.53594 644.655 6.89223 658.738 15.8893L659.447 14.7785ZM601.751 2.21774H567.345V3.53594H601.751V2.21774ZM566.686 2.87684V149H568.005V2.87684H566.686ZM582.637 135.752V16.1248H581.318V135.752H582.637ZM581.978 16.7839H602.344V15.4657H581.978V16.7839ZM602.344 16.7839C623.659 16.7839 637.163 19.3527 647.692 25.3966L648.348 24.2534C637.521 18.0379 623.739 15.4657 602.344 15.4657V16.7839ZM647.697 25.3996C665.062 35.1553 675.241 53.7038 675.241 75.8396H676.559C676.559 53.2881 666.173 34.2677 648.342 24.2503L647.697 25.3996ZM675.241 75.8396C675.241 94.2568 668.19 110.477 655.697 121.213L656.556 122.213C669.373 111.199 676.559 94.5957 676.559 75.8396H675.241ZM655.7 121.211C644.015 131.143 628.984 135.093 602.344 135.093V136.411C629.091 136.411 644.51 132.452 656.553 122.215L655.7 121.211ZM602.344 135.093H581.978V136.411H602.344V135.093ZM714.485 2.87684V2.21774H713.826V2.87684H714.485ZM724.767 133.577L724.241 133.974L724.242 133.975L724.767 133.577ZM803.662 133.577L804.187 133.975L804.188 133.974L803.662 133.577ZM813.944 2.87684H814.603V2.21774H813.944V2.87684ZM799.312 2.87684V2.21774H798.652V2.87684H799.312ZM792.589 124.284L792.038 123.922L792.036 123.924L792.589 124.284ZM735.84 124.284L736.392 123.924L736.391 123.922L735.84 124.284ZM729.117 2.87684H729.776V2.21774H729.117V2.87684ZM713.826 2.87684V94.0308H715.144V2.87684H713.826ZM713.826 94.0308C713.826 112.89 716.805 124.126 724.241 133.974L725.293 133.18C718.097 123.65 715.144 112.741 715.144 94.0308H713.826ZM724.242 133.975C733.086 145.633 747.729 152.23 764.115 152.23V150.911C748.074 150.911 733.849 144.458 725.292 133.179L724.242 133.975ZM764.115 152.23C780.698 152.23 795.342 145.634 804.187 133.975L803.137 133.179C794.581 144.457 780.356 150.911 764.115 150.911V152.23ZM804.188 133.974C811.624 124.126 814.603 112.89 814.603 94.0308H813.285C813.285 112.741 810.331 123.65 803.136 133.18L804.188 133.974ZM814.603 94.0308V2.87684H813.285V94.0308H814.603ZM813.944 2.21774H799.312V3.53594H813.944V2.21774ZM798.652 2.87684V94.0308H799.971V2.87684H798.652ZM798.652 94.0308C798.652 107.226 796.483 117.158 792.038 123.922L793.14 124.646C797.79 117.568 799.971 107.332 799.971 94.0308H798.652ZM792.036 123.924C786.644 132.205 775.999 137.466 764.115 137.466V138.784C776.355 138.784 787.46 133.367 793.141 124.643L792.036 123.924ZM764.115 137.466C752.432 137.466 741.785 132.206 736.392 123.924L735.288 124.643C740.967 133.366 752.072 138.784 764.115 138.784V137.466ZM736.391 123.922C731.946 117.158 729.776 107.226 729.776 94.0308H728.458C728.458 107.332 730.638 117.568 735.289 124.646L736.391 123.922ZM729.776 94.0308V2.87684H728.458V94.0308H729.776ZM729.117 2.21774H714.485V3.53594H729.117V2.21774ZM965.064 110.64V109.981H964.738L964.54 110.24L965.064 110.64ZM951.223 125.47L951.636 125.984L951.643 125.978L951.223 125.47ZM947.466 23.0454L947.114 23.6024L947.115 23.6034L947.466 23.0454ZM964.273 40.8412L963.716 41.1927L963.91 41.5003H964.273V40.8412ZM980.685 40.8412V41.5003H981.703L981.286 40.5713L980.685 40.8412ZM981.278 110.64L981.858 110.953L982.383 109.981H981.278V110.64ZM964.54 110.24C958.832 117.72 955.307 121.242 950.803 124.962L951.643 125.978C956.235 122.185 959.828 118.588 965.588 111.04L964.54 110.24ZM950.81 124.956C940.849 132.964 927.749 137.466 914.247 137.466V138.784C928.033 138.784 941.428 134.19 951.636 125.984L950.81 124.956ZM914.247 137.466C880.607 137.466 853.214 109.886 853.214 75.8396H851.896C851.896 110.603 879.868 138.784 914.247 138.784V137.466ZM853.214 75.8396C853.214 41.0005 879.422 14.4111 914.05 14.4111V13.0929C878.68 13.0929 851.896 40.2864 851.896 75.8396H853.214ZM914.05 14.4111C926.391 14.4111 937.538 17.5443 947.114 23.6024L947.818 22.4884C938.016 16.2871 926.622 13.0929 914.05 13.0929V14.4111ZM947.115 23.6034C953.932 27.8883 958.02 32.1577 963.716 41.1927L964.831 40.4897C959.058 31.3334 954.841 26.9026 947.817 22.4874L947.115 23.6034ZM964.273 41.5003H980.685V40.1821H964.273V41.5003ZM981.286 40.5713C969.896 15.1924 943.934 -0.352767 913.456 -0.352767V0.96544C943.484 0.96544 968.933 16.2663 980.084 41.1111L981.286 40.5713ZM913.456 -0.352767C869.588 -0.352767 837.066 32.3736 837.066 76.4327H838.385C838.385 33.0948 870.323 0.96544 913.456 0.96544V-0.352767ZM837.066 76.4327C837.066 119.519 870.395 152.23 914.445 152.23V150.911C871.098 150.911 838.385 118.766 838.385 76.4327H837.066ZM914.445 152.23C944.359 152.23 967.117 138.245 981.858 110.953L980.698 110.327C966.175 137.214 943.85 150.911 914.445 150.911V152.23ZM981.278 109.981H965.064V111.299H981.278V109.981ZM1024.68 149H1024.02V149.659H1024.68V149ZM1039.31 149V149.659H1039.97V149H1039.31ZM1039.31 16.1248V15.4657H1038.65V16.1248H1039.31ZM1072.72 16.1248V16.7839H1073.38V16.1248H1072.72ZM1072.72 2.87684H1073.38V2.21774H1072.72V2.87684ZM991.259 2.87684V2.21774H990.6V2.87684H991.259ZM991.259 16.1248H990.6V16.7839H991.259V16.1248ZM1024.68 16.1248H1025.33V15.4657H1024.68V16.1248ZM1024.68 149.659H1039.31V148.341H1024.68V149.659ZM1039.97 149V16.1248H1038.65V149H1039.97ZM1039.31 16.7839H1072.72V15.4657H1039.31V16.7839ZM1073.38 16.1248V2.87684H1072.06V16.1248H1073.38ZM1072.72 2.21774H991.259V3.53594H1072.72V2.21774ZM990.6 2.87684V16.1248H991.918V2.87684H990.6ZM991.259 16.7839H1024.68V15.4657H991.259V16.7839ZM1024.02 16.1248V149H1025.33V16.1248H1024.02ZM1089.09 149H1088.43V149.659H1089.09V149ZM1103.72 149V149.659H1104.38V149H1103.72ZM1103.72 2.87684H1104.38V2.21774H1103.72V2.87684ZM1089.09 2.87684V2.21774H1088.43V2.87684H1089.09ZM1089.09 149.659H1103.72V148.341H1089.09V149.659ZM1104.38 149V2.87684H1103.07V149H1104.38ZM1103.72 2.21774H1089.09V3.53594H1103.72V2.21774ZM1088.43 2.87684V149H1089.75V2.87684H1088.43ZM1205.67 -0.352767C1161.83 -0.352767 1126.71 33.5358 1126.71 76.0373H1128.03C1128.03 34.3054 1162.51 0.96544 1205.67 0.96544V-0.352767ZM1126.71 76.0373C1126.71 117.741 1162.02 152.23 1204.68 152.23V150.911C1162.72 150.911 1128.03 116.985 1128.03 76.0373H1126.71ZM1204.68 152.23C1247.35 152.23 1282.46 117.938 1282.46 76.0373H1281.14C1281.14 117.184 1246.65 150.911 1204.68 150.911V152.23ZM1282.46 76.0373C1282.46 34.3431 1247.36 -0.352767 1205.67 -0.352767V0.96544C1246.64 0.96544 1281.14 35.08 1281.14 76.0373H1282.46ZM1203.89 14.4111C1238.53 14.4111 1266.31 42.0015 1266.31 76.235H1267.63C1267.63 41.2627 1239.25 13.0929 1203.89 13.0929V14.4111ZM1266.31 76.235C1266.31 109.679 1238.33 137.466 1204.68 137.466V138.784C1239.05 138.784 1267.63 110.415 1267.63 76.235H1266.31ZM1204.68 137.466C1170.84 137.466 1142.86 109.679 1142.86 76.0373H1141.54C1141.54 110.415 1170.12 138.784 1204.68 138.784V137.466ZM1142.86 76.0373C1142.86 42.7802 1170.85 14.4111 1203.89 14.4111V13.0929C1170.1 13.0929 1141.54 42.0658 1141.54 76.0373H1142.86ZM1305.55 149H1304.89V149.659H1305.55V149ZM1320.19 149V149.659H1320.84V149H1320.19ZM1320.19 20.4749L1320.73 20.1054L1319.53 18.3254V20.4749H1320.19ZM1407.19 149L1406.64 149.369L1406.84 149.659H1407.19V149ZM1421.82 149V149.659H1422.48V149H1421.82ZM1421.82 2.87684H1422.48V2.21774H1421.82V2.87684ZM1407.19 2.87684V2.21774H1406.53V2.87684H1407.19ZM1407.19 124.086L1406.64 124.455L1407.85 126.239V124.086H1407.19ZM1325.33 2.87684L1325.87 2.50795L1325.68 2.21774H1325.33V2.87684ZM1305.55 2.87684V2.21774H1304.89V2.87684H1305.55ZM1305.55 149.659H1320.19V148.341H1305.55V149.659ZM1320.84 149V20.4749H1319.53V149H1320.84ZM1319.64 20.8444L1406.64 149.369L1407.73 148.631L1320.73 20.1054L1319.64 20.8444ZM1407.19 149.659H1421.82V148.341H1407.19V149.659ZM1422.48 149V2.87684H1421.16V149H1422.48ZM1421.82 2.21774H1407.19V3.53594H1421.82V2.21774ZM1406.53 2.87684V124.086H1407.85V2.87684H1406.53ZM1407.73 123.717L1325.87 2.50795L1324.78 3.24573L1406.64 124.455L1407.73 123.717ZM1325.33 2.21774H1305.55V3.53594H1325.33V2.21774ZM1304.89 2.87684V149H1306.21V2.87684H1304.89Z" fill="#1B3459"/>
</svg>
