<svg width="185" height="76" viewBox="0 0 185 76" fill="none" xmlns="http://www.w3.org/2000/svg">
<path fill-rule="evenodd" clip-rule="evenodd" d="M75.525 66.9708C75.525 66.6567 75.525 66.3425 75.3602 66.1855C75.1954 65.8713 75.0306 65.7143 74.8658 65.5572C74.701 65.4001 74.3713 65.2431 74.2065 65.086C73.8769 64.9289 73.7121 64.9289 73.3825 64.9289C73.0528 64.9289 72.7232 64.9289 72.5584 65.086C72.2288 65.2431 72.064 65.4001 71.8992 65.5572C71.7344 65.7143 71.5696 66.0284 71.4047 66.1855C71.2399 66.4996 71.2399 66.6567 71.2399 66.9708C71.2399 67.2849 71.2399 67.5991 71.4047 67.7561C71.5696 68.0703 71.7344 68.2273 71.8992 68.3844C72.064 68.5414 72.3936 68.6985 72.5584 68.8556C72.888 69.0126 73.0528 69.0127 73.3825 69.0127C73.7121 69.0127 74.0417 69.0126 74.2065 68.8556C74.5361 68.6985 74.701 68.5414 74.8658 68.3844C75.0306 68.2273 75.1954 67.9132 75.3602 67.7561C75.525 67.5991 75.525 67.2849 75.525 66.9708ZM70.5807 66.9708C70.5807 66.6567 70.5807 66.3425 70.7455 66.0284C70.9103 65.7143 71.0751 65.4001 71.4047 65.2431C71.7344 65.086 71.8992 64.7719 72.2288 64.7719C72.5584 64.6148 72.888 64.6148 73.3825 64.6148C73.7121 64.6148 74.2065 64.6148 74.5361 64.7719C74.8658 64.9289 75.1954 65.086 75.3602 65.2431C75.6898 65.4001 75.8546 65.7143 76.0194 66.0284C76.1842 66.3425 76.1842 66.6567 76.1842 67.1279C76.1842 67.442 76.1842 67.7561 76.0194 68.2273C75.8546 68.5415 75.6898 68.8556 75.3602 69.0127C75.0306 69.1697 74.8658 69.4839 74.5361 69.4839C74.2065 69.6409 73.8769 69.6409 73.3825 69.6409C73.0528 69.6409 72.5584 69.6409 72.2288 69.4839C71.8992 69.3268 71.5696 69.1697 71.4047 69.0127C71.0751 68.8556 70.9103 68.5415 70.7455 68.2273C70.5807 67.7561 70.5807 67.2849 70.5807 66.9708ZM82.9415 66.1855C82.9415 65.7143 82.7766 65.4001 82.447 65.2431C82.1174 65.086 81.7878 64.9289 81.2934 64.9289H79.8101V67.442H81.2934C81.7878 67.442 82.2822 67.2849 82.447 67.1279C82.7766 66.9708 82.9415 66.6567 82.9415 66.1855ZM82.9415 69.4839L81.7878 67.9132C81.623 67.9132 81.4582 67.9132 81.2934 67.9132H79.8101V69.4839H79.3156V64.4577H81.2934C81.623 64.4577 81.9526 64.4577 82.2822 64.6148C82.6118 64.7719 82.7766 64.7719 82.9415 64.9289C83.1063 65.086 83.2711 65.2431 83.4359 65.4001C83.6007 65.5572 83.6007 65.8713 83.6007 66.1855C83.6007 66.6567 83.4359 66.9708 83.2711 67.1279C83.1063 67.442 82.7766 67.5991 82.447 67.7561L83.7655 69.4839H82.9415ZM90.3579 67.7561V69.4839H89.8635V67.7561L87.7209 64.4577H88.3802L90.1931 67.2849L92.006 64.4577H92.5004L90.3579 67.7561ZM99.5873 66.9708C99.5873 66.6567 99.5873 66.3425 99.4225 66.1855C99.2577 65.8713 99.0928 65.7143 98.928 65.5572C98.7632 65.4001 98.4336 65.2431 98.2688 65.086C97.9392 64.9289 97.7744 64.9289 97.4447 64.9289C97.1151 64.9289 96.7855 64.9289 96.6207 65.086C96.2911 65.2431 96.1263 65.4001 95.9615 65.5572C95.7966 65.7143 95.6318 66.0284 95.467 66.1855C95.3022 66.4996 95.3022 66.6567 95.3022 66.9708C95.3022 67.2849 95.3022 67.5991 95.467 67.7561C95.6318 68.0703 95.7966 68.2273 95.9615 68.3844C96.1263 68.5414 96.4559 68.6985 96.6207 68.8556C96.9503 69.0126 97.1151 69.0127 97.4447 69.0127C97.7744 69.0127 98.104 69.0126 98.2688 68.8556C98.5984 68.6985 98.7632 68.5414 98.928 68.3844C99.0928 68.2273 99.2577 67.9132 99.4225 67.7561C99.5873 67.5991 99.5873 67.2849 99.5873 66.9708ZM94.4782 66.9708C94.4782 66.6567 94.4782 66.3425 94.643 66.0284C94.8078 65.7143 94.9726 65.4001 95.3022 65.2431C95.6318 65.086 95.7967 64.7719 96.1263 64.7719C96.4559 64.6148 96.7855 64.6148 97.2799 64.6148C97.6096 64.6148 98.104 64.6148 98.4336 64.7719C98.7632 64.9289 99.0928 65.086 99.2577 65.2431C99.5873 65.4001 99.7521 65.7143 99.9169 66.0284C100.082 66.3425 100.082 66.6567 100.082 67.1279C100.082 67.442 100.082 67.7561 99.9169 68.2273C99.7521 68.5415 99.5873 68.8556 99.2577 69.0127C98.928 69.1697 98.7632 69.4839 98.4336 69.4839C98.104 69.6409 97.7744 69.6409 97.2799 69.6409C96.9503 69.6409 96.4559 69.6409 96.1263 69.4839C95.7967 69.3268 95.467 69.1697 95.3022 69.0127C94.9726 68.8556 94.8078 68.5415 94.643 68.2273C94.643 67.7561 94.4782 67.2849 94.4782 66.9708ZM103.213 67.2849V64.3007H103.708V67.1279C103.708 67.7561 103.872 68.2273 104.202 68.3844C104.532 68.6985 104.861 68.8556 105.356 68.8556C105.85 68.8556 106.345 68.6985 106.509 68.3844C106.674 68.0702 107.004 67.5991 107.004 67.1279V64.3007H107.498V67.2849C107.498 68.0703 107.333 68.5415 107.004 69.0127C106.674 69.3268 106.015 69.6409 105.356 69.6409C104.696 69.6409 104.202 69.4839 103.708 69.0127C103.378 68.6985 103.213 68.0703 103.213 67.2849ZM115.574 64.4577V69.4839H115.079L111.618 65.4001V69.4839H111.124V64.4577H111.618L115.079 68.5415V64.4577H115.574ZM121.342 66.9708H123.485V69.0127C123.155 69.1697 122.99 69.3268 122.661 69.4839C122.331 69.6409 122.001 69.6409 121.507 69.6409C121.177 69.6409 120.683 69.6409 120.353 69.4839C120.024 69.3268 119.694 69.1697 119.529 69.0127C119.2 68.8556 119.035 68.5415 118.87 68.2273C118.705 67.9132 118.705 67.5991 118.705 67.1279C118.705 66.8137 118.705 66.4996 118.87 66.0284C119.035 65.7143 119.2 65.4001 119.529 65.2431C119.859 65.086 120.024 64.7719 120.353 64.7719C120.683 64.6148 121.013 64.6148 121.507 64.6148C121.837 64.6148 122.331 64.6148 122.661 64.7719C122.99 64.9289 123.32 65.086 123.485 65.4001L123.155 65.7143C122.661 65.2431 122.166 65.086 121.507 65.086C121.177 65.086 120.848 65.086 120.683 65.2431C120.353 65.4001 120.189 65.5572 120.024 65.7143C119.859 65.8713 119.694 66.1855 119.529 66.3425C119.364 66.6567 119.365 66.8137 119.365 67.1279C119.365 67.442 119.364 67.7561 119.529 67.9132C119.694 68.2273 119.859 68.3844 120.024 68.5415C120.189 68.6985 120.518 68.8556 120.683 69.0127C121.013 69.1697 121.342 69.1697 121.672 69.1697C122.166 69.1697 122.661 69.0126 122.99 68.8556V67.599H121.507V66.9708H121.342ZM60.5273 70.5833H61.0217V75.6094H60.5273V70.5833ZM69.0974 70.5833V75.6094H68.603L65.142 71.5257V75.6094H64.6475V70.5833H65.142L68.603 74.667V70.5833H69.0974ZM77.1731 70.5833V75.6094H76.6787L73.2177 71.5257V75.6094H72.7232V70.5833H73.2177L76.6787 74.667V70.5833H77.1731ZM85.2488 73.2534C85.2488 72.9393 85.2488 72.6252 85.084 72.4681C84.9192 72.154 84.7544 71.9969 84.5896 71.8398C84.4248 71.6828 84.0951 71.5257 83.9303 71.3686C83.6007 71.2116 83.4359 71.2116 83.1063 71.2116C82.7766 71.2116 82.447 71.2116 82.2822 71.3686C81.9526 71.5257 81.7878 71.6828 81.623 71.8398C81.4582 71.9969 81.2934 72.311 81.1285 72.4681C80.9637 72.7822 80.9637 72.9393 80.9637 73.2534C80.9637 73.5676 80.9637 73.8817 81.1285 74.0388C81.2934 74.3529 81.4582 74.5099 81.623 74.667C81.7878 74.8241 82.1174 74.9811 82.2822 75.1382C82.6118 75.2953 82.7766 75.2953 83.1063 75.2953C83.4359 75.2953 83.7655 75.2953 83.9303 75.1382C84.2599 74.9811 84.4248 74.8241 84.5896 74.667C84.7544 74.5099 84.9192 74.1958 85.084 74.0388C85.2488 73.7246 85.2488 73.4105 85.2488 73.2534ZM80.1397 73.2534C80.1397 72.9393 80.1397 72.6252 80.3045 72.311C80.4693 71.9969 80.6341 71.6828 80.9637 71.5257C81.2934 71.3686 81.4582 71.0545 81.7878 71.0545C82.1174 70.8975 82.447 70.8974 82.9415 70.8974C83.2711 70.8974 83.7655 70.8975 84.0951 71.0545C84.4248 71.2116 84.7544 71.3686 84.9192 71.5257C85.2488 71.6828 85.4136 71.9969 85.5784 72.311C85.7432 72.6252 85.7432 72.9393 85.7432 73.4105C85.7432 73.7246 85.7432 74.0388 85.5784 74.51C85.4136 74.8241 85.2488 75.1382 84.9192 75.2953C84.5896 75.4524 84.4248 75.7665 84.0951 75.7665C83.7655 75.9236 83.4359 75.9235 82.9415 75.9235C82.6118 75.9235 82.1174 75.9236 81.7878 75.7665C81.4582 75.6094 81.1285 75.4524 80.9637 75.2953C80.6341 75.1382 80.4693 74.8241 80.3045 74.51C80.3045 73.8817 80.1397 73.5676 80.1397 73.2534ZM93.1597 70.5833L90.8523 75.6094H90.3579L88.0506 70.5833H88.7098L90.6875 74.9812L92.6653 70.5833H93.1597ZM98.7632 73.8817L97.4447 71.2116L96.1263 73.8817H98.7632ZM98.928 74.3529H95.9615L95.3022 75.7665H94.643L97.1151 70.7404H97.6096L100.082 75.7665H99.4225L98.928 74.3529ZM103.708 71.0545H101.895V70.5833H106.18V71.0545H104.367V75.6094H103.872V71.0545H103.708ZM113.267 73.2534C113.267 72.9393 113.267 72.6252 113.102 72.4681C112.937 72.154 112.772 71.9969 112.607 71.8398C112.442 71.6828 112.113 71.5257 111.948 71.3686C111.618 71.2116 111.454 71.2116 111.124 71.2116C110.794 71.2116 110.465 71.2116 110.3 71.3686C109.97 71.5257 109.806 71.6828 109.641 71.8398C109.476 71.9969 109.311 72.311 109.146 72.4681C108.981 72.7822 108.981 72.9393 108.981 73.2534C108.981 73.5676 108.981 73.8817 109.146 74.0388C109.311 74.3529 109.476 74.5099 109.641 74.667C109.806 74.8241 110.135 74.9811 110.3 75.1382C110.63 75.2953 110.794 75.2953 111.124 75.2953C111.454 75.2953 111.783 75.2953 111.948 75.1382C112.278 74.9811 112.442 74.8241 112.607 74.667C112.772 74.5099 112.937 74.1958 113.102 74.0388C113.267 73.7246 113.267 73.4105 113.267 73.2534ZM108.322 73.2534C108.322 72.9393 108.322 72.6252 108.487 72.311C108.652 71.9969 108.817 71.6828 109.146 71.5257C109.476 71.3686 109.641 71.0545 109.97 71.0545C110.3 70.8975 110.63 70.8974 111.124 70.8974C111.454 70.8974 111.948 70.8975 112.278 71.0545C112.607 71.2116 112.937 71.3686 113.102 71.5257C113.431 71.6828 113.596 71.9969 113.761 72.311C113.926 72.6252 113.926 72.9393 113.926 73.4105C113.926 73.7246 113.926 74.0388 113.761 74.51C113.596 74.8241 113.431 75.1382 113.102 75.2953C112.772 75.4524 112.607 75.7665 112.278 75.7665C111.948 75.9236 111.618 75.9235 111.124 75.9235C110.794 75.9235 110.3 75.9236 109.97 75.7665C109.641 75.6094 109.311 75.4524 109.146 75.2953C108.817 75.1382 108.652 74.8241 108.487 74.51C108.322 73.8817 108.322 73.5676 108.322 73.2534ZM120.518 72.311C120.518 71.8398 120.353 71.5257 120.024 71.3686C119.694 71.2116 119.365 71.0545 118.87 71.0545H117.387V73.5676H118.87C119.365 73.5676 119.859 73.4105 120.024 73.2534C120.518 73.0964 120.518 72.7822 120.518 72.311ZM120.683 75.7665L119.529 74.1958C119.364 74.1958 119.2 74.1958 119.035 74.1958H117.552V75.7665H117.057V70.7404H119.035C119.364 70.7404 119.694 70.7404 120.024 70.8974C120.353 71.0545 120.518 71.0545 120.683 71.2116C120.848 71.3686 121.013 71.5257 121.177 71.6828C121.342 71.8398 121.342 72.154 121.342 72.4681C121.342 72.9393 121.177 73.2534 121.013 73.4105C120.848 73.7246 120.518 73.8817 120.024 74.0388L121.342 75.7665H120.683ZM123.814 75.1382L123.979 74.667C124.144 74.8241 124.144 74.8241 124.309 74.9812C124.474 74.9812 124.638 75.1382 124.803 75.1382C124.968 75.1382 125.133 75.2953 125.298 75.2953C125.462 75.2953 125.627 75.2953 125.792 75.2953C126.287 75.2953 126.616 75.1382 126.946 74.9812C127.111 74.8241 127.275 74.667 127.275 74.3529C127.275 74.1958 127.275 74.0387 127.111 73.8817L126.946 73.7246C126.946 73.7246 126.781 73.5676 126.616 73.5676C126.451 73.5676 126.451 73.5676 126.287 73.4105C126.122 73.4105 125.957 73.4105 125.792 73.2534C125.627 73.2534 125.462 73.0964 125.298 73.0964C125.133 73.0964 124.968 72.9393 124.803 72.9393C124.638 72.9393 124.638 72.7822 124.474 72.7822C124.309 72.7822 124.309 72.6252 124.144 72.4681C124.144 72.311 123.979 72.311 123.979 72.154C123.979 71.9969 123.979 71.8398 123.979 71.6828C123.979 71.5257 123.979 71.3686 124.144 71.2116C124.144 71.0545 124.309 70.8974 124.474 70.7404C124.638 70.5833 124.803 70.5833 125.133 70.4262C125.298 70.4262 125.627 70.2692 125.957 70.2692C126.287 70.2692 126.616 70.2692 126.781 70.4262C127.111 70.5833 127.275 70.5833 127.605 70.7404L127.44 71.2116C127.275 71.0545 126.946 70.8974 126.781 70.8974C126.451 70.8974 126.287 70.7404 125.957 70.7404C125.462 70.7404 125.133 70.8975 124.968 71.0545C124.803 71.2116 124.638 71.3686 124.638 71.6828C124.638 71.8398 124.638 71.9969 124.803 72.154C124.968 72.311 125.133 72.311 125.298 72.4681C125.462 72.4681 125.792 72.6252 126.122 72.6252C126.287 72.6252 126.451 72.7822 126.616 72.7822C126.781 72.7822 126.946 72.9393 127.111 72.9393C127.275 73.0964 127.605 73.0964 127.77 73.4105C127.935 73.5676 128.099 73.8817 128.099 74.1958C128.099 74.3529 128.099 74.5099 127.935 74.667C127.77 74.8241 127.77 74.9811 127.605 75.1382C127.44 75.2953 127.275 75.2953 126.946 75.4523C126.616 75.4523 126.451 75.6094 126.122 75.6094C125.792 75.6094 125.298 75.6094 124.968 75.4523C124.309 75.4523 123.979 75.2953 123.814 75.1382ZM147.712 41.5261V43.4109H139.471V33.3587H147.382V35.2435H141.779V37.4424H146.723V39.3272H141.779V41.6832H147.712V41.5261ZM137.988 41.5261V43.4109H128.759V41.8402L134.527 35.2435H128.923V33.3587H137.823V34.9294L132.055 41.5261H137.988ZM124.474 33.3587H126.946V43.4109H124.474V33.3587ZM117.881 35.2435H115.903V38.6989H117.881C118.54 38.6989 119.2 38.5419 119.529 38.2277C119.859 37.9136 120.024 37.4424 120.024 36.9712C120.024 36.3429 119.859 36.0288 119.529 35.7147C119.2 35.4006 118.54 35.2435 117.881 35.2435ZM120.189 43.4109L118.211 40.5837H115.903V43.4109H113.431V33.3587H118.046C118.705 33.3587 119.365 33.5158 120.024 33.6728C120.518 33.8299 121.013 34.144 121.507 34.4581C121.837 34.7723 122.166 35.0864 122.496 35.5576C122.661 36.0288 122.826 36.5 122.826 37.1283C122.826 37.9136 122.661 38.5419 122.331 39.0131C122.001 39.4842 121.342 39.9555 120.683 40.2696L122.99 43.568H120.189V43.4109ZM109.311 36.9712C109.311 36.3429 109.146 36.0288 108.817 35.7147C108.487 35.4006 107.828 35.2435 107.169 35.2435H105.191V38.6989H107.169C107.828 38.6989 108.487 38.5419 108.817 38.2277C108.981 37.9136 109.311 37.4424 109.311 36.9712ZM111.783 36.9712C111.783 37.5995 111.618 38.0707 111.454 38.5419C111.289 39.013 110.959 39.3272 110.465 39.6413C110.135 39.9555 109.641 40.2696 108.981 40.4267C108.487 40.5837 107.828 40.7408 107.004 40.7408H104.861V43.568H102.389V33.5157H107.004C107.663 33.5157 108.322 33.6728 108.981 33.8299C109.476 33.9869 109.97 34.3011 110.465 34.6152C110.794 34.9293 111.124 35.2435 111.454 35.7147C111.618 35.8717 111.783 36.3429 111.783 36.9712ZM95.7966 33.3587V43.4109H93.3245V39.3272H88.545V43.4109H86.0728V33.3587H88.545V37.2853H93.3245V33.3587H95.7966ZM78.986 35.7147L77.3379 39.4843H80.6341L78.986 35.7147ZM81.4582 41.212H76.5139L75.525 43.4109H73.0528L77.8323 33.3587H80.3045L85.084 43.4109H82.447L81.4582 41.212ZM66.2956 37.9136L70.9103 33.2016H73.5473L69.0974 37.7565L73.7121 43.2538H70.9103L67.6141 39.3272L66.1308 40.7408V43.2538H63.6587V33.2016H66.1308L66.2956 37.9136ZM51.9571 39.0131V33.3587H54.4293V38.856C54.4293 40.5837 55.2534 41.5261 56.7366 41.5261C57.5607 41.5261 58.0551 41.369 58.5496 40.8978C58.8792 40.4266 59.2088 39.7984 59.2088 38.856V33.3587H61.681V39.0131C61.681 40.4266 61.1865 41.6832 60.3625 42.4685C59.5384 43.2538 58.3847 43.725 56.9015 43.725C55.4182 43.725 54.2645 43.2538 53.4404 42.4685C52.2868 41.5261 51.9571 40.4266 51.9571 39.0131ZM43.5518 37.9136L48.1665 33.2016H50.8035L46.3536 37.7565L51.1331 43.4109H48.3313L45.0351 39.4843L43.5518 40.8978V43.4109H41.0797V33.3587H43.5518V37.9136ZM15.3693 62.73C15.5341 63.0442 15.3693 62.8871 16.0285 63.5153C16.1933 63.6724 16.523 63.8295 16.8526 63.9865C19.6544 65.7143 23.445 67.442 26.906 66.6567C28.2245 66.3425 29.8726 65.5572 30.2022 64.7719C29.8726 63.8295 28.5541 62.73 27.7301 62.2588C26.7412 61.6306 25.2579 61.3164 23.7746 61.1594C22.1265 61.0023 20.6432 61.1594 19.1599 61.6306C17.1822 61.9447 17.0174 62.2588 15.3693 62.73ZM17.5118 53.7773C18.1711 53.6202 19.8192 52.2066 20.3136 51.5783C21.1376 50.4789 21.6321 49.5365 21.7969 47.9658C21.9617 46.3951 21.7969 44.8245 21.4673 43.4109C21.3025 42.4685 20.6432 40.2696 20.1488 39.6413C18.9951 40.4267 16.6878 44.1962 16.0285 45.924C15.5341 47.3376 15.2045 48.7511 15.6989 50.3218C16.0285 51.2642 16.8526 53.149 17.5118 53.7773ZM13.5564 43.568C15.3693 43.568 16.523 41.9973 17.347 40.8978C18.1711 39.7984 18.9951 37.9136 18.9951 36.0288C18.9951 34.6152 18.8303 30.8456 18.1711 29.9032C16.8526 30.3744 14.2156 33.8299 13.3916 35.4005C12.5675 36.8141 12.4027 37.5995 12.4027 39.4843C12.4027 40.2696 12.4027 41.0549 12.7323 41.6832C13.2268 42.7826 13.062 42.1544 13.5564 43.568ZM9.76575 37.9136C10.5898 36.9712 10.5898 34.7723 10.2602 33.5157C9.60094 30.8456 7.78803 29.1179 5.6455 27.5472C5.15106 27.2331 2.84372 25.8195 2.18448 25.5054C2.18448 29.432 3.17334 33.9869 6.30473 36.3429C7.29359 37.1283 8.44727 37.5995 9.76575 37.9136ZM15.5341 53.149C15.8637 52.2066 14.5452 50.1647 14.2156 49.5365C13.5564 48.5941 12.5675 47.8088 11.4139 47.3376C9.10651 46.2381 5.64549 45.6098 2.67891 45.7669C2.67891 46.5522 4.1622 48.1229 4.65663 48.9082C6.13992 50.6359 8.28246 52.8349 10.7546 53.3061C12.5675 53.6202 13.7212 53.3061 15.5341 53.149ZM13.7212 20.7934C15.0397 20.9505 17.1822 20.4793 18.3359 20.0081C20.808 18.9086 22.1265 16.7097 23.2802 14.5108C23.7746 13.5684 24.4339 11.6836 24.5987 10.5841C24.1042 10.5841 21.3025 11.6836 20.6432 11.8406C16.6878 13.4113 13.5564 15.9244 13.7212 20.7934ZM7.95283 54.8767C8.28245 55.505 9.93056 57.0756 10.5898 57.5468C12.4027 58.9604 15.3693 60.5311 18.0063 60.6882C19.984 60.8452 20.808 60.0599 22.2913 59.7458C22.2913 57.3898 19.1599 55.505 17.1822 54.8767C13.5564 53.6202 10.7546 54.7197 7.95283 54.8767ZM11.0842 33.0445C12.0731 33.0445 14.0508 32.1022 14.7101 31.631C15.8637 30.8456 16.3582 30.2174 17.0174 28.9608C18.1711 26.919 18.8303 23.3065 18.6655 20.6363C17.1822 20.7934 13.2268 24.2489 12.5675 25.0342C10.2602 28.3326 10.425 29.432 11.0842 33.0445ZM44.5407 61.1594C42.8926 60.0599 39.102 58.6463 36.6298 58.4892C36.6298 58.8034 37.289 59.9028 37.4538 60.374C38.1131 61.7876 39.5964 63.9865 40.4204 65.086C43.0574 68.0703 44.7055 67.9132 48.1665 67.9132C48.3313 64.6148 46.3536 62.4159 44.5407 61.1594ZM9.60094 27.8614C10.0954 26.7619 10.9194 26.1336 11.249 24.4059C11.7435 22.8353 11.5787 21.4217 10.9194 20.0081C10.2602 18.4374 7.78802 14.3537 6.63435 13.7255C5.8103 16.0814 4.82144 19.3798 5.48068 22.0499C5.8103 23.4635 6.30474 24.563 6.96398 25.5054C7.12879 26.1337 8.77689 27.5473 9.60094 27.8614ZM24.5987 70.1121C24.9283 70.4262 28.3893 71.2116 28.7189 71.3686C30.2022 71.6828 31.6855 71.9969 33.3336 71.8398C36.6298 71.3686 40.0908 68.8556 39.2668 67.9132C38.6075 67.2849 36.9594 66.4996 35.6409 66.3425C33.828 66.0284 32.6744 66.0284 31.1911 66.6567C29.543 66.9708 25.5875 68.8556 24.5987 70.1121ZM12.8971 45.4528C12.7323 42.6256 11.249 40.5837 8.9417 39.0131C7.95284 38.3848 6.63435 37.9136 5.15106 37.5995L0.536377 36.8141C0.865997 38.856 3.66777 42.1544 4.65663 43.0968C7.12878 45.1386 8.61207 45.924 12.8971 45.4528ZM12.5675 17.0238C16.1933 14.0396 16.1933 9.95587 14.3804 5.87216C14.0508 5.24389 13.7212 4.77269 13.5564 4.14442C13.3916 3.83029 13.2268 3.51615 13.062 3.20202C12.8971 2.88788 12.8971 2.41669 12.5675 2.41669C12.2379 2.41669 12.2379 2.88788 12.0731 3.20202C11.249 5.24387 9.93056 6.65748 9.60094 9.64173C9.43613 11.2124 9.60093 12.4689 10.0954 13.8825C10.7546 15.2961 11.7435 16.8668 12.5675 17.0238ZM42.3982 75.2953C44.8703 75.2953 47.0128 74.0388 48.3313 72.6252C48.6609 72.311 49.485 71.3686 49.485 71.0545C48.6609 70.4263 47.0128 69.6409 45.6944 69.4839C44.0463 69.1697 42.563 69.4838 41.0797 69.955C39.7612 70.4262 38.6075 71.2116 37.6187 71.8398C36.9594 72.311 35.9706 73.2534 35.3113 73.5676C34.9817 73.7246 34.8169 73.8817 34.8169 74.3529C35.4761 74.667 39.7612 75.4523 40.75 75.4523H42.3982V75.2953ZM29.7078 51.4213C29.0485 52.8349 29.2133 58.4892 29.7078 60.0599C30.367 62.1018 32.8392 64.7719 34.6521 64.9289L35.4761 63.0441C35.6409 62.4159 35.6409 61.4735 35.8057 60.6882C35.8057 58.9604 35.4761 57.861 34.6521 56.6044C33.828 55.3479 31.1911 52.0495 29.7078 51.4213ZM24.5987 45.7669C24.4339 46.3952 24.1042 46.8664 23.7746 47.4946C22.1265 50.6359 21.3025 54.0914 22.7857 57.3898C23.1154 58.018 23.2802 58.4892 23.7746 58.9604C24.269 59.5887 24.7635 60.0599 25.2579 59.7458C26.082 59.2746 27.0708 58.018 27.4004 56.9186C28.3893 54.4055 27.8949 51.1071 26.5764 48.7511C26.2468 48.5941 24.9283 46.081 24.5987 45.7669ZM26.4116 0.217773C24.7635 0.374839 20.4784 3.20202 19.6544 3.98735C18.6655 4.77268 18.0063 5.55801 17.347 6.81454C17.0174 7.4428 16.1933 10.7412 16.8526 11.3695C17.1822 11.6836 18.6655 11.3695 19.1599 11.2124C23.6098 9.95586 26.2468 4.30149 26.4116 0.217773ZM136.01 70.7404C136.175 71.0545 136.175 71.2116 136.505 71.5257C137.658 73.2534 139.471 74.51 141.779 74.9812C143.262 75.2953 145.075 75.2953 146.558 74.9812C148.041 74.8241 149.36 74.3529 150.843 74.1958C150.678 73.7246 148.701 72.154 148.041 71.6828C145.405 69.955 143.262 68.8556 139.966 69.1697C138.318 69.4838 137.164 70.2692 136.01 70.7404ZM171.939 20.6363C172.104 15.9244 168.972 13.4113 165.182 11.8406C164.193 11.3694 162.38 10.5841 161.061 10.5841C161.556 13.7255 164.028 18.5945 167.324 20.0081C168.643 20.4793 170.456 20.9505 171.939 20.6363ZM170.126 10.1129C170.126 11.6836 170.291 13.0972 170.95 14.5108C171.445 15.4532 172.598 16.8668 173.422 17.1809C175.235 14.982 176.389 12.9401 175.894 9.95586C175.4 7.28574 174.411 4.45855 173.093 2.88789C172.433 3.04496 172.433 3.51615 172.104 4.45855C171.774 5.08681 171.609 5.55802 171.28 6.18628C170.62 7.28575 170.126 8.54227 170.126 10.1129ZM184.959 36.8141C182.816 36.6571 178.037 38.2277 176.718 39.0131C175.565 39.7984 174.741 40.4267 174.081 41.5261C173.752 41.9973 172.433 44.8245 173.093 45.4528C173.587 45.924 177.213 45.4528 177.872 45.1386C180.179 44.3533 181.992 41.9973 183.311 40.1125C183.64 39.4842 184.794 37.7565 184.959 36.8141ZM137.494 67.9132C141.284 67.9132 143.592 66.9708 145.24 65.086C145.734 64.6148 146.064 64.3007 146.393 63.6724C146.723 63.2012 147.053 62.73 147.382 62.1017C147.712 61.4735 147.877 60.8452 148.206 60.374C148.536 59.9028 148.866 59.1175 149.03 58.6463C146.229 58.8034 142.932 60.2169 141.119 61.3164C139.307 62.1017 137.329 64.6148 137.494 67.9132ZM155.458 64.9289C159.413 68.2273 165.182 66.6567 168.808 63.8295C170.291 62.73 170.291 63.5153 170.291 62.73C170.126 62.573 169.796 62.573 169.302 62.4159C165.676 61.3164 161.721 59.7458 157.93 62.2588C157.106 62.73 155.458 63.8295 155.458 64.9289ZM176.224 27.5472C177.542 27.3902 178.696 25.6625 179.355 24.7201C180.179 23.4635 180.509 21.8929 180.509 20.1651V20.0081C180.509 17.495 180.015 15.6102 179.191 13.5684C178.037 14.0396 175.565 17.9662 174.906 19.6939C173.587 22.6782 174.576 25.8195 176.224 27.5472ZM159.413 0.217773C159.578 2.10256 160.897 6.34334 162.05 7.91399C162.874 9.01346 163.534 9.64173 164.852 10.4271C165.347 10.7412 168.478 11.8407 168.972 11.3695C169.632 10.8983 168.808 7.59988 168.478 6.97161C167.983 5.71509 166.995 4.61561 166.171 3.98735C165.017 3.04495 161.226 0.374839 159.413 0.217773ZM163.863 46.3951C163.863 49.3794 166.006 53.149 168.313 53.6202C169.302 52.5207 170.126 50.4789 170.126 48.5941C170.126 45.2957 167.819 42.4685 166.006 39.9555C166.006 39.9555 165.841 39.7984 165.841 39.6413C165.676 39.4843 165.841 39.4843 165.511 39.4843C164.522 40.7408 163.863 45.1386 163.863 46.3951ZM161.061 45.6098C160.732 45.7669 160.567 45.924 160.402 46.3951C158.589 49.2223 156.941 54.0914 158.425 57.2327C158.589 57.7039 160.402 59.9028 160.732 60.217C161.061 60.0599 161.886 59.2746 162.05 58.9604C163.369 57.3898 163.863 55.3479 163.698 53.149C163.534 51.7354 163.204 50.3218 162.71 49.0653C162.38 48.437 161.391 45.924 161.061 45.6098ZM170.126 52.9919C171.28 53.4631 173.422 53.6202 174.906 53.3061C176.224 52.9919 177.707 52.2066 178.367 51.5783C179.52 50.6359 182.816 47.1805 183.146 45.924C180.509 45.6098 176.389 46.3952 174.411 47.3376C172.763 47.9658 170.291 50.3218 170.126 52.9919ZM151.008 64.9289C152.327 64.7719 153.48 63.6724 154.139 63.0441C156.282 60.6882 156.612 58.6463 156.612 55.6621C156.612 54.5626 156.612 52.0495 156.117 51.2642C155.293 51.5783 153.81 53.149 153.315 53.6202C152.491 54.5626 151.832 55.3479 151.173 56.6044C150.514 57.7039 150.019 59.2746 150.019 60.6882C149.854 61.9447 150.514 64.3007 151.008 64.9289ZM171.939 43.568C173.917 40.1125 173.422 36.9712 171.115 33.8299C170.291 32.7304 168.313 30.3744 167.489 29.9032C166.665 31.788 166.5 36.5 167.159 38.5419C167.654 39.9554 168.148 40.8978 168.972 41.6832C169.467 42.1544 170.785 43.4109 171.939 43.568ZM174.576 32.8875C175.07 32.1022 175.07 29.275 174.906 28.3326C174.576 27.076 173.752 25.8195 172.928 25.0342C172.104 24.2489 168.313 20.7934 166.83 20.4793C166.83 22.9923 167.489 26.919 168.478 28.8038C169.302 30.3744 171.774 32.8875 174.576 32.8875ZM146.229 67.7561C146.393 69.0126 147.547 69.6409 148.701 70.4262C149.854 71.2116 150.843 71.5257 152.491 71.6828C155.952 71.8398 158.424 71.2116 161.061 70.1121C160.237 68.8556 156.282 66.9708 154.469 66.3425C149.195 64.9289 147.712 67.2849 146.229 67.7561ZM163.534 59.5887C165.017 60.217 165.841 60.6881 167.819 60.5311C169.467 60.5311 170.785 60.0599 171.939 59.4316C173.257 58.6463 173.917 58.1751 175.07 57.2327C175.894 56.6044 177.542 55.3479 177.707 54.7196C176.059 54.7196 174.741 54.4055 172.928 54.4055C171.444 54.4055 169.796 54.4055 168.313 54.8767C166.335 55.3479 163.698 57.7039 163.534 59.5887ZM175.235 34.7723C175.235 35.7147 175.565 36.6571 175.565 37.5995C177.213 37.5995 178.367 36.8141 179.355 36.1859C179.85 35.8717 180.179 35.4006 180.674 34.9294C182.816 32.5734 183.64 28.4896 183.64 25.1912C182.816 25.3483 178.861 28.1755 178.202 28.8038C176.883 30.0603 175.235 32.2592 175.235 34.7723ZM62.6698 48.9082L60.6921 53.3061H64.4827L62.6698 48.9082ZM65.4716 55.3479H59.868L58.7144 57.861H55.7478L61.1865 46.2381H63.9883L69.427 57.861H66.4604L65.4716 55.3479ZM88.7098 46.2381L84.7544 57.861H81.7878L79.1508 50.0077L76.3491 57.861H73.3825L69.427 46.2381H72.3936L75.1954 54.4055L77.9972 46.2381H80.6341L83.4359 54.4055L86.2377 46.2381H88.7098ZM94.9726 48.9082L92.9949 53.3061H96.7855L94.9726 48.9082ZM97.9392 55.3479H92.3356L91.182 57.861H88.2154L93.6541 46.2381H96.4559L101.895 57.861H98.928L97.9392 55.3479ZM108.322 48.437H106.015V52.5207H108.322C109.146 52.5207 109.806 52.3637 110.3 52.0495C110.794 51.7354 110.959 51.2642 110.959 50.4789C110.959 49.8506 110.794 49.3794 110.3 48.9082C109.806 48.5941 109.146 48.437 108.322 48.437ZM110.959 57.861L108.652 54.5626H106.015V57.861H103.213V46.2381H108.487C109.311 46.2381 109.97 46.3952 110.63 46.5522C111.289 46.7093 111.783 47.0234 112.278 47.3376C112.772 47.6517 113.102 48.1229 113.267 48.5941C113.596 49.0653 113.596 49.6935 113.596 50.3218C113.596 51.2642 113.431 51.8925 112.937 52.5207C112.442 53.149 111.948 53.6202 111.124 53.9343L113.926 57.7039H110.959V57.861ZM121.342 55.6621C122.001 55.6621 122.496 55.505 122.99 55.3479C123.485 55.1909 123.979 54.8767 124.309 54.5626C124.638 54.2485 124.968 53.9343 125.133 53.4631C125.298 52.9919 125.462 52.5207 125.462 51.8925C125.462 51.2642 125.298 50.793 125.133 50.3218C124.968 49.8506 124.638 49.5365 124.309 49.2223C123.979 48.9082 123.485 48.5941 122.99 48.437C122.496 48.2799 122.001 48.1229 121.342 48.1229H118.705V55.3479H121.342V55.6621ZM116.068 46.2381H121.672C122.661 46.2381 123.65 46.3952 124.474 46.7093C125.298 47.0234 125.957 47.3375 126.616 47.9658C127.275 48.437 127.605 49.0653 127.935 49.8506C128.264 50.6359 128.429 51.4213 128.429 52.2066C128.429 53.149 128.264 53.9343 127.935 54.5626C127.605 55.3479 127.111 55.8191 126.616 56.4474C125.957 56.9186 125.298 57.3898 124.474 57.7039C123.65 58.018 122.661 58.1751 121.672 58.1751H116.068V46.2381ZM71.4047 13.5684H64.8123V11.8406H80.1397V13.5684H73.5473V30.0603H71.5696V13.5684H71.4047ZM99.0928 11.8406V29.9032H97.1151V21.5787H85.2488V29.9032H83.2711V11.8406H85.2488V19.851H97.1151V11.8406H99.0928ZM118.705 28.3326V30.0603H105.356V11.9977H118.376V13.7255H107.333V20.1651H117.222V21.7358H107.333V28.4896H118.705V28.3326ZM64.9771 64.9289V66.9708H67.7789V67.442H64.9771V69.6409H64.4827V64.6148H68.1086V65.086H64.9771V64.9289Z" fill="#DCA236"/>
</svg>
