<svg width="255" height="223" viewBox="0 0 255 223" fill="none" xmlns="http://www.w3.org/2000/svg">
<g clip-path="url(#clip0_220_4748)">
<path d="M254.656 124.475V120.006H249.106V113.058L248.919 113.116L243.707 114.711L243.604 114.742V120.006H235.377V117.073C235.377 115.708 235.682 114.663 236.284 113.966C236.881 113.277 237.736 112.927 238.826 112.927C239.61 112.927 240.421 113.112 241.238 113.476L241.443 113.568V108.861L241.346 108.826C240.585 108.552 239.549 108.414 238.264 108.414C236.645 108.414 235.175 108.766 233.892 109.464C232.609 110.164 231.599 111.162 230.892 112.43C230.187 113.698 229.83 115.162 229.83 116.782V120.006H225.965V124.475H229.83V143.301H235.377V124.475H243.604V136.439C243.604 141.366 245.928 143.863 250.512 143.863C251.265 143.863 252.058 143.775 252.867 143.602C253.691 143.424 254.252 143.247 254.583 143.058L254.656 143.015V138.504L254.43 138.654C254.129 138.854 253.754 139.018 253.315 139.14C252.873 139.264 252.504 139.326 252.219 139.326C251.145 139.326 250.351 139.037 249.858 138.466C249.359 137.89 249.106 136.882 249.106 135.473V124.475H254.656ZM213.577 139.327C211.564 139.327 209.976 138.659 208.858 137.344C207.732 136.023 207.162 134.138 207.162 131.744C207.162 129.274 207.732 127.34 208.858 125.995C209.978 124.659 211.55 123.981 213.532 123.981C215.456 123.981 216.987 124.629 218.084 125.907C219.186 127.192 219.745 129.11 219.745 131.609C219.745 134.139 219.219 136.082 218.182 137.382C217.152 138.672 215.603 139.327 213.577 139.327ZM213.824 119.444C209.983 119.444 206.932 120.57 204.756 122.79C202.582 125.01 201.48 128.083 201.48 131.923C201.48 135.57 202.556 138.504 204.678 140.641C206.8 142.779 209.689 143.862 213.262 143.862C216.986 143.862 219.976 142.721 222.151 140.47C224.325 138.222 225.426 135.179 225.426 131.428C225.426 127.724 224.393 124.768 222.353 122.645C220.313 120.521 217.443 119.444 213.824 119.444ZM192.536 119.444C189.923 119.444 187.761 120.113 186.11 121.431C184.449 122.756 183.606 124.495 183.606 126.599C183.606 127.693 183.788 128.664 184.146 129.488C184.506 130.315 185.064 131.042 185.804 131.653C186.539 132.259 187.673 132.894 189.176 133.54C190.439 134.06 191.382 134.499 191.98 134.846C192.565 135.186 192.98 135.527 193.215 135.86C193.443 136.185 193.558 136.631 193.558 137.18C193.558 138.745 192.386 139.507 189.975 139.507C189.08 139.507 188.06 139.32 186.942 138.952C185.832 138.589 184.785 138.058 183.836 137.377L183.606 137.212V142.553L183.691 142.592C184.475 142.954 185.465 143.26 186.631 143.5C187.796 143.741 188.853 143.863 189.772 143.863C192.608 143.863 194.891 143.192 196.557 141.866C198.234 140.531 199.084 138.752 199.084 136.575C199.084 135.005 198.626 133.658 197.725 132.572C196.829 131.495 195.275 130.506 193.107 129.632C191.38 128.939 190.273 128.363 189.817 127.922C189.377 127.495 189.154 126.891 189.154 126.127C189.154 125.45 189.429 124.907 189.995 124.467C190.566 124.026 191.36 123.801 192.356 123.801C193.28 123.801 194.226 123.947 195.167 124.233C196.106 124.519 196.932 124.903 197.621 125.371L197.847 125.526V120.46L197.76 120.423C197.125 120.15 196.287 119.917 195.268 119.727C194.255 119.539 193.336 119.444 192.536 119.444ZM169.145 139.327C167.132 139.327 165.544 138.659 164.426 137.344C163.3 136.023 162.73 134.139 162.73 131.744C162.73 129.274 163.301 127.34 164.427 125.995C165.545 124.659 167.117 123.981 169.101 123.981C171.023 123.981 172.554 124.629 173.652 125.907C174.754 127.192 175.313 129.11 175.313 131.609C175.313 134.139 174.787 136.082 173.75 137.382C172.719 138.672 171.171 139.327 169.145 139.327ZM169.392 119.444C165.55 119.444 162.499 120.57 160.324 122.79C158.15 125.01 157.048 128.083 157.048 131.923C157.048 135.572 158.124 138.504 160.247 140.641C162.369 142.779 165.257 143.862 168.83 143.862C172.553 143.862 175.545 142.721 177.719 140.47C179.893 138.222 180.995 135.179 180.995 131.428C180.995 127.724 179.961 124.768 177.921 122.645C175.88 120.521 173.01 119.444 169.392 119.444ZM148.627 124.04V120.006H143.147V143.301H148.627V131.384C148.627 129.358 149.086 127.693 149.993 126.436C150.888 125.194 152.081 124.564 153.537 124.564C154.03 124.564 154.584 124.646 155.185 124.807C155.778 124.967 156.209 125.14 156.462 125.323L156.693 125.49V119.966L156.604 119.928C156.094 119.711 155.372 119.602 154.458 119.602C153.081 119.602 151.849 120.044 150.793 120.915C149.867 121.681 149.197 122.731 148.685 124.04H148.627ZM133.334 119.444C130.82 119.444 128.578 119.984 126.671 121.046C124.759 122.111 123.281 123.632 122.276 125.565C121.274 127.494 120.766 129.748 120.766 132.26C120.766 134.461 121.259 136.481 122.233 138.261C123.208 140.044 124.587 141.439 126.334 142.407C128.077 143.373 130.093 143.863 132.324 143.863C134.928 143.863 137.152 143.342 138.934 142.316L139.007 142.274V137.254L138.776 137.422C137.969 138.011 137.066 138.48 136.095 138.818C135.127 139.156 134.244 139.327 133.47 139.327C131.319 139.327 129.593 138.654 128.34 137.328C127.085 136 126.448 134.135 126.448 131.788C126.448 129.426 127.112 127.514 128.421 126.102C129.725 124.695 131.454 123.981 133.56 123.981C135.361 123.981 137.116 124.591 138.777 125.795L139.007 125.962V120.673L138.932 120.631C138.307 120.281 137.455 119.992 136.397 119.773C135.344 119.555 134.313 119.444 133.334 119.444ZM116.992 120.006H111.512V143.301H116.992V120.006ZM114.308 110.082C113.406 110.082 112.62 110.389 111.974 110.998C111.325 111.608 110.996 112.376 110.996 113.282C110.996 114.175 111.321 114.929 111.964 115.523C112.602 116.115 113.391 116.415 114.309 116.415C115.226 116.415 116.018 116.115 116.664 115.524C117.314 114.929 117.644 114.175 117.644 113.282C117.644 112.408 117.323 111.647 116.691 111.022C116.059 110.398 115.257 110.082 114.308 110.082ZM100.636 118.287V143.301H106.228V110.795H98.4885L88.6506 134.939L79.1034 110.795H71.0483V143.3H76.3036V118.285H76.484L86.5656 143.301H90.5315L100.456 118.287H100.636Z" fill="#706D6E"/>
<path d="M26.3245 125.71H0.546509V99.9316H26.3245V125.71Z" fill="#F1511B"/>
<path d="M54.7863 125.71H29.0088V99.9316H54.7863V125.71Z" fill="#80CC28"/>
<path d="M26.3238 154.18H0.546509V128.402H26.3238V154.18Z" fill="#00ADEF"/>
<path d="M54.7864 154.18H29.0089V128.402H54.7864V154.18Z" fill="#FBBC09"/>
</g>
<defs>
<clipPath id="clip0_220_4748">
<rect width="254.109" height="254.109" fill="white" transform="translate(0.546631)"/>
</clipPath>
</defs>
</svg>
