<svg width="93" height="127" viewBox="0 0 93 127" fill="none" xmlns="http://www.w3.org/2000/svg">
<g clip-path="url(#clip0_220_4727)">
<path d="M-0.000244141 59.2896C0.127333 58.9065 0.184903 58.5035 0.169711 58.0999C0.19426 56.9669 0.309451 55.849 0.415201 54.7273C0.585156 52.9358 0.818057 51.1513 1.1139 49.3737C1.55201 46.73 2.10342 44.1127 2.76813 41.5218C3.71533 37.8355 4.9361 34.225 6.42027 30.7202C7.07177 29.1868 7.76669 27.6705 8.52583 26.1881C9.77594 23.7445 11.1425 21.3708 12.6255 19.067C13.5546 17.6205 14.5252 16.2042 15.5771 14.8483C16.4136 13.7606 17.2917 12.7201 18.2038 11.7023C19.1159 10.6844 20.0525 9.744 21.0251 8.81303C22.4796 7.4105 24.0514 6.13497 25.7234 5.00037C26.931 4.16972 28.216 3.45764 29.5606 2.87405C30.7638 2.3477 32.0352 1.99361 33.3373 1.82222C34.5157 1.68059 35.6846 1.70891 36.8271 2.09792C37.8386 2.43335 38.7603 2.99525 39.5218 3.74082C39.9722 4.16507 40.3052 4.69858 40.4885 5.28954C40.6718 5.8805 40.6992 6.50882 40.568 7.11348C40.4102 7.92825 40.082 8.70048 39.6049 9.37954C38.9534 10.3407 38.283 11.2887 37.6164 12.2405C36.6863 13.5216 35.8717 14.8828 35.1823 16.308C34.5749 17.6267 34.1602 19.0258 33.9511 20.4625C33.7321 22.0511 33.8225 23.667 34.2173 25.2212C34.4572 26.2372 34.7687 27.2342 35.0501 28.2426C35.3883 29.3541 35.6371 30.4907 35.7941 31.6417C35.9619 32.9972 35.9039 34.371 35.6223 35.7074C35.1784 37.7749 34.2174 39.6961 32.8294 41.2914C32.0904 42.144 31.2941 42.9453 30.4462 43.6897C29.2225 44.7698 27.9913 45.8386 26.7903 46.9452C25.7649 47.8894 24.7395 48.8431 23.7689 49.8534C22.0981 51.5644 20.5221 53.3654 19.0479 55.2485C17.8166 56.8296 16.6924 58.4914 15.6828 60.2225C15.139 61.1667 14.6178 62.1335 14.3081 63.1929C14.274 63.377 14.1756 63.543 14.0305 63.6612C13.9972 63.6945 13.9548 63.7171 13.9087 63.7262C13.8626 63.7354 13.8148 63.7306 13.7714 63.7127C13.728 63.6947 13.6908 63.6642 13.6647 63.6252C13.6385 63.5861 13.6245 63.5402 13.6245 63.4932C13.6118 63.3759 13.6068 63.258 13.6094 63.1401C13.6094 62.7624 13.6094 62.3998 13.6094 62.0297C13.5733 61.5586 13.6416 61.0853 13.8095 60.6436C13.9035 60.4036 13.9366 60.1441 13.9058 59.8883C13.8808 59.4478 13.9692 59.0082 14.1627 58.6117C14.3703 58.1509 14.5279 57.6691 14.6329 57.1746C14.8062 56.4192 15.0733 55.6884 15.4279 54.9992C16.119 53.5943 16.7951 52.1817 17.5636 50.8164C18.2885 49.5243 19.0828 48.2724 19.943 47.0661C20.5492 46.2182 21.1516 45.3665 21.7559 44.5149C21.8333 44.4054 21.9088 44.2921 21.9957 44.1901C23.1873 42.7965 24.3864 41.4085 25.5666 40.0054C26.0537 39.3819 26.5844 38.7937 27.1548 38.2454C27.455 37.9754 27.7515 37.7035 28.0536 37.4334C28.7612 36.7786 29.2941 35.9575 29.604 35.0446C30.0128 33.9192 30.2472 32.7379 30.2989 31.5417C30.3159 31.2055 30.3631 30.8713 30.3688 30.5352C30.3679 29.7111 30.3206 28.8877 30.2272 28.0689C30.1555 27.3317 30.0292 26.6008 29.8495 25.8822C29.7815 25.6362 29.7693 25.3781 29.8136 25.1268C29.8708 24.8272 29.842 24.5175 29.7305 24.2336C29.5068 23.5596 29.4371 22.8439 29.5266 22.1394C29.5662 21.687 29.5662 21.2321 29.5266 20.7797C29.4784 20.1758 29.4784 19.569 29.5266 18.965C29.5948 18.2786 29.7134 17.5982 29.8816 16.9293C29.9779 16.5044 30.0157 16.0663 30.0704 15.632C30.0907 15.4131 30.155 15.2005 30.2593 15.0069C30.4153 14.7268 30.5154 14.4189 30.5539 14.1005C30.5953 13.8166 30.682 13.5412 30.8107 13.2847C31.138 12.6037 31.4615 11.9194 31.7813 11.2321C31.8578 11.1188 31.9075 10.9897 31.9267 10.8544C31.8021 10.8034 31.7379 10.9148 31.6756 10.9677C30.3235 12.0025 28.972 13.0361 27.6212 14.0684C26.711 14.7633 25.814 15.4753 24.8906 16.1456C24.1339 16.7403 23.4323 17.402 22.7945 18.1228C22.1694 18.7837 21.5991 19.4937 20.9873 20.1622C20.3755 20.8307 19.8184 21.503 19.25 22.1904C18.2095 23.4499 17.2294 24.7529 16.2852 26.0861C15.2749 27.5081 14.3307 28.9829 13.4073 30.4747C12.2441 32.4077 11.1802 34.3988 10.2197 36.4401C9.36238 38.2133 8.57303 40.0167 7.79313 41.8258C7.67336 42.1219 7.57059 42.4245 7.48532 42.7323C7.33049 43.3003 7.14131 43.8584 6.91881 44.4035C6.42925 45.5307 6.03018 46.6951 5.72535 47.8857C5.31179 49.4134 4.89634 50.9392 4.50356 52.4725C4.20223 53.629 3.9789 54.8043 3.83507 55.9906C3.67944 57.1755 3.46325 58.3516 3.18735 59.5144C3.0816 59.9902 2.98152 60.468 2.91543 60.9514C2.87426 61.2347 2.85281 61.5206 2.85122 61.8069C2.85122 62.1845 2.85122 62.5471 2.85122 62.9172C2.86131 63.4391 2.82211 63.9607 2.73414 64.4751C2.60704 65.2047 2.54385 65.944 2.5453 66.6846C2.5453 69.3604 2.5453 72.0381 2.5453 74.714C2.55768 75.1014 2.60062 75.4872 2.67371 75.8678C2.79665 76.5468 2.85294 77.2362 2.84178 77.9261C2.83746 78.4327 2.92842 78.9356 3.10993 79.4085C3.33199 80.0985 3.44228 80.8195 3.43662 81.5443C3.44509 82.2186 3.53513 82.8895 3.70477 83.5422C3.88039 84.2277 4.01258 84.9207 4.15421 85.6194C4.26751 86.1859 4.39215 86.7373 4.50545 87.2982C4.53755 87.4625 4.54699 87.6306 4.57154 87.7986C4.60658 88.1003 4.69549 88.3932 4.83403 88.6635C4.85516 88.7061 4.89157 88.7391 4.936 88.756C4.99832 88.7674 5.01909 88.7013 5.01909 88.6522C5.00924 88.2468 5.13117 87.8493 5.36655 87.5191C5.51135 87.3079 5.57811 87.0529 5.55539 86.7978C5.52488 86.527 5.58749 86.254 5.7329 86.0235C5.98347 85.6004 6.15256 85.1341 6.23143 84.6488C6.29618 84.3533 6.40235 84.0685 6.54679 83.8028C6.75641 83.4251 6.94524 83.0229 7.14353 82.6339C7.2209 82.4634 7.30921 82.2982 7.4079 82.1391C7.67983 81.7369 7.96309 81.3422 8.21991 80.9287C8.37825 80.687 8.60699 80.4998 8.87518 80.3924C9.15277 80.2753 9.29251 80.364 9.30195 80.6586C9.30761 80.7429 9.30761 80.8274 9.30195 80.9117C9.2623 81.3309 9.22075 81.7482 9.17732 82.1674C9.17162 82.2319 9.15765 82.2954 9.13577 82.3563C8.94694 82.8076 8.91106 83.3005 8.73544 83.7594C8.63734 84.0105 8.59234 84.2793 8.60325 84.5487C8.62649 84.9025 8.57964 85.2574 8.4654 85.593C8.41351 85.7702 8.38806 85.9541 8.38986 86.1387C8.37664 86.5164 8.37853 86.913 8.37664 87.3001C8.38448 87.6238 8.324 87.9455 8.19913 88.2443C8.11674 88.4296 8.07613 88.6307 8.08017 88.8335C8.09432 89.171 8.02967 89.5072 7.89133 89.8154C7.79796 90.0516 7.76361 90.307 7.79124 90.5594C7.83629 90.9288 7.78758 91.3035 7.64961 91.649C7.62009 91.7275 7.60474 91.8107 7.60429 91.8945C7.56841 92.4497 7.51365 93.003 7.50798 93.5582C7.49288 95.1558 7.49665 96.7552 7.49288 98.3547C7.4764 98.8441 7.55463 99.3321 7.72326 99.7918C7.78163 99.9504 7.80482 100.12 7.79124 100.288C7.77806 100.525 7.82346 100.761 7.92343 100.976C7.95504 101.035 7.97854 101.099 7.9933 101.165C8.05744 101.679 8.17516 102.185 8.34454 102.675C8.38131 102.806 8.38131 102.945 8.34454 103.076C8.27822 103.409 8.32961 103.756 8.48995 104.056C8.52813 104.113 8.55387 104.177 8.56548 104.245C8.59192 104.671 8.78642 105.055 8.8714 105.463C8.92482 105.777 9.00505 106.087 9.11123 106.388C9.14348 106.466 9.16385 106.548 9.17165 106.632C9.23276 107.099 9.37934 107.552 9.60409 107.967C9.93834 108.703 10.1801 109.477 10.4463 110.233C10.7309 111.078 11.0741 111.903 11.4736 112.701C11.6224 113.003 11.8021 113.289 12.0099 113.554C12.201 113.791 12.3545 114.055 12.465 114.338C12.6287 114.781 12.862 115.194 13.1561 115.564C13.5232 116.043 13.8552 116.547 14.1494 117.074C14.5352 117.77 15.0192 118.406 15.5865 118.963C15.7469 119.113 15.8709 119.297 15.9491 119.503C16.0575 119.789 16.2564 120.033 16.5156 120.196C16.6502 120.269 16.7595 120.381 16.8291 120.517C16.8555 120.579 16.8782 120.653 16.8121 120.696C16.7902 120.706 16.7664 120.712 16.7422 120.712C16.718 120.712 16.6942 120.706 16.6723 120.696C16.5545 120.632 16.4403 120.56 16.3305 120.483C15.6001 119.971 14.9019 119.414 14.2401 118.815C13.1054 117.785 12.0582 116.662 11.1091 115.458C9.338 113.165 7.79837 110.703 6.5128 108.106C5.59404 106.249 4.92783 104.277 4.53189 102.243C4.32794 101.236 4.18253 100.22 4.05601 99.2026C4.03623 99.0353 4.02677 98.8669 4.02769 98.6984C4.02769 97.8562 4.01447 97.014 4.0409 96.1736C4.05601 95.6373 4.13344 95.101 4.18253 94.5666C4.26373 93.6772 4.35627 92.7915 4.42236 91.9021C4.51489 90.6727 4.25618 89.4925 3.90116 88.3255C3.56503 87.2151 3.15903 86.1236 2.93998 84.9793C2.74169 83.9369 2.48865 82.902 2.23561 81.8785C1.95424 80.7342 1.66909 79.5917 1.48025 78.4284C1.32352 77.4994 1.18944 76.5665 1.10257 75.6299C1.02515 74.8745 0.928842 74.1191 0.845753 73.3732C0.762664 72.6273 0.690906 71.9003 0.613482 71.1638C0.524728 70.3291 0.424643 69.4926 0.345331 68.656C0.286791 68.0196 0.250911 67.3814 0.203702 66.745C0.171599 66.3088 0.143273 65.8707 0.103617 65.4363C0.0806187 65.335 0.0457577 65.2368 -0.000244141 65.1436L-0.000244141 59.2896Z" fill="#9D1E81"/>
<path d="M59.0893 -0.00390625C59.0893 0.0300847 59.0893 0.0640757 59.0893 0.0961783C59.0704 0.403985 59.0704 0.403985 59.3668 0.485186C59.4953 0.519177 59.5387 0.590936 59.4934 0.702351C59.4552 0.795721 59.4123 0.887108 59.365 0.976167L57.4067 4.5641C57.1159 5.09663 56.8213 5.62538 56.5399 6.16357C56.0011 7.19085 55.4673 8.22191 54.9386 9.25675C54.5405 10.0366 54.2016 10.8452 53.9245 11.6758C53.8981 11.7551 53.8773 11.8382 53.8433 11.9156C53.3958 12.8787 53.154 13.9154 52.7726 14.9049C52.5915 15.4482 52.4804 16.0123 52.4421 16.5837C52.3509 17.5723 52.32 18.5655 52.3496 19.5579C52.3368 20.0796 52.2908 20.6 52.2117 21.1158C52.169 21.4661 52.1469 21.8186 52.1457 22.1714C52.1457 24.5451 52.1457 26.9188 52.1457 29.2925C52.1641 29.9154 52.1064 30.5381 51.9738 31.1469C51.8455 31.6028 51.8222 32.0819 51.9058 32.5481C51.9597 32.832 51.9348 33.1252 51.8341 33.396C51.6857 33.8781 51.5919 34.3754 51.5546 34.8784C51.4688 35.5639 51.3008 36.2366 51.0542 36.882C50.9031 37.2917 50.7426 37.7015 50.6179 38.1189C50.2792 39.1624 49.7503 40.1342 49.0581 40.9854C48.4312 41.7993 47.7363 42.5641 47.0489 43.3176C46.6804 43.7109 46.3373 44.1271 46.0216 44.5639C45.5966 45.1079 45.1128 45.6031 44.5789 46.0406C43.9255 46.6242 43.257 47.1982 42.6112 47.7799C42.4732 47.9006 42.3467 48.034 42.2335 48.1783C41.9972 48.4855 41.7019 48.7423 41.3648 48.9337C40.8946 49.2094 40.534 49.6154 40.1185 49.9572C39.2852 50.6662 38.4153 51.3312 37.5125 51.9494C36.6703 52.5065 35.8375 53.0824 35.0029 53.649C34.6558 53.8878 34.2819 54.0849 33.8887 54.2363C33.4473 54.4011 33.0224 54.6072 32.6197 54.8519C32.0759 55.188 31.4735 55.2107 30.8616 55.1502C30.6728 55.1313 30.5973 55.0199 30.6501 54.8273C30.8201 54.2268 30.9882 53.6282 31.1845 53.0371C31.3032 52.7567 31.4787 52.504 31.7001 52.295C32.3537 51.5476 33.0471 50.8359 33.7773 50.163C34.4987 49.5058 35.1804 48.8071 35.8375 48.0858C36.3361 47.5381 36.8705 47.0245 37.3973 46.5033C37.716 46.2032 38.0021 45.8702 38.2509 45.51C38.3931 45.3017 38.555 45.1076 38.7343 44.9303C39.0988 44.5526 39.4765 44.1957 39.8522 43.835C40.1115 43.5941 40.3376 43.3198 40.5245 43.0192C40.6888 42.7634 40.8786 42.5248 41.091 42.3073C42.5395 40.7476 43.6481 38.904 44.3466 36.8933C44.4882 36.4623 44.5931 36.0201 44.6601 35.5714C44.7696 34.8916 44.9075 34.2137 45.0529 33.5395C45.1303 33.2306 45.1715 32.9138 45.1756 32.5953C45.1679 32.2737 45.2204 31.9535 45.3305 31.6511C45.4282 31.3638 45.4742 31.0614 45.4664 30.7579C45.4664 29.4965 45.4664 28.2332 45.4664 26.9698C45.4664 25.0172 45.4419 23.0646 45.4664 21.1158C45.4808 19.8022 45.6488 18.4947 45.9668 17.2201C46.0487 16.8946 46.1632 16.5783 46.3086 16.2759C46.5598 15.7434 46.794 15.2014 46.9941 14.6481C47.2831 13.8354 47.6726 13.0621 48.1536 12.3461C48.8636 11.3038 49.573 10.2595 50.2818 9.21331C50.3235 9.14037 50.3735 9.07256 50.431 9.01126C50.8389 8.64869 51.124 8.18981 51.4432 7.75737C51.6937 7.44017 51.969 7.14339 52.2665 6.86982C52.7063 6.45202 53.0989 5.98721 53.4373 5.48375C53.4995 5.38368 53.5723 5.29061 53.6545 5.20615C54.085 4.7819 54.5206 4.36142 54.9612 3.94471C55.0758 3.84242 55.2026 3.75487 55.3389 3.68411C55.7192 3.46692 56.0633 3.19167 56.3586 2.86833C56.8138 2.37159 57.3049 1.90895 57.8278 1.48414C57.9046 1.41896 57.9765 1.34827 58.0431 1.27264C58.05 1.25922 58.0537 1.24433 58.0537 1.22921C58.0537 1.21409 58.05 1.1992 58.0431 1.18578C58.0173 1.16772 57.9855 1.16028 57.9543 1.16501C57.9214 1.17181 57.8896 1.18325 57.8599 1.199C57.1723 1.51502 56.5307 1.92285 55.9526 2.41134C55.568 2.73806 55.151 3.02469 54.7082 3.26678C54.5559 3.33854 54.4152 3.43275 54.2909 3.54626C53.837 3.9764 53.3481 4.36802 52.8292 4.71706C52.3766 5.00931 51.9607 5.35484 51.5905 5.74623C51.4758 5.89338 51.321 6.00421 51.1448 6.06537C50.839 6.17006 50.577 6.37416 50.4008 6.64511C50.2322 6.87499 50.0425 7.08868 49.8343 7.28338C49.6423 7.47437 49.417 7.62861 49.1695 7.73848C48.9551 7.83601 48.7658 7.98135 48.6163 8.16337C48.1395 8.68765 47.6352 9.18625 47.1055 9.65708C46.5856 10.1116 46.0943 10.5978 45.6345 11.113C44.7923 12.0765 43.8589 12.9562 42.8472 13.7398C42.2831 14.1688 41.8029 14.6982 41.4309 15.3015C41.3181 15.469 41.1856 15.6224 41.0363 15.7585C40.3942 16.4024 39.7559 17.0482 39.1063 17.6865C38.8214 17.949 38.5815 18.2565 38.3963 18.5967C38.332 18.7145 38.2547 18.8247 38.1659 18.9253C38.087 19.0124 37.9868 19.0775 37.8751 19.1141C37.7184 19.1727 37.5918 19.0858 37.6145 18.9253C37.6233 18.8419 37.6429 18.76 37.673 18.6817C37.7253 18.5404 37.7885 18.4034 37.8619 18.2719C38.1281 17.8432 38.3944 17.4146 38.6796 16.9972C38.848 16.766 39.0289 16.5441 39.2215 16.3325C39.3977 16.1514 39.5443 15.9436 39.6559 15.7169C39.7489 15.4993 39.8973 15.3098 40.0864 15.1674C40.2901 15.016 40.4434 14.8067 40.5264 14.5669C40.6212 14.3309 40.7761 14.1239 40.9758 13.9664C41.2011 13.7655 41.3924 13.5296 41.5424 13.2677C41.5999 13.1646 41.6696 13.0689 41.7501 12.9825C42.1504 12.552 42.5394 12.1044 42.9681 11.7041C44.1974 10.5522 45.389 9.3625 46.5674 8.16148C47.217 7.5007 47.9391 6.91537 48.7201 6.41661C49.0417 6.23095 49.3208 5.98009 49.5397 5.68014C49.6383 5.51978 49.7786 5.38923 49.9457 5.30246C50.5311 5.02865 51.0221 4.6132 51.547 4.25063C52.3227 3.68753 53.1284 3.16683 53.9604 2.69082C54.1114 2.6158 54.2539 2.52462 54.3853 2.4189C54.7219 2.13472 55.1053 1.91109 55.5183 1.75796C55.8279 1.62692 56.1244 1.46695 56.404 1.2802C56.8458 1.00449 57.3085 0.760891 57.7636 0.505958C58.0714 0.334115 58.383 0.166049 58.6927 -0.00390625L59.0893 -0.00390625Z" fill="#9D1E81"/>
<path d="M92.119 111.011C91.772 111.092 91.4598 111.282 91.2277 111.553C91.0831 111.716 90.9037 111.845 90.7027 111.93C90.4676 112.026 90.266 112.189 90.123 112.399C89.9902 112.573 89.8089 112.704 89.6018 112.776C89.3826 112.864 89.1881 113.004 89.0353 113.184C88.9331 113.32 88.7942 113.425 88.635 113.485C88.4003 113.579 88.1932 113.731 88.0326 113.926C87.8508 114.15 87.611 114.318 87.3395 114.414C87.2897 114.426 87.244 114.451 87.2073 114.487C86.8429 114.886 86.3368 115.116 85.9685 115.511C85.8182 115.691 85.6227 115.828 85.402 115.907C85.2136 115.983 85.0477 116.106 84.9205 116.264C84.7637 116.441 84.5704 116.582 84.354 116.678C84.1632 116.785 83.9894 116.92 83.8384 117.078C83.693 117.191 83.5495 117.31 83.4136 117.433C83.3325 117.492 83.2676 117.571 83.2247 117.662C83.1076 118.087 83.1171 118.374 83.6572 118.358C84.4975 118.336 85.3397 118.358 86.18 118.358C86.3141 118.358 86.4501 118.358 86.5842 118.358C86.9373 118.374 86.9845 118.477 86.8183 118.804C86.7526 118.95 86.6465 119.073 86.5126 119.16C86.3787 119.247 86.2226 119.294 86.063 119.295C85.8741 119.295 85.6853 119.295 85.5078 119.295H77.2121C76.7589 119.295 76.3038 119.306 75.8506 119.308C75.682 119.319 75.5129 119.298 75.352 119.246C75.2632 119.218 75.1822 119.169 75.1156 119.103C75.0489 119.038 74.9984 118.958 74.9682 118.87C74.9379 118.782 74.9287 118.688 74.9412 118.595C74.9538 118.503 74.9878 118.415 75.0405 118.338C75.1567 118.129 75.3405 117.967 75.5616 117.877C75.8724 117.746 76.1466 117.541 76.3604 117.28C76.6352 116.96 76.9661 116.694 77.3367 116.493C77.5602 116.372 77.7537 116.203 77.9032 115.998C78.0685 115.784 78.2769 115.607 78.5151 115.479C78.8667 115.277 79.1851 115.022 79.4593 114.723C79.6848 114.473 79.9464 114.258 80.2354 114.085C80.4166 113.963 80.5826 113.821 80.7302 113.66C81.0739 113.337 81.4043 113.001 81.8462 112.808C81.9645 112.744 82.067 112.653 82.1465 112.544C82.4165 112.242 82.6771 111.932 83.0642 111.77C83.1114 111.75 83.1515 111.717 83.1795 111.674C83.2074 111.631 83.2219 111.581 83.2209 111.53C83.2304 111.413 83.2304 111.294 83.2209 111.177C83.2186 111.117 83.1939 111.06 83.1516 111.017C83.1093 110.975 83.0525 110.949 82.9924 110.947C82.8603 110.933 82.7243 110.931 82.5902 110.93L81.0248 110.916C80.9077 110.916 80.7906 110.916 80.6716 110.903C80.6082 110.9 80.5467 110.881 80.4937 110.846C80.4407 110.811 80.3982 110.762 80.3708 110.705C80.3435 110.647 80.3322 110.584 80.3383 110.521C80.3444 110.457 80.3676 110.397 80.4054 110.346C80.4609 110.251 80.5365 110.17 80.6269 110.107C80.7172 110.044 80.8201 110.002 80.9284 109.983C81.045 109.969 81.1623 109.962 81.2797 109.963C83.8196 109.851 86.3594 109.863 88.8993 109.906C89.9738 109.925 91.0521 109.919 92.1266 109.985L92.119 111.011Z" fill="black"/>
<path d="M41.21 126.365L41.2213 121.48C41.2184 121.312 41.2241 121.145 41.2383 120.978C41.2609 120.789 41.327 120.715 41.5215 120.685C42.0208 120.604 42.5277 120.58 43.0323 120.615C43.4709 120.629 43.9 120.747 44.2843 120.959C44.3555 121.004 44.4323 121.04 44.5128 121.065C44.7062 121.123 44.8841 121.224 45.0334 121.361C45.1827 121.497 45.2997 121.665 45.3757 121.852C45.4266 121.977 45.4898 122.097 45.5646 122.209C45.9574 122.742 45.8969 123.342 45.8554 123.952C45.833 124.187 45.7589 124.414 45.6382 124.617C45.4813 124.856 45.3604 125.117 45.2794 125.391C45.258 125.455 45.2231 125.514 45.1772 125.563C45.1313 125.613 45.0754 125.652 45.0132 125.678C44.7677 125.823 44.5203 125.965 44.2729 126.109L43.8424 126.365H41.21ZM42.4544 123.448C42.4544 123.901 42.4544 124.354 42.4544 124.806C42.4544 125.045 42.5262 125.113 42.7471 125.13C42.9359 125.145 43.1153 125.142 43.3004 125.144C43.3841 125.145 43.4671 125.129 43.5442 125.097C43.6213 125.064 43.6907 125.016 43.748 124.955C44.1256 124.577 44.4334 124.175 44.3409 123.589C44.3277 123.422 44.3277 123.254 44.3409 123.087C44.3319 122.92 44.2806 122.757 44.1917 122.615C44.0029 122.262 43.6554 122.126 43.3268 121.964C43.1589 121.885 42.9738 121.85 42.7887 121.862C42.5413 121.871 42.4657 121.935 42.4601 122.2C42.4487 122.611 42.4544 123.03 42.4544 123.448Z" fill="black"/>
<path d="M56.7666 126.364C56.6596 126.212 56.517 126.089 56.3512 126.005C55.866 125.697 55.4717 125.265 55.2087 124.753C55.1096 124.58 55.0539 124.386 55.0463 124.187C55.0463 123.809 55.0293 123.412 55.0293 123.027C55.0293 122.33 55.3843 121.813 55.8961 121.394C56.1416 121.194 56.4494 121.075 56.6514 120.812C56.7231 120.74 56.8196 120.697 56.9215 120.693C57.4087 120.608 57.894 120.678 58.3793 120.705C58.4788 120.721 58.5735 120.759 58.6569 120.816C58.9496 120.98 59.2366 121.154 59.5331 121.314C59.7279 121.416 59.8825 121.58 59.9712 121.781C60.0751 122.011 60.1978 122.23 60.313 122.455C60.3517 122.51 60.3823 122.571 60.4036 122.634C60.5566 123.282 60.6227 123.926 60.313 124.551C60.1865 124.808 60.0486 125.057 59.9353 125.316C59.8719 125.473 59.754 125.603 59.603 125.68C59.3123 125.85 59.0039 125.986 58.6833 126.088C58.6003 126.103 58.5216 126.136 58.453 126.185C58.3844 126.234 58.3276 126.298 58.2868 126.372L56.7666 126.364ZM58.9855 123.56C58.9807 123.476 58.9807 123.392 58.9855 123.309C59.0308 122.931 58.8419 122.629 58.7154 122.304C58.6984 122.257 58.664 122.217 58.6191 122.194C58.3925 122.125 58.2074 121.97 57.9941 121.885C57.9 121.847 57.7986 121.83 57.6973 121.836C57.596 121.843 57.4974 121.871 57.4087 121.921C57.169 122.042 56.9477 122.196 56.7515 122.38C55.7525 123.388 56.4871 124.77 57.3539 125.063C57.6466 125.161 57.9412 125.201 58.2188 125.001C58.3001 124.942 58.3917 124.899 58.4888 124.874C58.5785 124.848 58.6601 124.8 58.7261 124.734C58.7921 124.668 58.8404 124.586 58.8665 124.496C58.9715 124.196 59.012 123.877 58.9855 123.56Z" fill="black"/>
<path d="M34.3419 126.364C33.8755 126.111 33.5432 125.703 33.1693 125.342C33.0118 125.186 32.9228 124.973 32.9219 124.751C32.9219 124.668 32.9219 124.583 32.9219 124.5C32.9219 123.441 32.9219 122.381 32.9219 121.324C32.9219 120.703 32.9596 120.672 33.5828 120.68H33.6829C34.0851 120.695 34.1456 120.744 34.1493 121.16C34.1588 121.9 34.1493 122.64 34.1493 123.378C34.1607 123.58 34.1607 123.783 34.1493 123.985C34.0946 124.447 34.3382 124.74 34.6686 125.01C34.719 125.055 34.778 125.089 34.8421 125.111C34.9063 125.132 34.9741 125.14 35.0414 125.134C35.1087 125.128 35.174 125.108 35.2333 125.076C35.2927 125.043 35.3447 124.999 35.3862 124.946C35.5069 124.828 35.6025 124.688 35.6674 124.532C35.7323 124.377 35.7651 124.21 35.7639 124.041C35.745 123.169 35.7639 122.295 35.7639 121.42C35.7639 121.269 35.7639 121.118 35.7847 120.967C35.7886 120.899 35.8172 120.834 35.8652 120.786C35.9131 120.737 35.9771 120.708 36.0453 120.703C36.3628 120.661 36.6841 120.657 37.0027 120.689C37.1632 120.705 37.2331 120.782 37.2633 120.948C37.2768 121.031 37.2837 121.115 37.2841 121.199C37.2841 122.108 37.2954 123.014 37.2841 123.922C37.2819 124.395 37.1666 124.861 36.9479 125.28C36.8013 125.602 36.5533 125.868 36.2417 126.035C36.0877 126.104 35.9566 126.216 35.864 126.356L34.3419 126.364Z" fill="black"/>
<path d="M19.2915 126.362C19.1499 126.276 19.0064 126.189 18.8648 126.098C18.7503 126.029 18.6405 125.952 18.5362 125.868C18.4479 125.801 18.3847 125.707 18.3569 125.6C18.3291 125.493 18.3384 125.38 18.3832 125.278C18.4455 125.122 18.5098 124.965 18.5815 124.814C18.6047 124.749 18.6516 124.696 18.7126 124.665C18.7736 124.634 18.8442 124.627 18.9101 124.646C19.0234 124.672 19.1329 124.72 19.2443 124.755C19.5367 124.836 19.8419 124.86 20.1432 124.825C20.1942 124.825 20.2437 124.808 20.2835 124.776C20.3234 124.744 20.3511 124.699 20.3623 124.65C20.3875 124.587 20.3908 124.517 20.3716 124.452C20.3524 124.387 20.3119 124.33 20.2565 124.291C19.8788 124.081 19.5012 123.87 19.1027 123.675C18.8417 123.526 18.6267 123.307 18.4812 123.044C18.3357 122.78 18.2652 122.482 18.2775 122.182C18.3058 122.016 18.3668 121.857 18.4569 121.715C18.8346 121.062 18.8346 121.066 19.4917 120.761C19.6723 120.67 19.8708 120.621 20.073 120.616C20.2752 120.611 20.4759 120.651 20.6606 120.733C20.9393 120.853 21.2004 121.01 21.4368 121.2C21.4619 121.215 21.4833 121.236 21.4995 121.261C21.5158 121.286 21.5264 121.314 21.5307 121.343C21.535 121.372 21.5329 121.402 21.5245 121.431C21.5161 121.459 21.5016 121.485 21.4821 121.507C21.4462 121.564 21.399 121.613 21.365 121.672C21.1214 122.072 20.7871 122.214 20.3377 122.04C20.2894 122.025 20.2402 122.013 20.1904 122.004C20.0771 121.974 19.9506 121.925 19.8675 122.046C19.8418 122.099 19.8284 122.157 19.8284 122.216C19.8284 122.276 19.8418 122.334 19.8675 122.387C19.8887 122.452 19.923 122.511 19.9682 122.561C20.0133 122.612 20.0684 122.652 20.13 122.68L20.8079 123.012C21.3744 123.284 21.6709 123.787 21.8749 124.353C21.9047 124.441 21.9145 124.535 21.9037 124.627C21.893 124.72 21.8618 124.809 21.8125 124.888C21.7143 125.065 21.6086 125.237 21.5142 125.414C21.3767 125.687 21.1547 125.907 20.8816 126.043C20.7324 126.117 20.5719 126.183 20.5039 126.362H19.2915Z" fill="black"/>
<path d="M65.0491 126.363C64.879 126.198 64.6887 126.055 64.4826 125.938C64.2541 125.768 64.2277 125.695 64.3466 125.427C64.425 125.241 64.5211 125.063 64.6337 124.896C64.8225 124.618 65.0264 124.571 65.3324 124.707C65.5004 124.783 65.6572 124.885 65.8252 124.96C65.8616 124.982 65.9022 124.996 65.9444 125.001C65.9866 125.005 66.0292 125.001 66.0695 124.987C66.1097 124.974 66.1465 124.952 66.1774 124.922C66.2083 124.893 66.2324 124.858 66.2482 124.819C66.3152 124.72 66.3431 124.599 66.3263 124.481C66.3096 124.363 66.2494 124.255 66.1576 124.178C66.0541 124.093 65.9398 124.021 65.8177 123.965C65.6553 123.878 65.4834 123.808 65.3173 123.727C64.6771 123.415 64.3901 122.93 64.4448 122.228C64.4441 121.957 64.5165 121.692 64.6544 121.459C64.701 121.37 64.7353 121.274 64.7564 121.176C64.7791 121.095 64.8274 121.023 64.8943 120.972C65.5741 120.509 66.6863 120.543 67.2321 120.949C67.2717 120.978 67.3171 121.004 67.3548 121.036C67.5588 121.202 67.5682 121.34 67.3831 121.544C67.2604 121.682 67.1226 121.807 67.0055 121.946C66.9522 122.012 66.8801 122.059 66.799 122.081C66.7178 122.104 66.6316 122.101 66.5523 122.073C66.3729 122.027 66.1916 121.992 66.0084 121.963C65.8743 121.942 65.7894 122.043 65.8196 122.182C65.863 122.458 65.9461 122.705 66.2426 122.815C66.3521 122.856 66.4446 122.941 66.5542 122.981C66.9696 123.125 67.2472 123.444 67.5474 123.736C67.6036 123.788 67.6456 123.852 67.6694 123.924C67.6932 123.997 67.698 124.074 67.6834 124.148C67.6154 124.526 67.5418 124.903 67.4662 125.281C67.4195 125.444 67.3255 125.589 67.1962 125.698C66.9847 125.916 66.7789 126.137 66.5693 126.354L65.0491 126.363Z" fill="black"/>
<path d="M26.4637 126.364C26.4637 126.045 26.441 125.726 26.441 125.407C26.441 124.532 26.441 123.658 26.441 122.784C26.4429 122.649 26.4372 122.515 26.424 122.381C26.4233 122.352 26.4167 122.322 26.4046 122.295C26.3925 122.268 26.3752 122.243 26.3536 122.223C26.3321 122.202 26.3067 122.186 26.2789 122.176C26.2511 122.165 26.2215 122.16 26.1917 122.16C26.0029 122.143 25.8141 122.149 25.6384 122.132C25.6 122.135 25.5615 122.129 25.5254 122.116C25.4893 122.102 25.4564 122.081 25.4289 122.054C25.4013 122.028 25.3797 121.995 25.3653 121.96C25.351 121.924 25.3443 121.885 25.3457 121.847C25.3212 121.647 25.3023 121.445 25.2966 121.243C25.2853 120.897 25.4024 120.752 25.7404 120.676C26.2209 120.586 26.712 120.566 27.1982 120.618C27.6685 120.657 28.1424 120.667 28.6089 120.671C28.709 120.671 28.8109 120.671 28.911 120.682C29.0999 120.703 29.1829 120.778 29.1924 120.975C29.2056 121.26 29.2056 121.541 29.1924 121.832C29.1948 121.87 29.1891 121.909 29.1756 121.945C29.1621 121.981 29.1411 122.014 29.114 122.042C29.0869 122.069 29.0543 122.09 29.0183 122.104C28.9824 122.118 28.9439 122.125 28.9053 122.123C28.7732 122.136 28.6372 122.132 28.5031 122.136C27.9366 122.147 27.9215 122.166 27.9139 122.75C27.9139 122.901 27.9139 123.052 27.9139 123.203V125.726C27.9422 125.944 27.897 126.166 27.7855 126.356L26.4637 126.364Z" fill="black"/>
<path d="M49.7965 126.364C49.6675 126.229 49.5952 126.049 49.5944 125.862C49.5944 125.694 49.5812 125.526 49.5793 125.358C49.5793 124.111 49.5749 122.866 49.5661 121.621C49.5627 121.469 49.5677 121.318 49.5812 121.167C49.5828 121.039 49.6305 120.916 49.7155 120.821C49.8004 120.725 49.917 120.663 50.0439 120.646C50.326 120.589 50.618 120.606 50.8918 120.695C50.9412 120.708 50.9852 120.737 51.0174 120.776C51.0497 120.816 51.0685 120.865 51.0712 120.916C51.0891 121.083 51.0986 121.251 51.0995 121.418C51.0995 122.849 51.0995 124.279 51.0995 125.709C51.0995 125.928 51.0995 126.147 51.0995 126.364H49.7965Z" fill="black"/>
<path d="M39.6371 78.7617H42.2638C43.9634 78.7617 45.6082 79.0846 47.236 79.5303C47.3153 79.553 47.3965 79.5775 47.4758 79.6077C48.6674 80.0704 49.8703 80.5066 51.0467 81.0032C52.5906 81.6384 54.0465 82.4691 55.3787 83.4751C56.028 83.9571 56.6131 84.52 57.1198 85.1501C57.4641 85.5873 57.741 86.0736 57.9412 86.5929C58.1105 87.0185 58.1383 87.4872 58.0205 87.9298C57.9733 88.1187 57.9299 88.2905 57.8695 88.4643C57.697 88.956 57.5663 89.4613 57.4786 89.975C57.4163 90.3235 57.3024 90.6609 57.1406 90.9758C56.8346 91.5952 56.5249 92.2108 56.1964 92.8189C55.9641 93.2494 55.7432 93.6819 55.5411 94.1275C55.1219 95.0453 54.7178 95.9744 54.1248 96.7996C54.0843 96.8539 54.0483 96.9113 54.0172 96.9714C53.6584 97.7268 53.1636 98.3802 52.7085 99.0675C52.4986 99.3914 52.3094 99.7282 52.142 100.076C52.029 100.32 51.8977 100.556 51.7492 100.78C50.868 102.052 49.9773 103.319 49.0771 104.582C48.8451 104.913 48.5828 105.221 48.2935 105.503C48.1403 105.659 47.9977 105.825 47.8667 106C47.6986 106.211 47.5419 106.43 47.3795 106.644C47.0028 107.153 46.44 107.492 45.814 107.588C45.4821 107.644 45.1541 107.721 44.8321 107.818C44.4947 107.922 44.1481 107.993 43.7972 108.03C43.4629 108.069 43.1312 108.129 42.8039 108.207C42.4942 108.279 42.1775 108.315 41.8597 108.315C40.9835 108.315 40.1092 108.315 39.233 108.315C38.8628 108.322 38.4933 108.277 38.1358 108.181C37.6536 108.024 37.1413 107.983 36.6402 108.06C36.4562 108.084 36.2703 108.091 36.085 108.081C34.9923 108.081 33.8983 108.081 32.803 108.081C32.6519 108.079 32.5011 108.067 32.3517 108.045C32.3259 108.043 32.3013 108.033 32.2809 108.017C32.2605 108.001 32.2452 107.98 32.237 107.955C32.2287 107.931 32.2279 107.904 32.2345 107.879C32.2411 107.854 32.255 107.832 32.2743 107.815C32.5824 107.412 32.9201 107.034 33.2846 106.682C33.4368 106.545 33.5977 106.419 33.7661 106.304C34.1484 106.058 34.4975 105.763 34.8047 105.428C34.976 105.242 35.1755 105.085 35.3958 104.961C36.277 104.458 37.1526 103.954 38.0225 103.451C38.3133 103.281 38.6023 103.107 38.8836 102.924C39.4331 102.563 39.9713 102.187 40.5227 101.832C41.2188 101.365 41.8762 100.843 42.4886 100.27C42.751 100.036 43.0098 99.7946 43.276 99.5623C43.5396 99.3515 43.7569 99.0885 43.9143 98.7899C44.0579 98.483 44.276 98.2168 44.5488 98.0157C44.8943 97.7457 45.1831 97.4101 45.3986 97.0281C45.9122 96.1972 46.4107 95.3588 46.9527 94.5467C47.5559 93.5929 48.0838 92.5934 48.5314 91.5574C48.7202 91.1609 48.894 90.7605 49.0734 90.3621C49.4434 89.5116 49.6895 88.6123 49.8042 87.6919C49.8382 87.4426 49.8967 87.1971 49.9496 86.9498C50.0025 86.7024 50.0686 86.4248 50.1384 86.1642C50.2039 85.9018 50.2142 85.6288 50.1686 85.3622C50.1231 85.0957 50.0228 84.8415 49.874 84.6157C49.6361 84.2286 49.3963 83.8415 49.1432 83.4657C48.9601 83.2009 48.7209 82.9798 48.4426 82.818C48.1959 82.6728 47.9708 82.4935 47.7742 82.2855C47.6114 82.1144 47.41 81.9848 47.1869 81.9078C46.8355 81.7882 46.5091 81.6051 46.2238 81.3677C46.0612 81.2202 45.8676 81.1112 45.6573 81.0486C45.0241 80.8731 44.4104 80.634 43.8255 80.3347C43.2861 80.0933 42.7052 79.9581 42.1147 79.9363C41.7622 79.9176 41.4125 79.8645 41.0704 79.7777C40.7588 79.7021 40.4491 79.6247 40.1262 79.5586C39.7341 79.4605 39.3312 79.4129 38.9271 79.417C38.7072 79.4305 38.4871 79.3943 38.2831 79.3112C37.7612 79.1137 37.1958 79.0595 36.6459 79.1545C36.3445 79.1938 36.038 79.1568 35.7546 79.0469C35.7332 79.0358 35.7148 79.0197 35.701 79C35.6872 78.9802 35.6783 78.9574 35.6753 78.9336C35.68 78.9097 35.6906 78.8874 35.7061 78.8686C35.7216 78.8498 35.7415 78.8351 35.764 78.8259C35.8768 78.7947 35.9927 78.7763 36.1096 78.7712C36.4136 78.7617 36.7158 78.7617 37.0198 78.7617H39.6446H39.6371Z" fill="#9D1E81"/>
<path d="M52.9122 119.313H47.6096C47.4756 119.313 47.3396 119.313 47.2055 119.313C46.8146 119.296 46.7485 119.23 46.7504 118.82C46.7398 118.669 46.7564 118.517 46.7995 118.372C46.9627 117.894 47.1922 117.442 47.4812 117.028C47.6221 116.841 47.743 116.639 47.8419 116.427C47.9986 116.074 48.1984 115.741 48.4367 115.436C48.6996 115.089 48.9143 114.708 49.075 114.303C49.1565 114.119 49.2518 113.942 49.3602 113.772C49.498 113.559 49.6321 113.344 49.7473 113.121C50.0008 112.627 50.2873 112.152 50.6046 111.697C50.9167 111.217 51.2005 110.72 51.4544 110.207C51.7092 109.694 52.0088 109.205 52.3495 108.745C52.527 108.499 52.6641 108.225 52.7555 107.935C52.8836 107.534 53.0961 107.164 53.3787 106.851C53.5624 106.631 53.7086 106.382 53.8111 106.115C54.0322 105.623 54.2976 105.152 54.6042 104.708C54.7397 104.516 54.8962 104.339 55.0707 104.181C55.3294 103.956 55.5314 103.97 55.7731 104.217C55.9133 104.363 56.0219 104.537 56.0923 104.727C56.2092 105.025 56.3794 105.3 56.5946 105.537C56.813 105.815 56.9992 106.117 57.1498 106.438C57.3896 106.883 57.6124 107.337 57.8692 107.771C58.1544 108.252 58.2469 108.738 58.0128 109.261C57.9841 109.321 57.9632 109.384 57.9504 109.45C57.9398 109.491 57.9456 109.536 57.9667 109.573C57.9878 109.611 58.0225 109.639 58.0637 109.652C58.5982 109.795 59.1212 109.988 59.6878 109.984C61.0096 109.984 62.3466 109.984 63.676 109.984C63.812 109.984 63.9461 109.984 64.0801 109.984C64.5296 109.997 64.6013 110.08 64.5522 110.537C64.5187 110.822 64.4227 111.096 64.2709 111.34C64.0273 111.744 63.7912 112.15 63.5608 112.562C63.395 112.893 63.1888 113.202 62.9471 113.483C62.8571 113.584 62.786 113.701 62.7375 113.827C62.5782 114.198 62.3887 114.556 62.171 114.896C62.0384 115.111 61.9173 115.333 61.8084 115.56C61.6639 115.884 61.4696 116.183 61.2325 116.446C61.0654 116.636 60.9423 116.86 60.8718 117.103C60.6832 117.7 60.3452 118.238 59.8898 118.667C59.6361 118.89 59.355 119.081 59.0533 119.233C58.8676 119.315 58.6645 119.35 58.4622 119.333H56.6437L52.9122 119.313ZM53.6298 118.083C53.7884 118.083 53.8394 118.083 53.8885 118.083C54.2152 118.1 54.4437 117.987 54.523 117.643C54.5628 117.48 54.6456 117.33 54.7628 117.209C54.9945 116.942 55.1854 116.642 55.3294 116.32C55.3832 116.197 55.451 116.081 55.5314 115.974C55.8759 115.559 56.1374 115.082 56.3019 114.569C56.359 114.41 56.4498 114.266 56.5681 114.146C56.7177 113.987 56.8448 113.807 56.9458 113.614C57.248 112.992 57.6086 112.405 57.9523 111.808C58.0217 111.689 58.0762 111.563 58.1147 111.431C58.1278 111.386 58.1307 111.339 58.1233 111.293C58.1159 111.247 58.0984 111.203 58.072 111.164C58.0457 111.126 58.0111 111.094 57.9708 111.07C57.9305 111.047 57.8855 111.032 57.839 111.028C57.7318 111.003 57.6202 111.002 57.5126 111.026C57.4051 111.05 57.3043 111.098 57.2177 111.166C56.8401 111.495 56.4322 111.804 56.2263 112.288C56.1218 112.537 55.9833 112.77 55.8147 112.981C55.6819 113.155 55.5721 113.345 55.488 113.547C55.3974 113.82 55.2614 114.075 55.0858 114.303C54.8454 114.584 54.6464 114.898 54.4947 115.236C54.3783 115.515 54.2348 115.783 54.066 116.034C53.7148 116.476 53.5278 117.001 53.2672 117.489C53.2159 117.593 53.1834 117.707 53.1709 117.823C53.1658 117.848 53.1658 117.874 53.171 117.899C53.1761 117.924 53.1864 117.948 53.201 117.969C53.2157 117.99 53.2345 118.008 53.2562 118.021C53.278 118.035 53.3023 118.044 53.3277 118.047C53.4275 118.066 53.5284 118.078 53.6298 118.083Z" fill="black"/>
<path d="M77.5861 104.65C78.8778 104.767 80.1751 104.707 81.4686 104.732C81.9351 104.741 82.0352 104.839 82.0087 105.308C82.0109 105.733 81.8787 106.148 81.631 106.493C81.3308 106.884 81.1552 107.343 80.9229 107.772C80.6736 108.231 80.9456 108.656 81.4724 108.676C81.6613 108.676 81.8501 108.676 82.0276 108.676C82.2051 108.676 82.2863 108.782 82.241 108.984C82.241 109.016 82.224 109.048 82.2145 109.081C82.0805 109.53 82.0106 109.587 81.5423 109.596C81.1552 109.596 80.768 109.609 80.3809 109.596C80.2634 109.59 80.1461 109.613 80.0401 109.664C79.9341 109.716 79.8428 109.793 79.7748 109.889C79.5991 110.113 79.3971 110.323 79.2196 110.542C79.126 110.639 79.0454 110.748 78.9797 110.865C78.7456 111.398 78.3679 111.843 78.1035 112.353C77.8524 112.81 77.5257 113.222 77.3217 113.705C77.0328 113.992 76.8629 114.368 76.5928 114.668C76.4319 114.841 76.3136 115.048 76.2472 115.274C76.1486 115.578 75.995 115.861 75.794 116.109C75.4447 116.577 75.0689 117.036 74.8498 117.59C74.8091 117.7 74.7518 117.804 74.6799 117.897C74.3475 118.307 74.1681 118.804 73.8905 119.246C73.8542 119.305 73.8257 119.368 73.8056 119.435C73.7055 119.727 73.8056 119.892 74.1228 119.903C74.559 119.916 74.9971 119.903 75.4352 119.916C75.5862 119.915 75.737 119.925 75.8866 119.944C75.9547 119.95 76.0186 119.98 76.0657 120.029C76.1128 120.079 76.1398 120.144 76.1415 120.213C76.1572 120.311 76.1531 120.412 76.1294 120.51C76.1058 120.607 76.063 120.699 76.0036 120.779C75.8445 120.996 75.6578 121.192 75.4485 121.361C75.121 121.626 74.8223 121.925 74.5571 122.252C74.4622 122.37 74.358 122.48 74.2456 122.581C73.7432 123.055 73.2447 123.525 72.7348 123.991C72.4233 124.271 72.0664 124.495 71.7567 124.784C71.5901 124.932 71.3731 125.009 71.151 124.999C70.9289 124.99 70.719 124.896 70.5651 124.735C70.4591 124.627 70.3654 124.507 70.2856 124.378C70.0018 123.961 69.7457 123.525 69.5189 123.074C69.3193 122.646 69.0756 122.241 68.7919 121.865C68.6733 121.702 68.5726 121.526 68.4916 121.342C68.3105 120.925 68.0905 120.526 67.8345 120.15C67.6899 119.962 67.6004 119.738 67.5757 119.502C67.551 119.266 67.5922 119.027 67.6947 118.813C67.8846 118.327 68.1198 117.86 68.3972 117.418C68.6507 117.04 68.8736 116.643 69.0638 116.23C69.1707 115.982 69.3118 115.751 69.483 115.543C69.6539 115.334 69.7891 115.098 69.8834 114.846C70.0343 114.434 70.2547 114.051 70.5349 113.713C70.654 113.571 70.7566 113.417 70.8408 113.252C70.9899 112.931 71.1803 112.632 71.4073 112.361C71.498 112.24 71.5676 112.104 71.6131 111.96C71.8248 111.447 72.088 110.956 72.3987 110.495C72.8972 109.758 73.426 109.039 73.7357 108.189C73.8351 107.92 73.9909 107.674 74.1927 107.47C74.3028 107.343 74.3921 107.2 74.4571 107.045C74.773 106.451 75.1341 105.883 75.5372 105.345C75.6577 105.161 75.8212 105.008 76.0136 104.901C76.2061 104.794 76.4217 104.735 76.6419 104.73C76.9545 104.682 77.27 104.656 77.5861 104.65Z" fill="black"/>
<path d="M38.6776 119.306H33.4241C33.1701 119.315 32.916 119.291 32.6687 119.232C32.4799 119.179 32.4138 119.119 32.4006 118.92C32.361 118.619 32.415 118.312 32.5554 118.042C32.7329 117.736 32.8802 117.414 33.0445 117.098C33.111 116.944 33.1967 116.799 33.2994 116.666C33.5566 116.353 33.7543 115.996 33.8829 115.612C33.9171 115.499 33.9701 115.393 34.0397 115.299C34.2662 115.099 34.4373 114.844 34.5363 114.558C34.5628 114.458 34.6761 114.42 34.7686 114.369C35.1408 114.209 35.5419 114.128 35.947 114.13C36.5021 114.122 37.0573 114.118 37.6125 114.118C38.7739 114.118 39.9352 114.118 41.0966 114.133C41.4511 114.154 41.8037 114.069 42.1095 113.888C42.4152 113.708 42.6602 113.44 42.8131 113.119C43.0399 112.646 43.3234 112.202 43.6572 111.797C43.7132 111.734 43.7567 111.661 43.7857 111.582C43.8089 111.519 43.8167 111.451 43.8083 111.384C43.8 111.318 43.7757 111.254 43.7376 111.198C43.6995 111.143 43.6487 111.097 43.5893 111.066C43.53 111.034 43.4639 111.017 43.3966 111.016C43.0926 111.012 42.7922 111.082 42.5204 111.218C42.369 111.299 42.2527 111.434 42.1937 111.595C42.1088 111.784 42.0276 111.973 41.9426 112.147C41.5347 113.027 40.8096 113.457 39.8654 113.529C39.465 113.559 39.059 113.529 38.6549 113.529C37.8637 113.529 37.0743 113.529 36.2831 113.529C36.1575 113.539 36.0315 113.518 35.9164 113.467C35.8013 113.415 35.7008 113.336 35.624 113.236C35.5634 113.176 35.5235 113.099 35.5099 113.015C35.4963 112.93 35.5098 112.844 35.5485 112.768C35.8053 112.3 35.9677 111.773 36.3662 111.386C36.452 111.305 36.5196 111.206 36.5645 111.097C36.7155 110.678 37.0592 110.427 37.3651 110.141C37.5039 110.015 37.6858 109.948 37.8731 109.953H38.3282C39.2875 109.953 40.2468 109.981 41.2042 109.939C43.4911 109.835 45.7798 109.894 48.0666 109.888C48.6539 109.888 49.2412 109.936 49.8304 109.964C49.8947 109.968 49.9581 109.981 50.0192 110.002C50.0441 110.007 50.0675 110.018 50.0881 110.033C50.1087 110.048 50.126 110.067 50.1391 110.089C50.1521 110.111 50.1606 110.135 50.164 110.16C50.1674 110.186 50.1657 110.211 50.159 110.236C50.1292 110.364 50.0913 110.49 50.0457 110.613C49.7983 111.276 49.503 111.919 49.1619 112.538C49.1092 112.642 49.0459 112.74 48.9731 112.83C48.8209 113.011 48.7025 113.218 48.6237 113.44C48.5276 113.71 48.3836 113.96 48.1988 114.179C47.9601 114.464 47.763 114.782 47.6134 115.123C47.4029 115.581 47.1593 116.022 46.8845 116.445C46.8343 116.513 46.7912 116.585 46.7561 116.662C46.5163 117.302 46.0933 117.825 45.7099 118.375C45.4234 118.752 45.0441 119.048 44.609 119.234C44.4329 119.293 44.2455 119.311 44.0614 119.287H38.6606L38.6776 119.306ZM39.3253 118.065C39.6879 118.001 40.1411 117.948 40.3261 117.429C40.3655 117.355 40.4137 117.285 40.4696 117.223C40.7427 116.803 40.979 116.361 41.1759 115.901C41.2463 115.748 41.2799 115.58 41.2741 115.412C41.2741 115.208 41.1929 115.132 41.0022 115.146L40.9021 115.159C40.6435 115.195 40.3975 115.293 40.1846 115.444C39.9717 115.595 39.7981 115.795 39.6784 116.027C39.4254 116.481 39.1874 116.941 38.9419 117.398C38.9185 117.443 38.8977 117.489 38.8796 117.536C38.7323 117.912 38.8343 118.065 39.3253 118.065Z" fill="black"/>
<path d="M31.1224 113.551H29.5078C29.3888 113.551 29.2717 113.551 29.1547 113.551C28.8978 113.532 28.8261 113.471 28.777 113.23C28.7373 113.031 28.7109 112.831 28.6807 112.631C28.656 112.489 28.6648 112.344 28.7064 112.206C28.7481 112.068 28.8214 111.942 28.9205 111.838C28.9885 111.762 29.0621 111.692 29.1263 111.617C29.1447 111.599 29.1576 111.576 29.1635 111.551C29.1694 111.526 29.168 111.499 29.1594 111.475C29.1509 111.451 29.1357 111.429 29.1154 111.413C29.0952 111.397 29.0708 111.387 29.0451 111.385C28.7826 111.326 28.5202 111.271 28.2539 111.234C28.1533 111.214 28.0491 111.229 27.9582 111.277C27.8673 111.324 27.7951 111.401 27.7535 111.494C27.644 111.702 27.5269 111.908 27.4306 112.123C27.3378 112.338 27.2102 112.535 27.0529 112.708C26.9375 112.83 26.8379 112.966 26.7564 113.113C26.3485 113.849 25.9501 114.591 25.5478 115.33C25.4965 115.436 25.4332 115.537 25.359 115.63C25.0533 116.011 24.7899 116.425 24.5734 116.863C24.4582 117.067 24.3525 117.278 24.2411 117.486C24.0083 117.954 23.6878 118.372 23.2969 118.719C23.1802 118.817 23.0756 118.927 22.9853 119.05C22.9162 119.145 22.8233 119.22 22.7159 119.268C22.6086 119.316 22.4905 119.335 22.3735 119.323C21.0516 119.323 19.7127 119.323 18.3833 119.323C17.9112 119.323 17.864 119.259 17.8545 118.798C17.8358 118.529 17.8962 118.26 18.0283 118.024C18.1412 117.795 18.2377 117.559 18.3172 117.316C18.4413 116.964 18.6382 116.643 18.895 116.372C19.075 116.17 19.2119 115.934 19.2973 115.677C19.4437 115.318 19.6395 114.981 19.8789 114.676C20.0298 114.473 20.1465 114.247 20.2245 114.006C20.3188 113.717 20.4845 113.458 20.706 113.25C20.815 113.142 20.9028 113.014 20.9647 112.873C21.2669 112.306 21.5747 111.749 21.8749 111.185C22.0597 110.826 22.3109 110.505 22.6152 110.24C22.7389 110.125 22.8862 110.038 23.0469 109.984C23.2076 109.931 23.378 109.914 23.5461 109.933C23.8981 109.967 24.252 109.979 24.6055 109.968C25.5648 109.968 26.526 109.999 27.4834 109.953C28.9809 109.882 30.4784 109.902 31.9759 109.906C33.0183 109.906 34.0531 109.953 35.1031 109.982C35.1871 109.981 35.271 109.987 35.3542 109.999C35.5884 110.036 35.6639 110.127 35.6753 110.376C35.694 110.501 35.6824 110.629 35.6413 110.749C35.6002 110.868 35.5309 110.976 35.4392 111.064C35.2408 111.248 35.0977 111.484 35.0257 111.745C34.9514 111.988 34.8222 112.209 34.648 112.393C34.5676 112.478 34.4984 112.574 34.4421 112.676C34.1211 113.279 33.581 113.513 32.9447 113.539C32.3404 113.566 31.7323 113.539 31.1261 113.539L31.1224 113.551Z" fill="black"/>
<path d="M63.5949 119.312C62.9377 119.312 62.2825 119.312 61.6253 119.312C61.1627 119.312 61.1022 119.236 61.1003 118.783C61.093 118.546 61.1328 118.311 61.2174 118.09C61.393 117.672 61.5535 117.246 61.884 116.911C61.9938 116.784 62.0853 116.643 62.1559 116.49C62.3051 116.207 62.443 115.924 62.5865 115.633C62.6255 115.522 62.6809 115.417 62.7508 115.321C63.0964 114.959 63.2474 114.487 63.4646 114.054C63.6054 113.73 63.8009 113.431 64.0424 113.172C64.1995 112.996 64.3224 112.792 64.405 112.57C64.5279 112.309 64.6686 112.057 64.8261 111.815C64.9669 111.605 65.0894 111.384 65.1925 111.154C65.3813 110.739 65.6821 110.384 66.0611 110.13C66.1811 110.037 66.3239 109.977 66.4747 109.957C66.7074 109.92 66.9419 109.897 67.1772 109.885C68.0515 109.885 68.9258 109.885 69.8001 109.898C70.2382 109.898 70.6745 109.943 71.1107 109.974C71.2863 109.985 71.3486 110.053 71.3486 110.232C71.3692 110.519 71.309 110.805 71.1749 111.059C71.0457 111.295 70.9303 111.539 70.8293 111.788C70.6746 112.143 70.478 112.479 70.2439 112.787C69.989 113.14 69.7737 113.52 69.6019 113.92C69.4961 114.151 69.345 114.355 69.2242 114.572C68.8729 115.204 68.4556 115.794 68.0911 116.411C67.7815 116.928 67.57 117.503 67.2074 117.994C67.1753 118.033 67.1504 118.078 67.1337 118.126C67.0337 118.503 66.858 118.804 66.4369 118.892C66.3595 118.926 66.2938 118.982 66.2481 119.053C66.1722 119.143 66.0753 119.213 65.9659 119.256C65.8565 119.3 65.7381 119.316 65.6211 119.302C64.947 119.302 64.2747 119.302 63.6025 119.302L63.5949 119.312Z" fill="black"/>
<path d="M28.4011 75.8385H29.3094C29.3779 75.8287 29.4477 75.835 29.5133 75.857C29.5788 75.8789 29.6384 75.9159 29.6871 75.965C29.9175 76.2482 30.2007 76.5032 30.2291 76.9092C30.2589 77.0749 30.3232 77.2326 30.4179 77.3718C30.6848 77.859 30.9498 78.3469 31.2129 78.8353C31.2883 78.9773 31.3294 79.1349 31.333 79.2955C31.3366 79.4562 31.3026 79.6155 31.2337 79.7606C31.104 80.0722 30.917 80.3566 30.6823 80.5991C30.3915 80.9012 30.0969 81.2015 29.808 81.5093C29.6771 81.641 29.5184 81.7417 29.3434 81.8039L27.8459 82.3968C27.6425 82.4785 27.4267 82.5251 27.2077 82.5347C27.0736 82.5347 26.9395 82.5347 26.8054 82.5441C26.2389 82.5838 25.7026 82.5252 25.2362 82.1419C25.0585 82.019 24.8686 81.9146 24.6697 81.8303C24.037 81.5017 23.7255 80.9314 23.548 80.2856C23.4432 79.8755 23.4432 79.4456 23.548 79.0355C23.6418 78.7111 23.807 78.4117 24.0314 78.1593C24.1615 78.0279 24.2642 77.8719 24.3335 77.7004C24.4053 77.4917 24.5493 77.3156 24.7395 77.2038C25.0303 77.0149 25.3193 76.7996 25.5987 76.5863C25.7364 76.4899 25.8938 76.4254 26.0595 76.3974C26.2909 76.3495 26.5113 76.2585 26.7091 76.1293C27.0201 75.9235 27.3884 75.8216 27.7609 75.8385C27.98 75.8385 28.1991 75.8385 28.4181 75.8385H28.4011Z" fill="#9D1E81"/>
<path d="M69.6039 108.896H67.8874C67.7703 108.896 67.6513 108.896 67.5343 108.896C67.1075 108.878 67.0074 108.755 67.0622 108.33C67.0929 108.147 67.1569 107.972 67.251 107.813C67.3731 107.554 67.5086 107.302 67.657 107.057C67.9478 106.627 68.2726 106.221 68.4124 105.707C68.6635 105.368 68.9753 105.079 69.332 104.853C69.4466 104.784 69.5762 104.744 69.7097 104.736C69.7928 104.736 69.8777 104.736 69.9608 104.736L73.4959 104.751C73.6984 104.742 73.9007 104.774 74.0907 104.844C74.1354 104.857 74.1768 104.879 74.2125 104.909C74.2482 104.939 74.2773 104.976 74.2981 105.018C74.3188 105.059 74.3307 105.105 74.3331 105.151C74.3354 105.198 74.3281 105.244 74.3117 105.288C74.2876 105.381 74.2547 105.471 74.2135 105.558C73.9786 106.061 73.7066 106.546 73.3996 107.008C73.2169 107.271 73.0559 107.548 72.918 107.837C72.7292 108.203 72.4214 108.472 72.1532 108.781C72.1185 108.818 72.0767 108.848 72.0303 108.868C71.9839 108.889 71.9339 108.9 71.8832 108.9C71.7491 108.9 71.6132 108.912 71.4791 108.912H69.6096L69.6039 108.896Z" fill="black"/>
</g>
<defs>
<clipPath id="clip0_220_4727">
<rect width="92.1193" height="126.369" fill="white"/>
</clipPath>
</defs>
</svg>
