<svg width="241" height="93" viewBox="0 0 241 93" fill="none" xmlns="http://www.w3.org/2000/svg">
<g clip-path="url(#clip0_220_4712)">
<path d="M33.3932 59.1441C39.0011 59.1441 43.5473 54.5979 43.5473 48.99C43.5473 43.3821 39.0011 38.8359 33.3932 38.8359C27.7853 38.8359 23.2391 43.3821 23.2391 48.99C23.2391 54.5979 27.7853 59.1441 33.3932 59.1441Z" fill="#5D001A"/>
<path d="M10.1541 59.0386C15.762 59.0386 20.3081 54.4925 20.3081 48.8845C20.3081 43.2766 15.762 38.7305 10.1541 38.7305C4.54613 38.7305 0 43.2766 0 48.8845C0 54.4925 4.54613 59.0386 10.1541 59.0386Z" fill="#4D4D4D"/>
<path d="M33.3933 82.1734C39.0012 82.1734 43.5473 77.6272 43.5473 72.0193C43.5473 66.4114 39.0012 61.8652 33.3933 61.8652C27.7853 61.8652 23.2392 66.4114 23.2392 72.0193C23.2392 77.6272 27.7853 82.1734 33.3933 82.1734Z" fill="#4D4D4D"/>
<path d="M10.1541 82.1734C15.762 82.1734 20.3081 77.6272 20.3081 72.0193C20.3081 66.4114 15.762 61.8652 10.1541 61.8652C4.54613 61.8652 0 66.4114 0 72.0193C0 77.6272 4.54613 82.1734 10.1541 82.1734Z" fill="#4D4D4D"/>
<path d="M140.145 64.4514C140.145 66.2581 139.491 67.7082 138.184 68.8017C136.877 69.8715 135.201 70.4064 133.156 70.4064C131.777 70.4064 130.339 70.1568 128.842 69.6575C127.368 69.1583 126.06 68.457 124.919 67.5537L126.845 64.4514C129.055 66.1155 131.195 66.9475 133.263 66.9475C134.166 66.9475 134.88 66.7454 135.403 66.3413C135.926 65.9134 136.187 65.3785 136.187 64.7367C136.187 63.7858 134.927 62.93 132.407 62.1693C132.217 62.098 132.075 62.0504 131.979 62.0266C128.033 60.9569 126.06 59.174 126.06 56.6779C126.06 54.9188 126.738 53.5162 128.093 52.4702C129.471 51.4005 131.254 50.8656 133.441 50.8656C135.628 50.8656 137.697 51.5074 139.646 52.7911L138.148 55.7508C136.603 54.7286 134.927 54.2175 133.121 54.2175C132.17 54.2175 131.397 54.3958 130.803 54.7523C130.208 55.0852 129.911 55.5963 129.911 56.2857C129.911 56.9037 130.22 57.3554 130.838 57.6407C131.266 57.8546 131.861 58.0567 132.621 58.2469C133.406 58.437 134.095 58.6272 134.689 58.8174C135.284 59.0076 135.854 59.2215 136.401 59.4592C136.972 59.697 137.578 60.0298 138.22 60.4577C139.503 61.3135 140.145 62.6447 140.145 64.4514ZM149.09 65.1289C150.232 66.27 151.67 66.8405 153.405 66.8405C155.14 66.8405 156.567 66.27 157.684 65.1289C158.825 63.9641 159.396 62.4664 159.396 60.636C159.396 58.8055 158.825 57.3197 157.684 56.1787C156.567 55.0138 155.14 54.4314 153.405 54.4314C151.67 54.4314 150.232 55.0138 149.09 56.1787C147.973 57.3197 147.414 58.8055 147.414 60.636C147.414 62.4664 147.973 63.9641 149.09 65.1289ZM160.537 67.5894C158.635 69.4674 156.258 70.4064 153.405 70.4064C150.552 70.4064 148.175 69.4674 146.273 67.5894C144.372 65.6876 143.421 63.3698 143.421 60.636C143.421 57.9022 144.372 55.5963 146.273 53.7183C148.175 51.8165 150.552 50.8656 153.405 50.8656C156.258 50.8656 158.635 51.8165 160.537 53.7183C162.439 55.5963 163.389 57.9022 163.389 60.636C163.389 63.3698 162.439 65.6876 160.537 67.5894ZM172.573 49.5819V51.1509H177.565V54.3601H172.573V70.1211H168.579V54.3601H166.19V51.1509H168.579V49.6889C168.579 47.692 169.173 46.1111 170.362 44.9463C171.574 43.7577 173.024 43.1634 174.712 43.1634C176.424 43.1634 177.981 43.7933 179.383 45.0533L177.743 47.8703C176.959 47.0383 176.138 46.6222 175.283 46.6222C174.427 46.6222 173.761 46.8956 173.286 47.4424C172.81 47.9654 172.573 48.6785 172.573 49.5819ZM186.328 54.3601V63.9879C186.328 64.8912 186.565 65.6163 187.041 66.163C187.516 66.686 188.182 66.9475 189.038 66.9475C189.893 66.9475 190.713 66.5315 191.498 65.6995L193.138 68.5165C191.736 69.7764 190.179 70.4064 188.467 70.4064C186.779 70.4064 185.329 69.8239 184.117 68.6591C182.928 67.4705 182.334 65.8778 182.334 63.8809V54.3601H179.945V51.1509H182.334V45.1959H186.328V51.1509H191.32V54.3601H186.328Z" fill="#5D001A"/>
<path d="M207.792 46.8945H211.979V71.9133H207.373L193.241 53.6988V71.9133H189.054V46.8945H193.241L207.687 65.5278V46.8945H207.792Z" fill="#4D4D4D"/>
<path fill-rule="evenodd" clip-rule="evenodd" d="M82.698 53.6984C81.5465 54.4311 80.7091 55.4779 80.081 56.6294V52.7562H76.1031V71.8082H80.081V63.6431C80.081 61.4448 80.6044 59.7699 81.5465 58.5137C82.5933 57.2575 84.0588 56.6294 85.9431 56.6294C86.0478 56.6294 86.0478 56.6294 86.1525 56.6294V52.5469C84.8963 52.5469 83.7448 52.9656 82.698 53.6984Z" fill="#4D4D4D"/>
<path fill-rule="evenodd" clip-rule="evenodd" d="M103.215 54.8499C101.436 53.2796 99.2376 52.5469 96.6206 52.5469C94.0036 52.5469 91.8053 53.3843 89.921 55.1639C88.0367 56.9435 87.0946 59.3511 87.0946 62.2822C87.0946 65.318 88.0367 67.6209 89.921 69.4005C91.8053 71.1801 94.0036 72.0176 96.7253 72.0176C99.9704 72.0176 102.692 70.9707 104.681 68.8771L102.378 66.3648C101.122 67.8303 99.3423 68.5631 96.9346 68.5631C95.4691 68.5631 94.1082 68.1444 92.9567 67.3069C91.8053 66.4695 91.1772 65.318 91.0725 63.9571H105.937V61.2354C105.833 58.6184 104.995 56.4201 103.215 54.8499ZM91.0725 60.9214C91.0725 59.3511 91.7006 58.1997 92.8521 57.2575C94.0036 56.3154 95.3644 55.8967 96.8299 55.8967C98.2955 55.8967 99.5517 56.3154 100.494 57.1528C101.541 57.9903 101.959 59.2465 101.959 60.8167H91.0725V60.9214Z" fill="#4D4D4D"/>
<path fill-rule="evenodd" clip-rule="evenodd" d="M121.325 52.8613L115.673 66.8886L110.02 52.8613H105.728C110.857 65.5277 113.37 72.018 113.37 72.4367C113.37 73.1694 113.056 73.9022 112.532 74.5303C112.009 75.1584 111.276 75.4724 110.334 75.4724C109.496 75.4724 108.554 75.0537 107.717 74.3209L105.937 77.5661C107.298 78.8222 108.868 79.4503 110.648 79.4503C111.904 79.4503 113.056 79.1363 113.998 78.4035C115.044 77.6707 115.777 76.7286 116.301 75.4724L125.513 52.8613H121.325Z" fill="#4D4D4D"/>
<path fill-rule="evenodd" clip-rule="evenodd" d="M69.5082 59.6664H63.332V63.8536H68.8801V66.5753C67.3099 67.6221 65.321 68.1455 62.9133 68.1455C60.5056 68.1455 58.5167 67.3081 56.8418 65.7379C55.1669 64.1677 54.3295 61.9694 54.3295 59.3523C54.3295 56.7353 55.1669 54.537 56.8418 52.9668C58.5167 51.2919 60.6103 50.5591 63.2274 50.5591C64.4835 50.5591 65.635 50.7685 66.6818 51.0825C67.624 51.3966 68.6708 52.0247 69.6129 52.8621L71.8112 49.617C69.4035 47.5234 66.4725 46.4766 62.9133 46.4766C59.3542 46.4766 56.3184 47.7327 53.7014 50.1404C51.189 52.6527 49.9329 55.6885 49.9329 59.457C49.9329 63.1208 51.189 66.2613 53.7014 68.6689C56.2137 71.0766 59.2495 72.3328 62.9133 72.3328C67.3099 72.3328 70.6597 71.0766 72.9627 68.4596V59.6664H69.5082Z" fill="#4D4D4D"/>
<path fill-rule="evenodd" clip-rule="evenodd" d="M234.695 59.6664H228.519V63.8536H234.067V66.5753C232.497 67.6221 230.508 68.1455 228.1 68.1455C225.692 68.1455 223.703 67.3081 222.029 65.7379C220.354 64.1677 219.516 61.9694 219.516 59.3523C219.516 56.7353 220.354 54.537 222.029 52.9668C223.703 51.2919 225.797 50.5591 228.414 50.5591C229.67 50.5591 230.822 50.7685 231.869 51.0825C232.811 51.3966 233.857 52.0247 234.8 52.8621L236.998 49.617C234.59 47.5234 231.659 46.4766 228.1 46.4766C224.541 46.4766 221.505 47.7327 218.888 50.1404C216.376 52.6527 215.12 55.6885 215.12 59.457C215.12 63.1208 216.376 66.2613 218.888 68.6689C221.4 71.0766 224.436 72.3328 228.1 72.3328C232.497 72.3328 235.846 71.0766 238.149 68.4596V59.6664H234.695Z" fill="#4D4D4D"/>
<path d="M153.243 79.2831V88.3457H151.434V79.2831H148.183V77.627H156.494V79.2831H153.243ZM165.795 85.0182H159.4C159.441 85.6111 159.712 86.0916 160.213 86.4596C160.714 86.8174 161.286 86.9963 161.93 86.9963C162.953 86.9963 163.73 86.6743 164.261 86.0302L165.243 87.1036C164.363 88.0135 163.218 88.4684 161.808 88.4684C160.663 88.4684 159.686 88.0901 158.879 87.3336C158.081 86.5669 157.683 85.5446 157.683 84.2668C157.683 82.9787 158.092 81.9564 158.909 81.1999C159.727 80.4434 160.688 80.0652 161.792 80.0652C162.907 80.0652 163.852 80.4025 164.629 81.0772C165.406 81.7417 165.795 82.6618 165.795 83.8374V85.0182ZM159.4 83.6687H164.077C164.077 82.9838 163.862 82.4573 163.433 82.0893C163.004 81.7213 162.472 81.5373 161.838 81.5373C161.215 81.5373 160.652 81.7315 160.152 82.12C159.651 82.4982 159.4 83.0145 159.4 83.6687ZM171.302 88.4684C170.167 88.4684 169.191 88.085 168.373 87.3183C167.555 86.5414 167.147 85.5293 167.147 84.2821C167.147 83.0349 167.571 82.0228 168.419 81.2459C169.278 80.4587 170.321 80.0652 171.547 80.0652C172.774 80.0652 173.812 80.4894 174.66 81.3379L173.648 82.58C172.943 81.9666 172.232 81.6599 171.517 81.6599C170.801 81.6599 170.178 81.9002 169.646 82.3806C169.125 82.8509 168.864 83.4643 168.864 84.2208C168.864 84.967 169.125 85.6009 169.646 86.1222C170.167 86.6436 170.806 86.9043 171.563 86.9043C172.33 86.9043 173.05 86.5567 173.725 85.8615L174.737 86.9656C173.745 87.9675 172.6 88.4684 171.302 88.4684ZM178.236 83.9294V88.3457H176.518V76.983H178.236V81.6753C178.481 81.1743 178.849 80.7808 179.34 80.4945C179.841 80.2083 180.378 80.0652 180.95 80.0652C181.87 80.0652 182.611 80.3463 183.174 80.9086C183.746 81.4708 184.032 82.2835 184.032 83.3467V88.3457H182.315V83.8681C182.315 82.3653 181.691 81.6139 180.444 81.6139C179.851 81.6139 179.335 81.8133 178.895 82.212C178.456 82.6004 178.236 83.1729 178.236 83.9294ZM188.149 83.9294V88.3457H186.432V80.1878H188.149V81.6753C188.425 81.1743 188.804 80.7808 189.284 80.4945C189.775 80.2083 190.301 80.0652 190.863 80.0652C191.784 80.0652 192.525 80.3463 193.087 80.9086C193.659 81.4708 193.946 82.2835 193.946 83.3467V88.3457H192.228V83.8681C192.228 82.3653 191.605 81.6139 190.357 81.6139C189.765 81.6139 189.248 81.8133 188.809 82.212C188.369 82.6004 188.149 83.1729 188.149 83.9294ZM198.247 86.1989C198.737 86.6896 199.356 86.9349 200.102 86.9349C200.848 86.9349 201.462 86.6896 201.942 86.1989C202.433 85.698 202.678 85.0539 202.678 84.2668C202.678 83.4796 202.433 82.8407 201.942 82.35C201.462 81.8491 200.848 81.5986 200.102 81.5986C199.356 81.5986 198.737 81.8491 198.247 82.35C197.766 82.8407 197.526 83.4796 197.526 84.2668C197.526 85.0539 197.766 85.698 198.247 86.1989ZM203.169 87.257C202.351 88.0646 201.329 88.4684 200.102 88.4684C198.875 88.4684 197.853 88.0646 197.035 87.257C196.217 86.4391 195.809 85.4424 195.809 84.2668C195.809 83.0911 196.217 82.0995 197.035 81.2919C197.853 80.4741 198.875 80.0652 200.102 80.0652C201.329 80.0652 202.351 80.4741 203.169 81.2919C203.987 82.0995 204.396 83.0911 204.396 84.2668C204.396 85.4424 203.987 86.4391 203.169 87.257ZM208.066 88.3457H206.349V76.9676H208.066V88.3457ZM212.458 86.1989C212.949 86.6896 213.567 86.9349 214.313 86.9349C215.06 86.9349 215.673 86.6896 216.154 86.1989C216.644 85.698 216.89 85.0539 216.89 84.2668C216.89 83.4796 216.644 82.8407 216.154 82.35C215.673 81.8491 215.06 81.5986 214.313 81.5986C213.567 81.5986 212.949 81.8491 212.458 82.35C211.977 82.8407 211.737 83.4796 211.737 84.2668C211.737 85.0539 211.977 85.698 212.458 86.1989ZM217.38 87.257C216.562 88.0646 215.54 88.4684 214.313 88.4684C213.087 88.4684 212.064 88.0646 211.247 87.257C210.429 86.4391 210.02 85.4424 210.02 84.2668C210.02 83.0911 210.429 82.0995 211.247 81.2919C212.064 80.4741 213.087 80.0652 214.313 80.0652C215.54 80.0652 216.562 80.4741 217.38 81.2919C218.198 82.0995 218.607 83.0911 218.607 84.2668C218.607 85.4424 218.198 86.4391 217.38 87.257ZM228.104 80.1878V87.303C228.104 88.7444 227.711 89.8229 226.923 90.5385C226.147 91.2643 225.145 91.6273 223.918 91.6273C222.691 91.6273 221.582 91.2439 220.59 90.4772L221.403 89.1738C222.201 89.7769 223.003 90.0785 223.811 90.0785C224.628 90.0785 225.272 89.8689 225.743 89.4498C226.223 89.0306 226.463 88.361 226.463 87.441V86.3982C226.208 86.8787 225.84 87.2621 225.359 87.5483C224.889 87.8346 224.358 87.9777 223.765 87.9777C222.681 87.9777 221.792 87.5994 221.096 86.8429C220.401 86.0864 220.054 85.1459 220.054 84.0214C220.054 82.8969 220.401 81.9564 221.096 81.1999C221.792 80.4434 222.676 80.0652 223.749 80.0652C224.833 80.0652 225.712 80.5099 226.387 81.3992V80.1878H228.104ZM221.74 83.9601C221.74 84.6246 221.945 85.2022 222.354 85.6929C222.773 86.1733 223.33 86.4136 224.025 86.4136C224.731 86.4136 225.298 86.1785 225.727 85.7082C226.167 85.2379 226.387 84.6552 226.387 83.9601C226.387 83.2547 226.167 82.6618 225.727 82.1813C225.288 81.6906 224.72 81.4453 224.025 81.4453C223.33 81.4453 222.773 81.6957 222.354 82.1966C221.945 82.6976 221.74 83.2854 221.74 83.9601ZM232.31 88.3457H230.593V80.1878H232.31V88.3457ZM230.7 78.5624C230.486 78.3477 230.378 78.0921 230.378 77.7957C230.378 77.4992 230.486 77.2436 230.7 77.029C230.915 76.8143 231.171 76.7069 231.467 76.7069C231.763 76.7069 232.019 76.8143 232.234 77.029C232.448 77.2436 232.556 77.4992 232.556 77.7957C232.556 78.0921 232.448 78.3477 232.234 78.5624C232.019 78.7771 231.763 78.8844 231.467 78.8844C231.171 78.8844 230.915 78.7771 230.7 78.5624ZM242.391 85.0182H235.997C236.038 85.6111 236.309 86.0916 236.81 86.4596C237.311 86.8174 237.883 86.9963 238.527 86.9963C239.549 86.9963 240.326 86.6743 240.858 86.0302L241.839 87.1036C240.96 88.0135 239.815 88.4684 238.404 88.4684C237.26 88.4684 236.283 88.0901 235.476 87.3336C234.678 86.5669 234.28 85.5446 234.28 84.2668C234.28 82.9787 234.688 81.9564 235.506 81.1999C236.324 80.4434 237.285 80.0652 238.389 80.0652C239.503 80.0652 240.449 80.4025 241.226 81.0772C242.003 81.7417 242.391 82.6618 242.391 83.8374V85.0182ZM235.997 83.6687H240.674C240.674 82.9838 240.459 82.4573 240.03 82.0893C239.601 81.7213 239.069 81.5373 238.435 81.5373C237.812 81.5373 237.249 81.7315 236.748 82.12C236.247 82.4982 235.997 83.0145 235.997 83.6687ZM250.092 85.9075C250.092 86.6845 249.811 87.3081 249.248 87.7783C248.686 88.2384 247.965 88.4684 247.086 88.4684C246.493 88.4684 245.875 88.361 245.231 88.1464C244.597 87.9317 244.035 87.6301 243.544 87.2416L244.372 85.9075C245.323 86.6231 246.243 86.9809 247.132 86.9809C247.521 86.9809 247.827 86.8941 248.052 86.7203C248.277 86.5363 248.39 86.3062 248.39 86.0302C248.39 85.6213 247.848 85.2533 246.764 84.9261C246.682 84.8955 246.621 84.875 246.58 84.8648C244.883 84.4048 244.035 83.6381 244.035 82.5647C244.035 81.8082 244.326 81.205 244.909 80.7552C245.502 80.2952 246.268 80.0652 247.209 80.0652C248.149 80.0652 249.039 80.3412 249.877 80.8932L249.233 82.166C248.569 81.7264 247.848 81.5066 247.071 81.5066C246.662 81.5066 246.33 81.5833 246.074 81.7366C245.819 81.8797 245.691 82.0995 245.691 82.396C245.691 82.6618 245.824 82.856 246.089 82.9787C246.274 83.0707 246.529 83.1576 246.856 83.2394C247.194 83.3212 247.49 83.4029 247.746 83.4847C248.001 83.5665 248.247 83.6585 248.482 83.7607C248.727 83.863 248.988 84.0061 249.264 84.1901C249.816 84.5581 250.092 85.1306 250.092 85.9075Z" fill="#4D4D4D"/>
</g>
<defs>
<clipPath id="clip0_220_4712">
<rect width="240.766" height="92.538" fill="white"/>
</clipPath>
</defs>
</svg>
