<svg width="1263" height="476" viewBox="0 0 1263 476" fill="none" xmlns="http://www.w3.org/2000/svg">
<path opacity="0.6" d="M0.800001 222H-0.207771V223.008H0.800001V222ZM23 222V223.008H24.0078V222H23ZM23 24.6L23.9288 24.209L21.9922 24.6H23ZM106.1 222L105.171 222.391L105.431 223.008H106.1V222ZM125.3 222V223.008H125.968L126.228 222.392L125.3 222ZM208.7 24.6H209.708L207.772 24.2078L208.7 24.6ZM208.7 222H207.692V223.008H208.7V222ZM230.9 222V223.008H231.908V222H230.9ZM230.9 0.299994H231.908V-0.707781H230.9V0.299994ZM196.4 0.299994V-0.707781H195.734L195.473 -0.0950298L196.4 0.299994ZM116 189L115.073 189.396L116.002 191.567L116.927 189.395L116 189ZM35.3 0.299994L36.2266 -0.0962772L35.9651 -0.707781H35.3V0.299994ZM0.800001 0.299994V-0.707781H-0.207771V0.299994H0.800001ZM0.800001 223.008H23V220.992H0.800001V223.008ZM24.0078 222V24.6H21.9922V222H24.0078ZM22.0712 24.991L105.171 222.391L107.029 221.609L23.9288 24.209L22.0712 24.991ZM106.1 223.008H125.3V220.992H106.1V223.008ZM126.228 222.392L209.628 24.9922L207.772 24.2078L124.372 221.608L126.228 222.392ZM207.692 24.6V222H209.708V24.6H207.692ZM208.7 223.008H230.9V220.992H208.7V223.008ZM231.908 222V0.299994H229.892V222H231.908ZM230.9 -0.707781H196.4V1.30777H230.9V-0.707781ZM195.473 -0.0950298L115.073 188.605L116.927 189.395L197.327 0.695017L195.473 -0.0950298ZM116.927 188.604L36.2266 -0.0962772L34.3734 0.696264L115.073 189.396L116.927 188.604ZM35.3 -0.707781H0.800001V1.30777H35.3V-0.707781ZM-0.207771 0.299994V222H1.80778V0.299994H-0.207771ZM276.484 222H275.476V223.008H276.484V222ZM397.684 222V223.008H398.691V222H397.684ZM397.684 201.9H398.691V200.892H397.684V201.9ZM298.684 201.9H297.676V202.908H298.684V201.9ZM298.684 120V118.992H297.676V120H298.684ZM394.384 120V121.008H395.391V120H394.384ZM394.384 99.9H395.391V98.8922H394.384V99.9ZM298.684 99.9H297.676V100.908H298.684V99.9ZM298.684 20.4V19.3922H297.676V20.4H298.684ZM397.684 20.4V21.4078H398.691V20.4H397.684ZM397.684 0.299994H398.691V-0.707781H397.684V0.299994ZM276.484 0.299994V-0.707781H275.476V0.299994H276.484ZM276.484 223.008H397.684V220.992H276.484V223.008ZM398.691 222V201.9H396.676V222H398.691ZM397.684 200.892H298.684V202.908H397.684V200.892ZM299.691 201.9V120H297.676V201.9H299.691ZM298.684 121.008H394.384V118.992H298.684V121.008ZM395.391 120V99.9H393.376V120H395.391ZM394.384 98.8922H298.684V100.908H394.384V98.8922ZM299.691 99.9V20.4H297.676V99.9H299.691ZM298.684 21.4078H397.684V19.3922H298.684V21.4078ZM398.691 20.4V0.299994H396.676V20.4H398.691ZM397.684 -0.707781H276.484V1.30777H397.684V-0.707781ZM275.476 0.299994V222H277.491V0.299994H275.476ZM437.323 222H436.316V223.008H437.323V222ZM558.523 222V223.008H559.531V222H558.523ZM558.523 201.9H559.531V200.892H558.523V201.9ZM459.523 201.9H458.516V202.908H459.523V201.9ZM459.523 120V118.992H458.516V120H459.523ZM555.223 120V121.008H556.231V120H555.223ZM555.223 99.9H556.231V98.8922H555.223V99.9ZM459.523 99.9H458.516V100.908H459.523V99.9ZM459.523 20.4V19.3922H458.516V20.4H459.523ZM558.523 20.4V21.4078H559.531V20.4H558.523ZM558.523 0.299994H559.531V-0.707781H558.523V0.299994ZM437.323 0.299994V-0.707781H436.316V0.299994H437.323ZM437.323 223.008H558.523V220.992H437.323V223.008ZM559.531 222V201.9H557.516V222H559.531ZM558.523 200.892H459.523V202.908H558.523V200.892ZM460.531 201.9V120H458.516V201.9H460.531ZM459.523 121.008H555.223V118.992H459.523V121.008ZM556.231 120V99.9H554.216V120H556.231ZM555.223 98.8922H459.523V100.908H555.223V98.8922ZM460.531 99.9V20.4H458.516V99.9H460.531ZM459.523 21.4078H558.523V19.3922H459.523V21.4078ZM559.531 20.4V0.299994H557.516V20.4H559.531ZM558.523 -0.707781H437.323V1.30777H558.523V-0.707781ZM436.316 0.299994V222H438.331V0.299994H436.316ZM628.163 222H627.156V223.008H628.163V222ZM650.363 222V223.008H651.371V222H650.363ZM650.363 20.4V19.3922H649.356V20.4H650.363ZM701.063 20.4V21.4078H702.071V20.4H701.063ZM701.063 0.299994H702.071V-0.707781H701.063V0.299994ZM577.463 0.299994V-0.707781H576.456V0.299994H577.463ZM577.463 20.4H576.456V21.4078H577.463V20.4ZM628.163 20.4H629.171V19.3922H628.163V20.4ZM628.163 223.008H650.363V220.992H628.163V223.008ZM651.371 222V20.4H649.356V222H651.371ZM650.363 21.4078H701.063V19.3922H650.363V21.4078ZM702.071 20.4V0.299994H700.056V20.4H702.071ZM701.063 -0.707781H577.463V1.30777H701.063V-0.707781ZM576.456 0.299994V20.4H578.471V0.299994H576.456ZM577.463 21.4078H628.163V19.3922H577.463V21.4078ZM627.156 20.4V222H629.171V20.4H627.156ZM839.101 222H838.093V223.008H839.101V222ZM861.301 222V223.008H862.309V222H861.301ZM861.301 20.4V19.3922H860.293V20.4H861.301ZM912.001 20.4V21.4078H913.009V20.4H912.001ZM912.001 0.299994H913.009V-0.707781H912.001V0.299994ZM788.401 0.299994V-0.707781H787.393V0.299994H788.401ZM788.401 20.4H787.393V21.4078H788.401V20.4ZM839.101 20.4H840.109V19.3922H839.101V20.4ZM839.101 223.008H861.301V220.992H839.101V223.008ZM862.309 222V20.4H860.293V222H862.309ZM861.301 21.4078H912.001V19.3922H861.301V21.4078ZM913.009 20.4V0.299994H910.993V20.4H913.009ZM912.001 -0.707781H788.401V1.30777H912.001V-0.707781ZM787.393 0.299994V20.4H789.409V0.299994H787.393ZM788.401 21.4078H839.101V19.3922H788.401V21.4078ZM838.093 20.4V222H840.109V20.4H838.093ZM936.835 222H935.827V223.008H936.835V222ZM959.035 222V223.008H960.043V222H959.035ZM959.035 117.9V116.892H958.027V117.9H959.035ZM1073.94 117.9H1074.94V116.892H1073.94V117.9ZM1073.94 222H1072.93V223.008H1073.94V222ZM1096.14 222V223.008H1097.14V222H1096.14ZM1096.14 0.299994H1097.14V-0.707781H1096.14V0.299994ZM1073.94 0.299994V-0.707781H1072.93V0.299994H1073.94ZM1073.94 97.8V98.8078H1074.94V97.8H1073.94ZM959.035 97.8H958.027V98.8078H959.035V97.8ZM959.035 0.299994H960.043V-0.707781H959.035V0.299994ZM936.835 0.299994V-0.707781H935.827V0.299994H936.835ZM936.835 223.008H959.035V220.992H936.835V223.008ZM960.043 222V117.9H958.027V222H960.043ZM959.035 118.908H1073.94V116.892H959.035V118.908ZM1072.93 117.9V222H1074.94V117.9H1072.93ZM1073.94 223.008H1096.14V220.992H1073.94V223.008ZM1097.14 222V0.299994H1095.13V222H1097.14ZM1096.14 -0.707781H1073.94V1.30777H1096.14V-0.707781ZM1072.93 0.299994V97.8H1074.94V0.299994H1072.93ZM1073.94 96.7922H959.035V98.8078H1073.94V96.7922ZM960.043 97.8V0.299994H958.027V97.8H960.043ZM959.035 -0.707781H936.835V1.30777H959.035V-0.707781ZM935.827 0.299994V222H937.843V0.299994H935.827ZM1141.62 222H1140.61V223.008H1141.62V222ZM1262.82 222V223.008H1263.83V222H1262.82ZM1262.82 201.9H1263.83V200.892H1262.82V201.9ZM1163.82 201.9H1162.81V202.908H1163.82V201.9ZM1163.82 120V118.992H1162.81V120H1163.82ZM1259.52 120V121.008H1260.53V120H1259.52ZM1259.52 99.9H1260.53V98.8922H1259.52V99.9ZM1163.82 99.9H1162.81V100.908H1163.82V99.9ZM1163.82 20.4V19.3922H1162.81V20.4H1163.82ZM1262.82 20.4V21.4078H1263.83V20.4H1262.82ZM1262.82 0.299994H1263.83V-0.707781H1262.82V0.299994ZM1141.62 0.299994V-0.707781H1140.61V0.299994H1141.62ZM1141.62 223.008H1262.82V220.992H1141.62V223.008ZM1263.83 222V201.9H1261.81V222H1263.83ZM1262.82 200.892H1163.82V202.908H1262.82V200.892ZM1164.83 201.9V120H1162.81V201.9H1164.83ZM1163.82 121.008H1259.52V118.992H1163.82V121.008ZM1260.53 120V99.9H1258.51V120H1260.53ZM1259.52 98.8922H1163.82V100.908H1259.52V98.8922ZM1164.83 99.9V20.4H1162.81V99.9H1164.83ZM1163.82 21.4078H1262.82V19.3922H1163.82V21.4078ZM1263.83 20.4V0.299994H1261.81V20.4H1263.83ZM1262.82 -0.707781H1141.62V1.30777H1262.82V-0.707781ZM1140.61 0.299994V222H1142.63V0.299994H1140.61ZM183.003 249.3H184.011V248.292H183.003V249.3ZM160.803 249.3V248.292H159.795V249.3H160.803ZM86.4031 418.5L87.4087 418.433L87.346 417.492H86.4031V418.5ZM64.5031 418.5V417.492H63.4428L63.4967 418.551L64.5031 418.5ZM183.003 248.292H160.803V250.308H183.003V248.292ZM159.795 249.3V401.7H161.811V249.3H159.795ZM159.795 401.7C159.795 419.158 156.657 432.194 150.674 440.839C144.735 449.422 135.914 453.792 124.203 453.792V455.808C136.493 455.808 145.971 451.178 152.332 441.986C158.649 432.856 161.811 419.342 161.811 401.7H159.795ZM124.203 453.792C113.47 453.792 104.66 450.415 98.351 444.36C92.0398 438.303 88.1452 429.481 87.4087 418.433L85.3976 418.567C86.161 430.019 90.2164 439.347 96.9553 445.815C103.697 452.285 113.036 455.808 124.203 455.808V453.792ZM86.4031 417.492H64.5031V419.508H86.4031V417.492ZM63.4967 418.551C64.4069 436.453 70.4839 450.89 80.9068 460.853C91.3303 470.817 105.998 476.208 123.903 476.208V474.192C106.408 474.192 92.2759 468.933 82.2995 459.397C72.3223 449.86 66.3994 435.947 65.5096 418.449L63.4967 418.551ZM123.903 476.208C143.346 476.208 158.437 469.664 168.639 456.969C178.812 444.31 184.011 425.675 184.011 401.7H181.995C181.995 425.425 176.845 443.54 167.068 455.706C157.32 467.836 142.86 474.192 123.903 474.192V476.208ZM184.011 401.7V249.3H181.995V401.7H184.011ZM228.73 249.3V248.292H227.722V249.3H228.73ZM244.33 447.6L243.525 448.207L243.527 448.209L244.33 447.6ZM364.03 447.6L364.833 448.209L364.834 448.207L364.03 447.6ZM379.63 249.3H380.637V248.292H379.63V249.3ZM357.43 249.3V248.292H356.422V249.3H357.43ZM347.23 433.5L346.387 432.947L346.385 432.95L347.23 433.5ZM261.13 433.5L261.974 432.95L261.972 432.947L261.13 433.5ZM250.93 249.3H251.937V248.292H250.93V249.3ZM227.722 249.3V387.6H229.737V249.3H227.722ZM227.722 387.6C227.722 416.214 232.242 433.264 243.525 448.207L245.134 446.993C234.218 432.536 229.737 415.986 229.737 387.6H227.722ZM243.527 448.209C256.946 465.899 279.166 475.908 304.03 475.908V473.892C279.694 473.892 258.113 464.101 245.133 446.991L243.527 448.209ZM304.03 475.908C329.191 475.908 351.412 465.9 364.833 448.209L363.227 446.991C350.248 464.1 328.668 473.892 304.03 473.892V475.908ZM364.834 448.207C376.118 433.264 380.637 416.214 380.637 387.6H378.622C378.622 415.986 374.142 432.536 363.225 446.993L364.834 448.207ZM380.637 387.6V249.3H378.622V387.6H380.637ZM379.63 248.292H357.43V250.308H379.63V248.292ZM356.422 249.3V387.6H358.437V249.3H356.422ZM356.422 387.6C356.422 407.619 353.13 422.686 346.387 432.947L348.072 434.053C355.13 423.314 358.437 407.781 358.437 387.6H356.422ZM346.385 432.95C338.206 445.511 322.058 453.492 304.03 453.492V455.508C322.602 455.508 339.454 447.289 348.074 434.05L346.385 432.95ZM304.03 453.492C286.305 453.492 270.155 445.514 261.974 432.95L260.285 434.05C268.904 447.286 285.754 455.508 304.03 455.508V453.492ZM261.972 432.947C255.23 422.686 251.937 407.619 251.937 387.6H249.922C249.922 407.781 253.23 423.314 260.287 434.053L261.972 432.947ZM251.937 387.6V249.3H249.922V387.6H251.937ZM250.93 248.292H228.73V250.308H250.93V248.292ZM425.312 471H424.304V472.008H425.312V471ZM559.112 455.7L559.595 456.584L559.599 456.582L559.112 455.7ZM564.512 268.2L563.969 269.049L563.975 269.053L564.512 268.2ZM425.312 249.3V248.292H424.304V249.3H425.312ZM447.512 450.9H446.504V451.908H447.512V450.9ZM447.512 269.4V268.392H446.504V269.4H447.512ZM547.712 282.6L547.21 283.474L547.218 283.479L547.712 282.6ZM560.012 429.6L560.664 430.368L560.669 430.364L560.012 429.6ZM425.312 472.008H485.012V469.992H425.312V472.008ZM485.012 472.008C517.212 472.008 540.196 467.193 559.595 456.584L558.628 454.816C539.627 465.207 517.012 469.992 485.012 469.992V472.008ZM559.599 456.582C594.748 437.189 613.52 403.533 613.52 360.9H611.504C611.504 402.867 593.075 435.811 558.625 454.818L559.599 456.582ZM613.52 360.9C613.52 319.797 596.877 287.353 565.048 267.347L563.975 269.053C595.147 288.647 611.504 320.403 611.504 360.9H613.52ZM565.054 267.351C543.218 253.4 518.992 248.292 477.512 248.292V250.308C518.831 250.308 542.605 255.4 563.969 269.049L565.054 267.351ZM477.512 248.292H425.312V250.308H477.512V248.292ZM424.304 249.3V471H426.319V249.3H424.304ZM448.52 450.9V269.4H446.504V450.9H448.52ZM447.512 270.408H478.412V268.392H447.512V270.408ZM478.412 270.408C510.751 270.408 531.238 274.305 547.21 283.474L548.213 281.726C531.785 272.295 510.873 268.392 478.412 268.392V270.408ZM547.218 283.479C573.562 298.279 589.004 326.418 589.004 360H591.019C591.019 325.782 575.261 296.921 548.205 281.721L547.218 283.479ZM589.004 360C589.004 387.941 578.307 412.549 559.355 428.836L560.669 430.364C580.116 413.651 591.019 388.459 591.019 360H589.004ZM559.359 428.832C541.633 443.899 518.83 449.892 478.412 449.892V451.908C518.994 451.908 542.39 445.901 560.664 430.368L559.359 428.832ZM478.412 449.892H447.512V451.908H478.412V449.892ZM724.454 368.7V367.692H723.446V368.7H724.454ZM724.454 388.8H723.446V389.808H724.454V388.8ZM848.354 388.8L849.334 389.034L849.631 387.792H848.354V388.8ZM826.154 426.9L826.879 427.6L826.884 427.595L826.154 426.9ZM836.654 308.4L835.777 308.897L836.067 309.408H836.654V308.4ZM861.554 308.4V309.408H863.027L862.493 308.035L861.554 308.4ZM844.154 439.2L843.415 438.515L843.409 438.522L844.154 439.2ZM875.054 368.7L876.06 368.758L876.122 367.692H875.054V368.7ZM723.446 368.7V388.8H725.462V368.7H723.446ZM724.454 389.808H848.354V387.792H724.454V389.808ZM847.374 388.566C844.125 402.153 837.333 413.701 825.424 426.205L826.884 427.595C838.975 414.899 845.983 403.047 849.334 389.034L847.374 388.566ZM825.429 426.2C808.233 443.989 784.801 453.492 758.654 453.492V455.508C785.307 455.508 809.275 445.811 826.878 427.6L825.429 426.2ZM758.654 453.492C704.879 453.492 662.462 412.513 662.462 360.3H660.446C660.446 413.687 703.829 455.508 758.654 455.508V453.492ZM662.462 360.3C662.462 307.479 703.987 266.808 758.354 266.808V264.792C702.92 264.792 660.446 306.321 660.446 360.3H662.462ZM758.354 266.808C792.239 266.808 820.678 282.252 835.777 308.897L837.531 307.903C822.029 280.548 792.869 264.792 758.354 264.792V266.808ZM836.654 309.408H861.554V307.392H836.654V309.408ZM862.493 308.035C847.609 269.761 805.168 244.392 756.554 244.392V246.408C804.539 246.408 846.099 271.439 860.615 308.765L862.493 308.035ZM756.554 244.392C690.025 244.392 637.946 294.916 637.946 359.7H639.962C639.962 296.084 691.083 246.408 756.554 246.408V244.392ZM637.946 359.7C637.946 425.4 690.942 475.908 759.554 475.908V473.892C691.966 473.892 639.962 424.2 639.962 359.7H637.946ZM759.554 475.908C794.013 475.908 823.392 463.506 844.899 439.878L843.409 438.522C822.316 461.694 793.495 473.892 759.554 473.892V475.908ZM844.893 439.885C863.943 419.323 874.546 394.805 876.06 368.758L874.048 368.642C872.562 394.195 862.165 418.277 843.415 438.515L844.893 439.885ZM875.054 367.692H724.454V369.708H875.054V367.692ZM910.175 471H909.167V472.008H910.175V471ZM1031.38 471V472.008H1032.38V471H1031.38ZM1031.38 450.9H1032.38V449.892H1031.38V450.9ZM932.375 450.9H931.367V451.908H932.375V450.9ZM932.375 369V367.992H931.367V369H932.375ZM1028.07 369V370.008H1029.08V369H1028.07ZM1028.07 348.9H1029.08V347.892H1028.07V348.9ZM932.375 348.9H931.367V349.908H932.375V348.9ZM932.375 269.4V268.392H931.367V269.4H932.375ZM1031.38 269.4V270.408H1032.38V269.4H1031.38ZM1031.38 249.3H1032.38V248.292H1031.38V249.3ZM910.175 249.3V248.292H909.167V249.3H910.175ZM910.175 472.008H1031.38V469.992H910.175V472.008ZM1032.38 471V450.9H1030.37V471H1032.38ZM1031.38 449.892H932.375V451.908H1031.38V449.892ZM933.383 450.9V369H931.367V450.9H933.383ZM932.375 370.008H1028.07V367.992H932.375V370.008ZM1029.08 369V348.9H1027.07V369H1029.08ZM1028.07 347.892H932.375V349.908H1028.07V347.892ZM933.383 348.9V269.4H931.367V348.9H933.383ZM932.375 270.408H1031.38V268.392H932.375V270.408ZM1032.38 269.4V249.3H1030.37V269.4H1032.38ZM1031.38 248.292H910.175V250.308H1031.38V248.292ZM909.167 249.3V471H911.183V249.3H909.167ZM1054.81 408.9V407.892H1053.75L1053.81 408.953L1054.81 408.9ZM1169.11 361.8L1169.73 360.998L1169.71 360.988L1169.7 360.978L1169.11 361.8ZM1127.71 344.1L1128.01 343.135L1128 343.134L1127.71 344.1ZM1095.01 330.3L1094.34 331.047L1094.35 331.058L1094.36 331.068L1095.01 330.3ZM1162.51 305.4L1161.51 305.463L1161.57 306.408H1162.51V305.4ZM1185.61 305.4V306.408H1186.65L1186.62 305.375L1185.61 305.4ZM1077.61 344.4L1078.31 343.675L1078.3 343.665L1077.61 344.4ZM1119.01 364.2L1118.72 365.162L1118.72 365.165L1118.73 365.167L1119.01 364.2ZM1153.51 378.6L1154.1 377.782L1154.09 377.774L1154.08 377.767L1153.51 378.6ZM1089.61 438.9L1090.39 438.262L1090.39 438.255L1090.38 438.249L1089.61 438.9ZM1078.51 408.9L1079.52 408.793L1079.42 407.892H1078.51V408.9ZM1053.81 408.953C1054.87 429.125 1062.31 445.879 1074.59 457.592C1086.88 469.305 1103.94 475.908 1124.11 475.908V473.892C1104.39 473.892 1087.85 467.445 1075.99 456.133C1064.12 444.821 1056.86 428.575 1055.82 408.847L1053.81 408.953ZM1124.11 475.908C1163.05 475.908 1192.02 447.575 1192.02 409.2H1190.01C1190.01 446.425 1161.98 473.892 1124.11 473.892V475.908ZM1192.02 409.2C1192.02 389.426 1183.81 371.712 1169.73 360.998L1168.5 362.602C1182.02 372.888 1190.01 389.974 1190.01 409.2H1192.02ZM1169.7 360.978C1160.26 354.283 1150.84 350.045 1128.01 343.135L1127.42 345.065C1150.19 351.955 1159.37 356.117 1168.53 362.622L1169.7 360.978ZM1128 343.134C1107.87 337.126 1101.48 334.474 1095.67 329.532L1094.36 331.068C1100.55 336.326 1107.35 339.074 1127.43 345.066L1128 343.134ZM1095.69 329.553C1089.63 324.07 1085.52 314.456 1085.52 304.5H1083.51C1083.51 314.944 1087.8 325.13 1094.34 331.047L1095.69 329.553ZM1085.52 304.5C1085.52 282.551 1101.28 266.808 1122.91 266.808V264.792C1100.15 264.792 1083.51 281.449 1083.51 304.5H1085.52ZM1122.91 266.808C1133.92 266.808 1143.18 270.618 1149.88 277.313C1156.58 284.012 1160.77 293.667 1161.51 305.463L1163.52 305.337C1162.76 293.133 1158.4 282.988 1151.3 275.887C1144.2 268.782 1134.41 264.792 1122.91 264.792V266.808ZM1162.51 306.408H1185.61V304.392H1162.51V306.408ZM1186.62 305.375C1186.17 287.142 1179.63 271.88 1168.54 261.175C1157.45 250.471 1141.89 244.392 1123.51 244.392V246.408C1141.44 246.408 1156.48 252.329 1167.14 262.625C1177.8 272.92 1184.16 287.658 1184.61 305.425L1186.62 305.375ZM1123.51 244.392C1087.29 244.392 1061.01 269.714 1061.01 305.1H1063.02C1063.02 270.886 1088.34 246.408 1123.51 246.408V244.392ZM1061.01 305.1C1061.01 320.629 1066.79 335.613 1076.92 345.135L1078.3 343.665C1068.64 334.587 1063.02 320.171 1063.02 305.1H1061.01ZM1076.91 345.125C1081.33 349.385 1085.24 352.378 1091.35 355.321C1097.43 358.244 1105.67 361.113 1118.72 365.162L1119.31 363.238C1106.26 359.187 1098.15 356.356 1092.23 353.504C1086.34 350.672 1082.6 347.815 1078.31 343.675L1076.91 345.125ZM1118.73 365.167C1136.09 370.256 1145.58 374.42 1152.95 379.433L1154.08 377.767C1146.45 372.58 1136.74 368.344 1119.3 363.233L1118.73 365.167ZM1152.93 379.418C1162.22 386.101 1167.51 397.174 1167.51 410.4H1169.52C1169.52 396.626 1164.01 384.899 1154.1 377.782L1152.93 379.418ZM1167.51 410.4C1167.51 435.353 1149.65 453.492 1124.71 453.492V455.508C1150.78 455.508 1169.52 436.447 1169.52 410.4H1167.51ZM1124.71 453.492C1111.18 453.492 1098.28 447.897 1090.39 438.262L1088.83 439.538C1097.15 449.702 1110.65 455.508 1124.71 455.508V453.492ZM1090.38 438.249C1083.96 430.652 1081 422.768 1079.52 408.793L1077.51 409.007C1079.03 423.232 1082.07 431.548 1088.85 439.551L1090.38 438.249ZM1078.51 407.892H1054.81V409.908H1078.51V407.892Z" fill="#DCA236"/>
</svg>
