<svg width="1244" height="475" viewBox="0 0 1244 475" fill="none" xmlns="http://www.w3.org/2000/svg">
<path opacity="0.6" d="M19.8 222H18.7922V223.008H19.8V222ZM42 222V223.008H43.0078V222H42ZM42 132.3V131.292H40.9922V132.3H42ZM144.3 118.5L143.706 117.686L143.704 117.687L144.3 118.5ZM140.1 12L139.576 12.8608L139.582 12.8646L139.588 12.8682L140.1 12ZM19.8 0.299994V-0.707781H18.7922V0.299994H19.8ZM42 112.2H40.9922V113.208H42V112.2ZM42 20.4V19.3922H40.9922V20.4H42ZM119.1 25.2L118.781 26.1561L118.792 26.1596L119.1 25.2ZM125.7 104.7L125.222 103.813L125.208 103.82L125.194 103.828L125.7 104.7ZM19.8 223.008H42V220.992H19.8V223.008ZM43.0078 222V132.3H40.9922V222H43.0078ZM42 133.308H84.6V131.292H42V133.308ZM84.6 133.308C114.675 133.308 131.137 129.403 144.896 119.313L143.704 117.687C130.463 127.397 114.525 131.292 84.6 131.292V133.308ZM144.894 119.314C159.625 108.573 167.508 89.9232 167.508 67.5H165.492C165.492 89.4768 157.775 107.427 143.706 117.686L144.894 119.314ZM167.508 67.5C167.508 41.7663 157.812 21.2677 140.612 11.1317L139.588 12.8682C155.988 22.5322 165.492 42.2337 165.492 67.5H167.508ZM140.624 11.1391C126.586 2.59423 109.56 -0.707781 81 -0.707781V1.30777C109.44 1.30777 126.014 4.60575 139.576 12.8608L140.624 11.1391ZM81 -0.707781H19.8V1.30777H81V-0.707781ZM18.7922 0.299994V222H20.8078V0.299994H18.7922ZM43.0078 112.2V20.4H40.9922V112.2H43.0078ZM42 21.4078H73.5V19.3922H42V21.4078ZM73.5 21.4078C95.3796 21.4078 109.043 22.91 118.781 26.1561L119.419 24.2439C109.357 20.89 95.4204 19.3922 73.5 19.3922V21.4078ZM118.792 26.1596C134.133 31.0804 142.992 45.8681 142.992 67.2H145.008C145.008 45.3319 135.867 29.5196 119.408 24.2404L118.792 26.1596ZM142.992 67.2C142.992 84.3743 136.485 97.7479 125.222 103.813L126.178 105.587C138.315 99.052 145.008 84.8256 145.008 67.2H142.992ZM125.194 103.828C116.139 109.086 103.472 111.192 83.1 111.192V113.208C103.529 113.208 116.661 111.114 126.206 105.572L125.194 103.828ZM83.1 111.192H42V113.208H83.1V111.192ZM159.675 222L158.749 221.603L158.146 223.008H159.675V222ZM183.075 222V223.008H183.736L184 222.401L183.075 222ZM215.475 147.3V146.292H214.814L214.55 146.899L215.475 147.3ZM318.675 147.3L319.601 146.902L319.339 146.292H318.675V147.3ZM350.775 222L349.849 222.398L350.111 223.008H350.775V222ZM375.075 222V223.008H376.606L376.001 221.602L375.075 222ZM279.675 0.299994L280.601 -0.0983486L280.338 -0.707781H279.675V0.299994ZM254.775 0.299994V-0.707781H254.111L253.849 -0.09729L254.775 0.299994ZM223.875 127.2L222.948 126.804L222.348 128.208H223.875V127.2ZM267.375 25.5L268.305 25.1106L267.385 22.9147L266.448 25.1037L267.375 25.5ZM309.975 127.2V128.208H311.49L310.905 126.811L309.975 127.2ZM159.675 223.008H183.075V220.992H159.675V223.008ZM184 222.401L216.4 147.701L214.55 146.899L182.15 221.599L184 222.401ZM215.475 148.308H318.675V146.292H215.475V148.308ZM317.749 147.698L349.849 222.398L351.701 221.602L319.601 146.902L317.749 147.698ZM350.775 223.008H375.075V220.992H350.775V223.008ZM376.001 221.602L280.601 -0.0983486L278.749 0.698336L374.149 222.398L376.001 221.602ZM279.675 -0.707781H254.775V1.30777H279.675V-0.707781ZM253.849 -0.09729L158.749 221.603L160.601 222.397L255.701 0.697277L253.849 -0.09729ZM224.802 127.596L268.302 25.8963L266.448 25.1037L222.948 126.804L224.802 127.596ZM266.445 25.8893L309.046 127.589L310.905 126.811L268.305 25.1106L266.445 25.8893ZM309.975 126.192H223.875V128.208H309.975V126.192ZM486.145 139.2L486.039 138.198L484.274 138.384L485.339 139.805L486.145 139.2ZM519.745 11.7L520.251 10.8281L520.242 10.8231L520.233 10.8182L519.745 11.7ZM401.245 0.299994V-0.707781H400.238V0.299994H401.245ZM401.245 222H400.238V223.008H401.245V222ZM423.445 222V223.008H424.453V222H423.445ZM423.445 20.4V19.3922H422.438V20.4H423.445ZM505.645 28.5L506.081 27.5914L506.078 27.5897L505.645 28.5ZM496.945 117.3L497.222 118.269L497.231 118.266L496.945 117.3ZM445.945 121.5V120.492H443.941L445.137 122.101L445.945 121.5ZM520.645 222L519.836 222.601L520.139 223.008H520.645V222ZM548.245 222V223.008H550.261L549.052 221.395L548.245 222ZM486.251 140.202C507.71 137.935 524.31 130.819 535.546 119.162C546.791 107.496 552.553 91.3985 552.553 71.4H550.538C550.538 91.0015 544.9 106.554 534.095 117.763C523.281 128.981 507.181 135.965 486.039 138.198L486.251 140.202ZM552.553 71.4C552.553 44.0925 541.304 23.033 520.251 10.8281L519.24 12.5719C539.586 24.367 550.538 44.7075 550.538 71.4H552.553ZM520.233 10.8182C505.907 2.89327 486.5 -0.707781 456.145 -0.707781V1.30777C486.391 1.30777 505.383 4.90669 519.258 12.5818L520.233 10.8182ZM456.145 -0.707781H401.245V1.30777H456.145V-0.707781ZM400.238 0.299994V222H402.253V0.299994H400.238ZM401.245 223.008H423.445V220.992H401.245V223.008ZM424.453 222V20.4H422.438V222H424.453ZM423.445 21.4078H454.645V19.3922H423.445V21.4078ZM454.645 21.4078C477.999 21.4078 493.418 23.8075 505.213 29.4103L506.078 27.5897C493.873 21.7925 478.092 19.3922 454.645 19.3922V21.4078ZM505.209 29.4085C519.782 36.4033 528.038 50.9927 528.038 71.1H530.053C530.053 50.4073 521.509 34.9967 506.081 27.5915L505.209 29.4085ZM528.038 71.1C528.038 83.1036 525.371 92.8618 520.155 100.375C514.945 107.88 507.129 113.237 496.659 116.334L497.231 118.266C508.061 115.063 516.295 109.47 521.811 101.525C527.32 93.5882 530.053 83.3964 530.053 71.1H528.038ZM496.668 116.331C486.317 119.289 472.942 120.492 445.945 120.492V122.508C472.949 122.508 486.574 121.311 497.222 118.269L496.668 116.331ZM445.137 122.101L519.836 222.601L521.454 221.399L446.754 120.899L445.137 122.101ZM520.645 223.008H548.245V220.992H520.645V223.008ZM549.052 221.395L486.952 138.595L485.339 139.805L547.439 222.605L549.052 221.395ZM612.3 222H611.292V223.008H612.3V222ZM634.5 222V223.008H635.508V222H634.5ZM634.5 20.4V19.3922H633.492V20.4H634.5ZM685.2 20.4V21.4078H686.208V20.4H685.2ZM685.2 0.299994H686.208V-0.707781H685.2V0.299994ZM561.6 0.299994V-0.707781H560.592V0.299994H561.6ZM561.6 20.4H560.592V21.4078H561.6V20.4ZM612.3 20.4H613.308V19.3922H612.3V20.4ZM612.3 223.008H634.5V220.992H612.3V223.008ZM635.508 222V20.4H633.492V222H635.508ZM634.5 21.4078H685.2V19.3922H634.5V21.4078ZM686.208 20.4V0.299994H684.192V20.4H686.208ZM685.2 -0.707781H561.6V1.30777H685.2V-0.707781ZM560.592 0.299994V20.4H562.608V0.299994H560.592ZM561.6 21.4078H612.3V19.3922H561.6V21.4078ZM611.292 20.4V222H613.308V20.4H611.292ZM710.034 222H709.027V223.008H710.034V222ZM732.234 222V223.008H733.242V222H732.234ZM732.234 27L733.069 26.4351L731.227 23.7135V27H732.234ZM864.234 222L863.4 222.565L863.7 223.008H864.234V222ZM886.434 222V223.008H887.442V222H886.434ZM886.434 0.299994H887.442V-0.707781H886.434V0.299994ZM864.234 0.299994V-0.707781H863.227V0.299994H864.234ZM864.234 184.2L863.399 184.764L865.242 187.493V184.2H864.234ZM740.034 0.299994L740.87 -0.26404L740.57 -0.707781H740.034V0.299994ZM710.034 0.299994V-0.707781H709.027V0.299994H710.034ZM710.034 223.008H732.234V220.992H710.034V223.008ZM733.242 222V27H731.227V222H733.242ZM731.4 27.5649L863.4 222.565L865.069 221.435L733.069 26.4351L731.4 27.5649ZM864.234 223.008H886.434V220.992H864.234V223.008ZM887.442 222V0.299994H885.427V222H887.442ZM886.434 -0.707781H864.234V1.30777H886.434V-0.707781ZM863.227 0.299994V184.2H865.242V0.299994H863.227ZM865.07 183.636L740.87 -0.26404L739.199 0.864025L863.399 184.764L865.07 183.636ZM740.034 -0.707781H710.034V1.30777H740.034V-0.707781ZM709.027 0.299994V222H711.042V0.299994H709.027ZM932.105 222H931.097V223.008H932.105V222ZM1053.3 222V223.008H1054.31V222H1053.3ZM1053.3 201.9H1054.31V200.892H1053.3V201.9ZM954.305 201.9H953.297V202.908H954.305V201.9ZM954.305 120V118.992H953.297V120H954.305ZM1050 120V121.008H1051.01V120H1050ZM1050 99.9H1051.01V98.8922H1050V99.9ZM954.305 99.9H953.297V100.908H954.305V99.9ZM954.305 20.4V19.3922H953.297V20.4H954.305ZM1053.3 20.4V21.4078H1054.31V20.4H1053.3ZM1053.3 0.299994H1054.31V-0.707781H1053.3V0.299994ZM932.105 0.299994V-0.707781H931.097V0.299994H932.105ZM932.105 223.008H1053.3V220.992H932.105V223.008ZM1054.31 222V201.9H1052.3V222H1054.31ZM1053.3 200.892H954.305V202.908H1053.3V200.892ZM955.312 201.9V120H953.297V201.9H955.312ZM954.305 121.008H1050V118.992H954.305V121.008ZM1051.01 120V99.9H1049V120H1051.01ZM1050 98.8922H954.305V100.908H1050V98.8922ZM955.312 99.9V20.4H953.297V99.9H955.312ZM954.305 21.4078H1053.3V19.3922H954.305V21.4078ZM1054.31 20.4V0.299994H1052.3V20.4H1054.31ZM1053.3 -0.707781H932.105V1.30777H1053.3V-0.707781ZM931.097 0.299994V222H933.112V0.299994H931.097ZM1177.84 139.2L1177.74 138.198L1175.97 138.384L1177.04 139.805L1177.84 139.2ZM1211.44 11.7L1211.95 10.8281L1211.94 10.8231L1211.93 10.8182L1211.44 11.7ZM1092.94 0.299994V-0.707781H1091.94V0.299994H1092.94ZM1092.94 222H1091.94V223.008H1092.94V222ZM1115.14 222V223.008H1116.15V222H1115.14ZM1115.14 20.4V19.3922H1114.14V20.4H1115.14ZM1197.34 28.5L1197.78 27.5914L1197.78 27.5897L1197.34 28.5ZM1188.64 117.3L1188.92 118.269L1188.93 118.266L1188.64 117.3ZM1137.64 121.5V120.492H1135.64L1136.84 122.101L1137.64 121.5ZM1212.34 222L1211.54 222.601L1211.84 223.008H1212.34V222ZM1239.94 222V223.008H1241.96L1240.75 221.395L1239.94 222ZM1177.95 140.202C1199.41 137.935 1216.01 130.819 1227.25 119.162C1238.49 107.496 1244.25 91.3985 1244.25 71.4H1242.24C1242.24 91.0015 1236.6 106.554 1225.79 117.763C1214.98 128.981 1198.88 135.965 1177.74 138.198L1177.95 140.202ZM1244.25 71.4C1244.25 44.0925 1233 23.033 1211.95 10.8281L1210.94 12.5719C1231.29 24.367 1242.24 44.7075 1242.24 71.4H1244.25ZM1211.93 10.8182C1197.61 2.89327 1178.2 -0.707781 1147.84 -0.707781V1.30777C1178.09 1.30777 1197.08 4.90669 1210.96 12.5818L1211.93 10.8182ZM1147.84 -0.707781H1092.94V1.30777H1147.84V-0.707781ZM1091.94 0.299994V222H1093.95V0.299994H1091.94ZM1092.94 223.008H1115.14V220.992H1092.94V223.008ZM1116.15 222V20.4H1114.14V222H1116.15ZM1115.14 21.4078H1146.34V19.3922H1115.14V21.4078ZM1146.34 21.4078C1169.7 21.4078 1185.12 23.8075 1196.91 29.4103L1197.78 27.5897C1185.57 21.7925 1169.79 19.3922 1146.34 19.3922V21.4078ZM1196.91 29.4085C1211.48 36.4033 1219.74 50.9927 1219.74 71.1H1221.75C1221.75 50.4073 1213.21 34.9967 1197.78 27.5915L1196.91 29.4085ZM1219.74 71.1C1219.74 83.1036 1217.07 92.8618 1211.85 100.375C1206.64 107.88 1198.83 113.237 1188.36 116.334L1188.93 118.266C1199.76 115.063 1207.99 109.47 1213.51 101.525C1219.02 93.5882 1221.75 83.3964 1221.75 71.1H1219.74ZM1188.37 116.331C1178.02 119.289 1164.64 120.492 1137.64 120.492V122.508C1164.65 122.508 1178.27 121.311 1188.92 118.269L1188.37 116.331ZM1136.84 122.101L1211.54 222.601L1213.15 221.399L1138.45 120.899L1136.84 122.101ZM1212.34 223.008H1239.94V220.992H1212.34V223.008ZM1240.75 221.395L1178.65 138.595L1177.04 139.805L1239.14 222.605L1240.75 221.395ZM63.3 471L62.331 471.277L62.5397 472.008H63.3V471ZM92.1 471V472.008H92.8738L93.0736 471.26L92.1 471ZM140.7 289.2L141.673 288.937L140.694 285.32L139.726 288.94L140.7 289.2ZM189.9 471L188.927 471.263L189.129 472.008H189.9V471ZM218.4 471V472.008H219.159L219.369 471.278L218.4 471ZM282 249.3L282.969 249.578L283.338 248.292H282V249.3ZM259.2 249.3V248.292H258.438L258.23 249.026L259.2 249.3ZM204.6 442.2L203.628 442.467L204.586 445.948L205.57 442.474L204.6 442.2ZM151.5 249.3L152.472 249.033L152.268 248.292H151.5V249.3ZM130.5 249.3V248.292H129.732L129.528 249.033L130.5 249.3ZM77.4 442.2L76.4303 442.474L77.4135 445.948L78.3716 442.467L77.4 442.2ZM22.8 249.3L23.7697 249.026L23.5621 248.292H22.8V249.3ZM2.38419e-07 249.3V248.292H-1.33579L-0.969048 249.577L2.38419e-07 249.3ZM63.3 472.008H92.1V469.992H63.3V472.008ZM93.0736 471.26L141.674 289.46L139.726 288.94L91.1264 470.74L93.0736 471.26ZM139.727 289.463L188.927 471.263L190.873 470.737L141.673 288.937L139.727 289.463ZM189.9 472.008H218.4V469.992H189.9V472.008ZM219.369 471.278L282.969 249.578L281.031 249.022L217.431 470.722L219.369 471.278ZM282 248.292H259.2V250.308H282V248.292ZM258.23 249.026L203.63 441.926L205.57 442.474L260.17 249.574L258.23 249.026ZM205.572 441.933L152.472 249.033L150.528 249.567L203.628 442.467L205.572 441.933ZM151.5 248.292H130.5V250.308H151.5V248.292ZM129.528 249.033L76.4284 441.933L78.3716 442.467L131.472 249.567L129.528 249.033ZM78.3697 441.926L23.7697 249.026L21.8303 249.574L76.4303 442.474L78.3697 441.926ZM22.8 248.292H2.38419e-07V250.308H22.8V248.292ZM-0.969048 249.577L62.331 471.277L64.2691 470.723L0.969048 249.023L-0.969048 249.577ZM305.646 471H304.638V472.008H305.646V471ZM327.846 471V472.008H328.854V471H327.846ZM327.846 306.9H328.854V305.892H327.846V306.9ZM305.646 306.9V305.892H304.638V306.9H305.646ZM305.646 287.1H304.638V288.108H305.646V287.1ZM327.846 287.1V288.108H328.854V287.1H327.846ZM327.846 249.3H328.854V248.292H327.846V249.3ZM305.646 249.3V248.292H304.638V249.3H305.646ZM305.646 472.008H327.846V469.992H305.646V472.008ZM328.854 471V306.9H326.838V471H328.854ZM327.846 305.892H305.646V307.908H327.846V305.892ZM304.638 306.9V471H306.654V306.9H304.638ZM305.646 288.108H327.846V286.092H305.646V288.108ZM328.854 287.1V249.3H326.838V287.1H328.854ZM327.846 248.292H305.646V250.308H327.846V248.292ZM304.638 249.3V287.1H306.654V249.3H304.638ZM385.805 471H384.797V472.008H385.805V471ZM408.005 471V472.008H409.012V471H408.005ZM408.005 327V325.992H406.997V327H408.005ZM444.905 327V328.008H445.912V327H444.905ZM444.905 306.9H445.912V305.892H444.905V306.9ZM408.005 306.9H406.997V307.908H408.005V306.9ZM408.005 249.3H409.012V248.292H408.005V249.3ZM385.805 249.3V248.292H384.797V249.3H385.805ZM385.805 306.9V307.908H386.812V306.9H385.805ZM350.405 306.9V305.892H349.397V306.9H350.405ZM350.405 327H349.397V328.008H350.405V327ZM385.805 327H386.812V325.992H385.805V327ZM385.805 472.008H408.005V469.992H385.805V472.008ZM409.012 471V327H406.997V471H409.012ZM408.005 328.008H444.905V325.992H408.005V328.008ZM445.912 327V306.9H443.897V327H445.912ZM444.905 305.892H408.005V307.908H444.905V305.892ZM409.012 306.9V249.3H406.997V306.9H409.012ZM408.005 248.292H385.805V250.308H408.005V248.292ZM384.797 249.3V306.9H386.812V249.3H384.797ZM385.805 305.892H350.405V307.908H385.805V305.892ZM349.397 306.9V327H351.412V306.9H349.397ZM350.405 328.008H385.805V325.992H350.405V328.008ZM384.797 327V471H386.812V327H384.797ZM468.537 471H467.529V472.008H468.537V471ZM490.737 471V472.008H491.745V471H490.737ZM499.137 344.7L499.975 345.259L499.978 345.255L499.137 344.7ZM579.537 340.2L578.761 340.843L578.768 340.852L579.537 340.2ZM591.537 471H590.529V472.008H591.537V471ZM613.737 471V472.008H614.745V471H613.737ZM599.637 328.2L600.452 327.607L600.443 327.595L600.434 327.583L599.637 328.2ZM490.737 328.2H489.729V331.454L491.568 328.77L490.737 328.2ZM490.737 249.3H491.745V248.292H490.737V249.3ZM468.537 249.3V248.292H467.529V249.3H468.537ZM468.537 472.008H490.737V469.992H468.537V472.008ZM491.745 471V381H489.729V471H491.745ZM491.745 381C491.745 363.997 494.131 354.025 499.975 345.259L498.298 344.141C492.142 353.375 489.729 363.803 489.729 381H491.745ZM499.978 345.255C508.474 332.365 524.041 324.408 540.837 324.408V322.392C523.432 322.392 507.2 330.635 498.295 344.145L499.978 345.255ZM540.837 324.408C555.884 324.408 570.281 330.608 578.761 340.843L580.313 339.557C571.393 328.792 556.389 322.392 540.837 322.392V324.408ZM578.768 340.852C586.949 350.494 590.529 363.116 590.529 382.8H592.544C592.544 362.884 588.924 349.706 580.305 339.548L578.768 340.852ZM590.529 382.8V471H592.544V382.8H590.529ZM591.537 472.008H613.737V469.992H591.537V472.008ZM614.745 471V382.8H612.729V471H614.745ZM614.745 382.8C614.745 358.079 610.222 341.041 600.452 327.607L598.822 328.793C608.251 341.759 612.729 358.321 612.729 382.8H614.745ZM600.434 327.583C587.909 311.393 566.889 301.992 542.637 301.992V304.008C566.384 304.008 586.764 313.207 598.84 328.817L600.434 327.583ZM542.637 301.992C520.157 301.992 501.221 311.116 489.905 327.63L491.568 328.77C502.452 312.884 520.717 304.008 542.637 304.008V301.992ZM491.745 328.2V249.3H489.729V328.2H491.745ZM490.737 248.292H468.537V250.308H490.737V248.292ZM467.529 249.3V471H469.544V249.3H467.529ZM738.745 249.3V248.292H737.738V249.3H738.745ZM754.345 447.6L753.541 448.207L753.542 448.209L754.345 447.6ZM874.045 447.6L874.848 448.209L874.85 448.207L874.045 447.6ZM889.645 249.3H890.653V248.292H889.645V249.3ZM867.445 249.3V248.292H866.438V249.3H867.445ZM857.245 433.5L856.403 432.947L856.401 432.95L857.245 433.5ZM771.145 433.5L771.99 432.95L771.988 432.947L771.145 433.5ZM760.945 249.3H761.953V248.292H760.945V249.3ZM737.738 249.3V387.6H739.753V249.3H737.738ZM737.738 387.6C737.738 416.214 742.257 433.264 753.541 448.207L755.15 446.993C744.233 432.536 739.753 415.986 739.753 387.6H737.738ZM753.542 448.209C766.962 465.899 789.181 475.908 814.045 475.908V473.892C789.709 473.892 768.129 464.101 755.148 446.991L753.542 448.209ZM814.045 475.908C839.207 475.908 861.427 465.9 874.848 448.209L873.242 446.991C860.263 464.1 838.684 473.892 814.045 473.892V475.908ZM874.85 448.207C886.133 433.264 890.653 416.214 890.653 387.6H888.638C888.638 415.986 884.157 432.536 873.241 446.993L874.85 448.207ZM890.653 387.6V249.3H888.638V387.6H890.653ZM889.645 248.292H867.445V250.308H889.645V248.292ZM866.438 249.3V387.6H868.453V249.3H866.438ZM866.438 387.6C866.438 407.619 863.145 422.686 856.403 432.947L858.088 434.053C865.145 423.314 868.453 407.781 868.453 387.6H866.438ZM856.401 432.95C848.221 445.511 832.073 453.492 814.045 453.492V455.508C832.617 455.508 849.469 447.289 858.09 434.05L856.401 432.95ZM814.045 453.492C796.321 453.492 780.171 445.514 771.99 432.95L770.301 434.05C778.92 447.286 795.77 455.508 814.045 455.508V453.492ZM771.988 432.947C765.245 422.686 761.953 407.619 761.953 387.6H759.938C759.938 407.781 763.245 423.314 770.303 434.053L771.988 432.947ZM761.953 387.6V249.3H759.938V387.6H761.953ZM760.945 248.292H738.745V250.308H760.945V248.292ZM917.927 422.7V421.692H916.91L916.92 422.71L917.927 422.7ZM992.327 381.9L992.719 380.971L992.713 380.969L992.327 381.9ZM961.727 369L961.266 369.896L961.294 369.911L961.323 369.923L961.727 369ZM994.127 347.4L993.123 347.477L993.194 348.408H994.127V347.4ZM1016.63 347.4V348.408H1017.67L1017.63 347.366L1016.63 347.4ZM936.227 378.6L935.543 379.339L935.548 379.344L936.227 378.6ZM966.527 394.5L966.141 395.431L966.147 395.433L966.527 394.5ZM939.827 422.7L940.833 422.641L940.778 421.692H939.827V422.7ZM916.92 422.71C917.072 438.83 922.4 452.15 931.807 461.442C941.213 470.733 954.608 475.908 970.727 475.908V473.892C955.047 473.892 942.192 468.867 933.223 460.008C924.255 451.15 919.083 438.37 918.935 422.69L916.92 422.71ZM970.727 475.908C985.823 475.908 998.616 470.566 1007.63 461.355C1016.65 452.146 1021.84 439.133 1021.84 423.9H1019.82C1019.82 438.667 1014.8 451.154 1006.19 459.945C997.589 468.734 985.332 473.892 970.727 473.892V475.908ZM1021.84 423.9C1021.84 413.69 1019.47 405.008 1014.61 397.835C1009.75 390.664 1002.46 385.079 992.719 380.971L991.936 382.829C1001.4 386.821 1008.35 392.186 1012.94 398.965C1017.53 405.742 1019.82 414.01 1019.82 423.9H1021.84ZM992.713 380.969C968.118 370.771 966.924 370.173 962.131 368.077L961.323 369.923C966.131 372.027 967.337 372.629 991.941 382.831L992.713 380.969ZM962.188 368.104C957.033 365.452 953.356 362.473 950.966 359.048C948.586 355.637 947.435 351.719 947.435 347.1H945.42C945.42 352.081 946.669 356.413 949.313 360.202C951.948 363.977 955.922 367.148 961.266 369.896L962.188 368.104ZM947.435 347.1C947.435 334.457 957.484 324.408 970.127 324.408V322.392C956.371 322.392 945.42 333.343 945.42 347.1H947.435ZM970.127 324.408C977.126 324.408 982.546 326.444 986.365 330.263C990.194 334.092 992.535 339.835 993.123 347.477L995.132 347.323C994.52 339.365 992.061 333.108 987.79 328.837C983.509 324.556 977.528 322.392 970.127 322.392V324.408ZM994.127 348.408H1016.63V346.392H994.127V348.408ZM1017.63 347.366C1017.18 333.927 1012.13 322.57 1003.79 314.572C995.444 306.576 983.862 301.992 970.427 301.992V304.008C983.393 304.008 994.46 308.424 1002.39 316.028C1010.32 323.63 1015.18 334.473 1015.62 347.434L1017.63 347.366ZM970.427 301.992C942.875 301.992 922.92 321.939 922.92 349.2H924.935C924.935 323.061 943.98 304.008 970.427 304.008V301.992ZM922.92 349.2C922.92 361.459 927.221 371.635 935.543 379.339L936.912 377.861C929.033 370.565 924.935 360.941 924.935 349.2H922.92ZM935.548 379.344C939.014 382.509 940.893 384.157 944.838 386.207C948.712 388.22 954.619 390.642 966.141 395.431L966.914 393.569C955.336 388.758 949.543 386.38 945.767 384.418C942.062 382.493 940.34 380.991 936.907 377.856L935.548 379.344ZM966.147 395.433C979.058 400.688 986.828 404.75 991.393 409.278C995.864 413.714 997.32 418.664 997.32 426H999.335C999.335 418.336 997.791 412.786 992.812 407.847C987.927 403 979.796 398.812 966.907 393.567L966.147 395.433ZM997.32 426C997.32 441.98 986.335 453.492 970.727 453.492V455.508C987.519 455.508 999.335 443.02 999.335 426H997.32ZM970.727 453.492C961.64 453.492 954.498 450.714 949.475 445.548C944.441 440.37 941.424 432.677 940.833 422.641L938.821 422.759C939.431 433.123 942.564 441.33 948.03 446.952C953.507 452.586 961.214 455.508 970.727 455.508V453.492ZM939.827 421.692H917.927V423.708H939.827V421.692ZM1062.14 471H1061.13V472.008H1062.14V471ZM1084.34 471V472.008H1085.34V471H1084.34ZM1084.34 433.2H1085.34V432.192H1084.34V433.2ZM1062.14 433.2V432.192H1061.13V433.2H1062.14ZM1062.14 411.9H1061.13V412.908H1062.14V411.9ZM1084.34 411.9V412.908H1085.34V411.9H1084.34ZM1084.34 249.3H1085.34V248.292H1084.34V249.3ZM1062.14 249.3V248.292H1061.13V249.3H1062.14ZM1062.14 472.008H1084.34V469.992H1062.14V472.008ZM1085.34 471V433.2H1083.33V471H1085.34ZM1084.34 432.192H1062.14V434.208H1084.34V432.192ZM1061.13 433.2V471H1063.14V433.2H1061.13ZM1062.14 412.908H1084.34V410.892H1062.14V412.908ZM1085.34 411.9V249.3H1083.33V411.9H1085.34ZM1084.34 248.292H1062.14V250.308H1084.34V248.292ZM1061.13 249.3V411.9H1063.14V249.3H1061.13Z" fill="#1B3459"/>
</svg>
