<svg width="334" height="334" viewBox="0 0 334 334" fill="none" xmlns="http://www.w3.org/2000/svg">
<g clip-path="url(#clip0_214_3148)">
<path d="M278.425 114.677L279.955 118.211C280.817 120.149 281.021 121.217 280.854 122.325C280.616 123.809 279.552 125.025 277.98 125.737C276.256 126.478 274.49 126.342 273.237 125.412C272.462 124.832 271.914 123.957 271.053 122.018L270.683 121.156L265.253 123.524L264.093 120.852L278.425 114.677ZM273.549 120.845C273.871 121.621 274.207 122.221 274.533 122.601C275.07 123.258 275.915 123.46 276.735 123.113C277.64 122.718 278.109 121.949 278.025 121.095C277.937 120.637 277.807 120.204 277.436 119.341L277.041 118.437L273.226 120.068L273.549 120.845Z" fill="white"/>
<path d="M283.448 126.952L284.326 129.725L272.109 133.645L273.576 138.172L270.955 139.022L268.609 131.721L283.448 126.952Z" fill="white"/>
<path d="M287.7 142.475L288.157 144.696L274.133 154.133L273.5 150.996L277.146 148.559L276.033 143.158L271.745 142.239L271.113 139.102L287.7 142.475ZM279.62 146.947L283.943 144.411L278.983 143.7L279.62 146.947Z" fill="white"/>
<path d="M279.861 156.215L289.232 150.23L289.511 153.34L282.666 157.402L290.1 160.217L290.379 163.327L280.148 159.038L274.411 159.551L274.142 156.661L279.861 156.215Z" fill="white"/>
<path d="M287.304 174.116L287.498 171.248L290.257 171.447L289.655 180.118L286.897 179.919L287.091 177.051L274.273 176.183L274.467 173.315L287.304 174.116Z" fill="white"/>
<path d="M289.375 183.034L288.894 185.894L282.707 184.801L281.736 190.3L287.923 191.393L287.442 194.253L272.075 191.549L272.555 188.689L278.986 189.815L279.957 184.315L273.527 183.189L274.007 180.33L289.375 183.034Z" fill="white"/>
<path d="M286.299 198.441L283.929 206.47L281.298 205.693L282.852 200.429L279.327 199.364L277.829 204.427L275.197 203.65L276.695 198.587L273.195 197.565L271.64 202.828L269.008 202.051L271.378 194.022L286.299 198.441Z" fill="white"/>
<path d="M280.799 215.151L279.454 217.875L266.916 216.401L275.7 225.442L274.355 228.166L263.04 215.814L264.105 213.697L280.799 215.151Z" fill="white"/>
<path d="M272.832 230.371L271.343 232.839L258.026 224.65L259.514 222.182L272.832 230.371Z" fill="white"/>
<path d="M269.157 236.372L266.983 239.224C265.431 241.276 263.995 242.532 262.589 243.038C260.298 243.872 257.657 243.381 255.375 241.62C252.777 239.697 251.636 236.958 252.17 234.294C252.48 232.938 253.105 231.743 254.491 229.896L256.684 226.978L269.157 236.372ZM256.787 231.481C255.752 232.85 255.189 233.954 255.059 234.927C254.826 236.522 255.653 238.198 257.136 239.337C258.777 240.557 260.682 240.841 262.206 240.043C263.087 239.606 263.781 238.935 264.834 237.5L265.186 237.022L257.114 230.96L256.787 231.481Z" fill="white"/>
<path d="M259.158 249.072L253.375 255.129L251.392 253.2L255.184 249.216L252.513 246.659L248.887 250.437L246.904 248.508L250.53 244.73L247.882 242.216L244.09 246.2L242.108 244.27L247.891 238.213L259.158 249.072Z" fill="white"/>
<path d="M233.348 261.793C230.496 258.211 231.012 253.305 234.527 250.434C238.108 247.582 243.167 248.068 245.971 251.564C248.824 255.146 248.222 260.1 244.579 263.043C241.192 265.842 236.152 265.289 233.348 261.793ZM243.75 253.428C241.881 251.098 238.631 250.724 236.3 252.593C234.012 254.439 233.676 257.555 235.569 259.929C237.463 262.302 240.646 262.657 243.02 260.764C245.289 258.985 245.596 255.716 243.75 253.428Z" fill="white"/>
<path d="M166.682 289.926L162.802 289.736C160.665 289.639 159.619 289.38 158.753 288.739C157.523 287.852 156.883 286.409 156.953 284.624C157.041 282.773 157.956 281.19 159.308 280.489C160.189 280.051 161.196 279.938 163.29 280.059L164.216 280.103L164.485 274.152L167.372 274.28L166.682 289.926ZM163.292 282.873C162.433 282.848 161.774 282.879 161.274 282.991C160.425 283.185 159.908 283.869 159.84 284.752C159.777 285.744 160.252 286.492 161.078 286.76C161.546 286.892 161.966 286.938 162.892 286.982L163.861 287.003L164.06 282.837L163.292 282.873Z" fill="white"/>
<path d="M153.425 289.079L150.547 288.665L152.388 275.977L147.672 275.298L148.048 272.554L155.642 273.646L153.425 289.079Z" fill="white"/>
<path d="M137.627 286.11L135.445 285.531L133.092 268.775L136.186 269.574L136.765 273.923L142.133 275.363L144.83 271.937L147.925 272.736L137.627 286.11ZM137.168 276.851L137.559 281.869L140.353 277.712L137.168 276.851Z" fill="white"/>
<path d="M128.718 273.028L129.986 284.029L127.053 282.914L126.369 274.964L120.603 280.448L117.669 279.333L125.985 271.969L128.04 266.594L130.749 267.61L128.718 273.028Z" fill="white"/>
<path d="M109.335 271.899L111.845 273.364L110.485 275.759L102.935 271.432L104.296 269.037L106.806 270.501L113.185 259.38L115.696 260.845L109.335 271.899Z" fill="white"/>
<path d="M100.444 269.9L98.1 268.23L101.773 263.13L97.2431 259.87L93.5697 264.969L91.2257 263.299L100.433 250.593L102.777 252.263L98.9376 257.569L103.468 260.829L107.307 255.524L109.651 257.194L100.444 269.9Z" fill="white"/>
<path d="M87.8988 260.378L81.7373 254.709L83.6187 252.641L87.6641 256.342L90.1538 253.652L86.2902 250.074L88.1717 248.006L92.0352 251.584L94.4822 248.917L90.4368 245.216L92.3182 243.148L98.4797 248.816L87.8988 260.378Z" fill="white"/>
<path d="M75.3098 248.064L73.4592 245.667L80.3035 235.073L68.3293 239.026L66.4787 236.628L82.5051 231.868L83.9578 233.757L75.3098 248.064Z" fill="white"/>
<path d="M65.0909 234.252L63.5454 231.796L76.7196 223.455L78.2651 225.911L65.0909 234.252Z" fill="white"/>
<path d="M61.3379 228.36L59.7133 225.161C58.5502 222.884 58.066 221.016 58.194 219.537C58.4519 217.083 60.023 214.964 62.599 213.633C65.475 212.133 68.4527 212.323 70.6201 213.979C71.7159 214.829 72.5168 215.957 73.6028 217.995L75.2514 221.237L61.3379 228.36ZM71.1605 219.364C70.3628 217.84 69.6338 216.841 68.8159 216.286C67.5196 215.379 65.6065 215.382 63.9543 216.252C62.1067 217.175 61.0394 218.786 61.0983 220.499C61.145 221.486 61.4299 222.396 62.2516 223.963L62.5398 224.477L71.5155 219.897L71.1605 219.364Z" fill="white"/>
<path d="M54.2936 213.784L51.3488 205.918L53.9644 204.959L55.8778 210.08L59.3126 208.774L57.4525 203.848L60.068 202.889L61.9282 207.815L65.3202 206.533L63.4068 201.412L66.0224 200.453L68.9671 208.318L54.2936 213.784Z" fill="white"/>
<path d="M54.099 185.007C58.5368 183.983 62.7737 186.62 63.7971 191.057C64.8445 195.538 62.1891 199.842 57.7513 200.865C53.3136 201.889 49.0715 199.142 48 194.619C47.0486 190.31 49.7709 186.025 54.099 185.007ZM57.068 198.039C59.9614 197.374 61.7208 194.586 61.0563 191.693C60.3917 188.799 57.7186 187.144 54.7823 187.833C51.7792 188.503 50.0815 191.2 50.7941 194.179C51.4106 196.987 54.2174 198.679 57.068 198.039Z" fill="white"/>
<path d="M90.5462 72.12L93.6481 69.8183C95.3464 68.5285 96.3371 68.0859 97.4101 67.9911C98.9221 67.8757 100.342 68.6003 101.421 70.0227C102.547 71.5308 102.85 73.2758 102.192 74.7143C101.795 75.6127 101.125 76.3261 99.4024 77.573L98.6363 78.115L102.204 82.8724L99.9108 84.6081L90.5462 72.12ZM97.6719 75.3897C98.3522 74.8958 98.88 74.431 99.1456 74.0006C99.663 73.3164 99.6455 72.4816 99.1276 71.7584C98.5187 70.9735 97.6683 70.6618 96.849 71.0084C96.4394 71.1817 96.0538 71.3979 95.3117 71.9827L94.5269 72.5916L97.0155 75.9265L97.6719 75.3897Z" fill="white"/>
<path d="M101.351 64.3742L103.831 62.8716L110.485 73.8384L114.569 71.3803L116 73.7317L109.436 77.6925L101.351 64.3742Z" fill="white"/>
<path d="M115.41 56.6062L117.477 55.6728L129.958 67.09L127.053 68.4368L123.855 65.4433L118.797 67.7715L118.895 72.1651L115.989 73.5119L115.41 56.6062ZM121.648 63.4145L118.156 59.7971L118.633 64.7665L121.648 63.4145Z" fill="white"/>
<path d="M130.593 60.9907L122.621 53.2968L125.608 52.298L131.178 58.0162L132.146 50.0977L135.133 49.0989L133.409 60.0879L135.229 65.5436L132.479 66.4652L130.593 60.9907Z" fill="white"/>
<path d="M146.261 49.5629L143.424 50.0269L142.965 47.2997L151.494 45.8409L151.953 48.5681L149.116 49.0321L151.254 61.6858L148.417 62.1498L146.261 49.5629Z" fill="white"/>
<path d="M154.422 45.4382L157.317 45.2794L157.68 51.5517L163.227 51.2015L162.865 44.9292L165.76 44.7704L166.716 60.3388L163.82 60.4976L163.423 53.9631L157.876 54.3132L158.273 60.8478L155.378 61.0066L154.422 45.4382Z" fill="white"/>
<path d="M170.116 44.807L178.471 45.2477L178.338 48.0248L172.87 47.7115L172.669 51.3715L177.894 51.6523L177.762 54.4295L172.536 54.1487L172.312 57.7658L177.78 58.0791L177.648 60.8562L169.292 60.4155L170.116 44.807Z" fill="white"/>
<path d="M187.669 46.2864L190.624 46.9384L192.117 59.4466L198.828 48.8157L201.783 49.4677L192.456 63.367L190.145 62.8605L187.669 46.2864Z" fill="white"/>
<path d="M204.358 50.445L207.105 51.3268L202.266 66.2015L199.519 65.3197L204.358 50.445Z" fill="white"/>
<path d="M211.036 52.6141L214.314 54.0425C216.67 55.0307 218.22 56.189 219.069 57.4023C220.441 59.4486 220.566 62.0816 219.417 64.7529C218.149 67.7156 215.771 69.4993 213.004 69.5861C211.62 69.6295 210.307 69.2957 208.152 68.364L204.807 66.9168L211.036 52.6141ZM209.13 65.7889C210.702 66.4842 211.924 66.7563 212.888 66.6668C214.485 66.5033 215.927 65.3576 216.679 63.5848C217.492 61.7211 217.289 59.7515 216.173 58.4629C215.521 57.702 214.727 57.1897 213.045 56.4995L212.529 56.282L208.547 65.5525L209.13 65.7889Z" fill="white"/>
<path d="M225.694 59.376L232.952 63.5851L231.592 65.9804L226.844 63.2361L225.014 66.4013L229.58 69.0223L228.22 71.4176L223.654 68.7966L221.824 71.9618L226.572 74.7062L225.212 77.1015L217.954 72.8924L225.694 59.376Z" fill="white"/>
<path d="M244.173 81.396C241.42 85.0227 236.437 85.6761 232.853 82.8987C229.202 80.1024 228.525 75.0765 231.26 71.5167C234.013 67.89 239.02 67.2795 242.762 70.1374C246.255 72.8531 246.865 77.8602 244.173 81.396ZM233.585 73.254C231.762 75.6273 232.18 78.8842 234.529 80.6643C236.878 82.4445 239.982 82.0559 241.824 79.6158C243.666 77.1757 243.296 74.0045 240.88 72.2055C238.622 70.487 235.389 70.9477 233.585 73.254Z" fill="white"/>
</g>
<defs>
<clipPath id="clip0_214_3148">
<rect width="243.627" height="244.954" fill="white" transform="translate(214.59 0.790039) rotate(60.7288)"/>
</clipPath>
</defs>
</svg>
