<svg width="1467" height="475" viewBox="0 0 1467 475" fill="none" xmlns="http://www.w3.org/2000/svg">
<path opacity="0.6" d="M1.8 226H0.792229V227.008H1.8V226ZM24 226V227.008H25.0078V226H24ZM24 136.3V135.292H22.9922V136.3H24ZM126.3 122.5L125.706 121.686L125.704 121.687L126.3 122.5ZM122.1 16L121.576 16.8608L121.582 16.8646L121.588 16.8682L122.1 16ZM1.8 4.29999V3.29222H0.792229V4.29999H1.8ZM24 116.2H22.9922V117.208H24V116.2ZM24 24.4V23.3922H22.9922V24.4H24ZM101.1 29.2L100.781 30.1561L100.792 30.1596L101.1 29.2ZM107.7 108.7L107.222 107.813L107.208 107.82L107.194 107.828L107.7 108.7ZM1.8 227.008H24V224.992H1.8V227.008ZM25.0078 226V136.3H22.9922V226H25.0078ZM24 137.308H66.6V135.292H24V137.308ZM66.6 137.308C96.6747 137.308 113.137 133.403 126.896 123.313L125.704 121.687C112.463 131.397 96.5253 135.292 66.6 135.292V137.308ZM126.894 123.314C141.625 112.573 149.508 93.9232 149.508 71.5H147.492C147.492 93.4768 139.775 111.427 125.706 121.686L126.894 123.314ZM149.508 71.5C149.508 45.7663 139.812 25.2677 122.612 15.1317L121.588 16.8682C137.988 26.5322 147.492 46.2337 147.492 71.5H149.508ZM122.624 15.1391C108.586 6.59423 91.5605 3.29222 63 3.29222V5.30777C91.4395 5.30777 108.014 8.60575 121.576 16.8608L122.624 15.1391ZM63 3.29222H1.8V5.30777H63V3.29222ZM0.792229 4.29999V226H2.80778V4.29999H0.792229ZM25.0078 116.2V24.4H22.9922V116.2H25.0078ZM24 25.4078H55.5V23.3922H24V25.4078ZM55.5 25.4078C77.3796 25.4078 91.0432 26.91 100.781 30.1561L101.419 28.2439C91.3568 24.89 77.4204 23.3922 55.5 23.3922V25.4078ZM100.792 30.1596C116.133 35.0804 124.992 49.8681 124.992 71.2H127.008C127.008 49.3319 117.867 33.5196 101.408 28.2404L100.792 30.1596ZM124.992 71.2C124.992 88.3743 118.485 101.748 107.222 107.813L108.178 109.587C120.315 103.052 127.008 88.8256 127.008 71.2H124.992ZM107.194 107.828C98.1391 113.086 85.4715 115.192 65.1 115.192V117.208C85.5285 117.208 98.6609 115.114 108.206 109.572L107.194 107.828ZM65.1 115.192H24V117.208H65.1V115.192ZM264.239 143.2L264.133 142.198L262.368 142.384L263.433 143.805L264.239 143.2ZM297.839 15.7L298.344 14.8281L298.336 14.8231L298.327 14.8182L297.839 15.7ZM179.339 4.29999V3.29222H178.331V4.29999H179.339ZM179.339 226H178.331V227.008H179.339V226ZM201.539 226V227.008H202.547V226H201.539ZM201.539 24.4V23.3922H200.531V24.4H201.539ZM283.739 32.5L284.175 31.5914L284.171 31.5897L283.739 32.5ZM275.039 121.3L275.316 122.269L275.325 122.266L275.039 121.3ZM224.039 125.5V124.492H222.034L223.23 126.101L224.039 125.5ZM298.739 226L297.93 226.601L298.232 227.008H298.739V226ZM326.339 226V227.008H328.355L327.145 225.395L326.339 226ZM264.345 144.202C285.804 141.935 302.403 134.819 313.64 123.162C324.885 111.496 330.647 95.3985 330.647 75.4H328.631C328.631 95.0015 322.993 110.554 312.189 121.763C301.375 132.981 285.274 139.965 264.133 142.198L264.345 144.202ZM330.647 75.4C330.647 48.0925 319.398 27.033 298.344 14.8281L297.334 16.5719C317.68 28.367 328.631 48.7075 328.631 75.4H330.647ZM298.327 14.8182C284.001 6.89327 264.593 3.29222 234.239 3.29222V5.30777C264.485 5.30777 283.477 8.90669 297.351 16.5818L298.327 14.8182ZM234.239 3.29222H179.339V5.30777H234.239V3.29222ZM178.331 4.29999V226H180.347V4.29999H178.331ZM179.339 227.008H201.539V224.992H179.339V227.008ZM202.547 226V24.4H200.531V226H202.547ZM201.539 25.4078H232.739V23.3922H201.539V25.4078ZM232.739 25.4078C256.092 25.4078 271.511 27.8075 283.307 33.4103L284.171 31.5897C271.967 25.7925 256.186 23.3922 232.739 23.3922V25.4078ZM283.303 33.4085C297.875 40.4033 306.131 54.9927 306.131 75.1H308.147C308.147 54.4073 299.603 38.9967 284.175 31.5915L283.303 33.4085ZM306.131 75.1C306.131 87.1036 303.464 96.8618 298.249 104.375C293.039 111.88 285.223 117.237 274.753 120.334L275.325 122.266C286.155 119.063 294.389 113.47 299.904 105.525C305.414 97.5882 308.147 87.3964 308.147 75.1H306.131ZM274.762 120.331C264.41 123.289 251.036 124.492 224.039 124.492V126.508C251.042 126.508 264.668 125.311 275.316 122.269L274.762 120.331ZM223.23 126.101L297.93 226.601L299.548 225.399L224.848 124.899L223.23 126.101ZM298.739 227.008H326.339V224.992H298.739V227.008ZM327.145 225.395L265.045 142.595L263.433 143.805L325.533 226.605L327.145 225.395ZM361.566 226H360.558V227.008H361.566V226ZM482.766 226V227.008H483.773V226H482.766ZM482.766 205.9H483.773V204.892H482.766V205.9ZM383.766 205.9H382.758V206.908H383.766V205.9ZM383.766 124V122.992H382.758V124H383.766ZM479.466 124V125.008H480.473V124H479.466ZM479.466 103.9H480.473V102.892H479.466V103.9ZM383.766 103.9H382.758V104.908H383.766V103.9ZM383.766 24.4V23.3922H382.758V24.4H383.766ZM482.766 24.4V25.4078H483.773V24.4H482.766ZM482.766 4.29999H483.773V3.29222H482.766V4.29999ZM361.566 4.29999V3.29222H360.558V4.29999H361.566ZM361.566 227.008H482.766V224.992H361.566V227.008ZM483.773 226V205.9H481.758V226H483.773ZM482.766 204.892H383.766V206.908H482.766V204.892ZM384.773 205.9V124H382.758V205.9H384.773ZM383.766 125.008H479.466V122.992H383.766V125.008ZM480.473 124V103.9H478.458V124H480.473ZM479.466 102.892H383.766V104.908H479.466V102.892ZM384.773 103.9V24.4H382.758V103.9H384.773ZM383.766 25.4078H482.766V23.3922H383.766V25.4078ZM483.773 24.4V4.29999H481.758V24.4H483.773ZM482.766 3.29222H361.566V5.30777H482.766V3.29222ZM360.558 4.29999V226H362.573V4.29999H360.558ZM506.205 163.9V162.892H505.143L505.199 163.953L506.205 163.9ZM620.505 116.8L621.116 115.998L621.102 115.988L621.089 115.978L620.505 116.8ZM579.105 99.1L579.397 98.1354L579.394 98.1343L579.105 99.1ZM546.405 85.3L545.729 86.0473L545.741 86.0578L545.753 86.0679L546.405 85.3ZM613.905 60.4L612.9 60.4629L612.959 61.4078H613.905V60.4ZM637.005 60.4V61.4078H638.039L638.013 60.3748L637.005 60.4ZM529.005 99.4L529.706 98.6749L529.695 98.6655L529.005 99.4ZM570.405 119.2L570.107 120.162L570.114 120.165L570.122 120.167L570.405 119.2ZM604.905 133.6L605.494 132.782L605.483 132.774L605.472 132.767L604.905 133.6ZM541.005 193.9L541.785 193.262L541.78 193.255L541.775 193.249L541.005 193.9ZM529.905 163.9L530.908 163.793L530.812 162.892H529.905V163.9ZM505.199 163.953C506.261 184.125 513.7 200.879 525.985 212.592C538.271 224.305 555.33 230.908 575.505 230.908V228.892C555.781 228.892 539.24 222.445 527.376 211.133C515.511 199.821 508.25 183.575 507.212 163.847L505.199 163.953ZM575.505 230.908C614.444 230.908 643.413 202.575 643.413 164.2H641.398C641.398 201.425 613.367 228.892 575.505 228.892V230.908ZM643.413 164.2C643.413 144.426 635.197 126.712 621.116 115.998L619.895 117.602C633.414 127.888 641.398 144.974 641.398 164.2H643.413ZM621.089 115.978C611.655 109.283 602.23 105.045 579.397 98.1354L578.814 100.065C601.581 106.955 610.756 111.117 619.922 117.622L621.089 115.978ZM579.394 98.1343C559.265 92.1259 552.872 89.4741 547.058 84.5321L545.753 86.0679C551.939 91.3259 558.746 94.0741 578.817 100.066L579.394 98.1343ZM547.082 84.5527C541.021 79.0696 536.913 69.4562 536.913 59.5H534.898C534.898 69.9438 539.19 80.1303 545.729 86.0473L547.082 84.5527ZM536.913 59.5C536.913 37.5513 552.667 21.8078 574.305 21.8078V19.7922C551.544 19.7922 534.898 36.4486 534.898 59.5H536.913ZM574.305 21.8078C585.312 21.8078 594.573 25.6181 601.268 32.3126C607.967 39.0121 612.162 48.6671 612.9 60.4629L614.911 60.3371C614.148 48.1329 609.794 37.9879 602.693 30.8874C595.588 23.7819 585.798 19.7922 574.305 19.7922V21.8078ZM613.905 61.4078H637.005V59.3922H613.905V61.4078ZM638.013 60.3748C637.557 42.142 631.018 26.8798 619.93 16.175C608.844 5.47102 593.282 -0.607784 574.905 -0.607784V1.40776C592.829 1.40776 607.867 7.32896 618.53 17.625C629.193 27.9202 635.554 42.6579 635.998 60.4252L638.013 60.3748ZM574.905 -0.607784C538.679 -0.607784 512.398 24.7138 512.398 60.1H514.413C514.413 25.8862 539.732 1.40776 574.905 1.40776V-0.607784ZM512.398 60.1C512.398 75.6287 518.179 90.6126 528.315 100.135L529.695 98.6655C520.032 89.5874 514.413 75.1713 514.413 60.1H512.398ZM528.305 100.125C532.717 104.385 536.629 107.378 542.743 110.321C548.818 113.244 557.059 116.113 570.107 120.162L570.704 118.238C557.652 114.187 549.542 111.356 543.617 108.504C537.732 105.672 533.994 102.815 529.705 98.675L528.305 100.125ZM570.122 120.167C587.483 125.256 596.967 129.42 604.339 134.433L605.472 132.767C597.844 127.58 588.128 123.344 570.689 118.233L570.122 120.167ZM604.317 134.418C613.615 141.101 618.898 152.174 618.898 165.4H620.913C620.913 151.626 615.396 139.899 605.494 132.782L604.317 134.418ZM618.898 165.4C618.898 190.353 601.04 208.492 576.105 208.492V210.508C602.171 210.508 620.913 191.447 620.913 165.4H618.898ZM576.105 208.492C562.566 208.492 549.669 202.898 541.785 193.262L540.226 194.538C548.542 204.702 562.045 210.508 576.105 210.508V208.492ZM541.775 193.249C535.347 185.652 532.394 177.768 530.908 163.793L528.903 164.007C530.417 178.232 533.464 186.548 540.236 194.551L541.775 193.249ZM529.905 162.892H506.205V164.908H529.905V162.892ZM655.62 163.9V162.892H654.557L654.613 163.953L655.62 163.9ZM769.92 116.8L770.53 115.998L770.516 115.988L770.503 115.978L769.92 116.8ZM728.52 99.1L728.811 98.1354L728.808 98.1343L728.52 99.1ZM695.82 85.3L695.143 86.0473L695.155 86.0578L695.167 86.0679L695.82 85.3ZM763.32 60.4L762.314 60.4629L762.373 61.4078H763.32V60.4ZM786.42 60.4V61.4078H787.453L787.427 60.3748L786.42 60.4ZM678.42 99.4L679.12 98.6749L679.11 98.6655L678.42 99.4ZM719.82 119.2L719.521 120.162L719.528 120.165L719.536 120.167L719.82 119.2ZM754.32 133.6L754.908 132.782L754.897 132.774L754.886 132.767L754.32 133.6ZM690.42 193.9L691.2 193.262L691.194 193.255L691.189 193.249L690.42 193.9ZM679.32 163.9L680.322 163.793L680.226 162.892H679.32V163.9ZM654.613 163.953C655.675 184.125 663.114 200.879 675.399 212.592C687.685 224.305 704.744 230.908 724.92 230.908V228.892C705.195 228.892 688.654 222.445 676.79 211.133C664.925 199.821 657.664 183.575 656.626 163.847L654.613 163.953ZM724.92 230.908C763.858 230.908 792.827 202.575 792.827 164.2H790.812C790.812 201.425 762.781 228.892 724.92 228.892V230.908ZM792.827 164.2C792.827 144.426 784.611 126.712 770.53 115.998L769.309 117.602C782.828 127.888 790.812 144.974 790.812 164.2H792.827ZM770.503 115.978C761.069 109.283 751.644 105.045 728.811 98.1354L728.228 100.065C750.995 106.955 760.17 111.117 769.336 117.622L770.503 115.978ZM728.808 98.1343C708.679 92.1259 702.286 89.4741 696.472 84.5321L695.167 86.0679C701.353 91.3259 708.16 94.0741 728.231 100.066L728.808 98.1343ZM696.496 84.5527C690.435 79.0696 686.327 69.4562 686.327 59.5H684.312C684.312 69.9438 688.604 80.1303 695.143 86.0473L696.496 84.5527ZM686.327 59.5C686.327 37.5513 702.081 21.8078 723.72 21.8078V19.7922C700.958 19.7922 684.312 36.4486 684.312 59.5H686.327ZM723.72 21.8078C734.727 21.8078 743.987 25.6181 750.682 32.3126C757.381 39.0121 761.576 48.6671 762.314 60.4629L764.325 60.3371C763.563 48.1329 759.208 37.9879 752.107 30.8874C745.002 23.7819 735.213 19.7922 723.72 19.7922V21.8078ZM763.32 61.4078H786.42V59.3922H763.32V61.4078ZM787.427 60.3748C786.971 42.142 780.432 26.8798 769.345 16.175C758.258 5.47102 742.696 -0.607784 724.32 -0.607784V1.40776C742.243 1.40776 757.281 7.32896 767.945 17.625C778.607 27.9202 784.968 42.6579 785.412 60.4252L787.427 60.3748ZM724.32 -0.607784C688.093 -0.607784 661.812 24.7138 661.812 60.1H663.827C663.827 25.8862 689.146 1.40776 724.32 1.40776V-0.607784ZM661.812 60.1C661.812 75.6287 667.593 90.6126 677.73 100.135L679.11 98.6655C669.446 89.5874 663.827 75.1713 663.827 60.1H661.812ZM677.72 100.125C682.131 104.385 686.043 107.378 692.158 110.321C698.233 113.244 706.473 116.113 719.521 120.162L720.118 118.238C707.066 114.187 698.957 111.356 693.032 108.504C687.146 105.672 683.408 102.815 679.12 98.675L677.72 100.125ZM719.536 120.167C736.897 125.256 746.381 129.42 753.753 134.433L754.886 132.767C747.258 127.58 737.542 123.344 720.103 118.233L719.536 120.167ZM753.731 134.418C763.029 141.101 768.312 152.174 768.312 165.4H770.327C770.327 151.626 764.81 139.899 754.908 132.782L753.731 134.418ZM768.312 165.4C768.312 190.353 750.454 208.492 725.52 208.492V210.508C751.585 210.508 770.327 191.447 770.327 165.4H768.312ZM725.52 208.492C711.98 208.492 699.083 202.898 691.2 193.262L689.64 194.538C697.956 204.702 711.459 210.508 725.52 210.508V208.492ZM691.189 193.249C684.761 185.652 681.808 177.768 680.322 163.793L678.317 164.007C679.831 178.232 682.878 186.548 689.65 194.551L691.189 193.249ZM679.32 162.892H655.62V164.908H679.32V162.892ZM0.300001 475H-0.707773V476.008H0.300001V475ZM41.4 475V476.008H42.4078V475H41.4ZM41.4 253.3H42.4078V252.292H41.4V253.3ZM0.300001 253.3V252.292H-0.707773V253.3H0.300001ZM0.300001 476.008H41.4V473.992H0.300001V476.008ZM42.4078 475V253.3H40.3922V475H42.4078ZM41.4 252.292H0.300001V254.308H41.4V252.292ZM-0.707773 253.3V475H1.30777V253.3H-0.707773ZM84.0891 475H83.0813V476.008H84.0891V475ZM125.189 475V476.008H126.197V475H125.189ZM125.189 313.9L126.063 313.397L124.181 310.128V313.9H125.189ZM217.889 475L217.016 475.503L217.306 476.008H217.889V475ZM263.789 475V476.008H264.797V475H263.789ZM263.789 253.3H264.797V252.292H263.789V253.3ZM222.689 253.3V252.292H221.681V253.3H222.689ZM222.689 414.7L221.813 415.198L223.697 418.51V414.7H222.689ZM130.889 253.3L131.765 252.802L131.475 252.292H130.889V253.3ZM84.0891 253.3V252.292H83.0813V253.3H84.0891ZM84.0891 476.008H125.189V473.992H84.0891V476.008ZM126.197 475V313.9H124.181V475H126.197ZM124.316 314.403L217.016 475.503L218.763 474.497L126.063 313.397L124.316 314.403ZM217.889 476.008H263.789V473.992H217.889V476.008ZM264.797 475V253.3H262.781V475H264.797ZM263.789 252.292H222.689V254.308H263.789V252.292ZM221.681 253.3V414.7H223.697V253.3H221.681ZM223.565 414.202L131.765 252.802L130.013 253.798L221.813 415.198L223.565 414.202ZM130.889 252.292H84.0891V254.308H130.889V252.292ZM83.0813 253.3V475H85.0968V253.3H83.0813ZM328.352 475H327.345V476.008H328.352V475ZM369.452 475V476.008H370.46V475H369.452ZM369.452 292.6V291.592H368.445V292.6H369.452ZM410.552 292.6V293.608H411.56V292.6H410.552ZM410.552 253.3H411.56V252.292H410.552V253.3ZM287.252 253.3V252.292H286.245V253.3H287.252ZM287.252 292.6H286.245V293.608H287.252V292.6ZM328.352 292.6H329.36V291.592H328.352V292.6ZM328.352 476.008H369.452V473.992H328.352V476.008ZM370.46 475V292.6H368.445V475H370.46ZM369.452 293.608H410.552V291.592H369.452V293.608ZM411.56 292.6V253.3H409.545V292.6H411.56ZM410.552 252.292H287.252V254.308H410.552V252.292ZM286.245 253.3V292.6H288.26V253.3H286.245ZM287.252 293.608H328.352V291.592H287.252V293.608ZM327.345 292.6V475H329.36V292.6H327.345ZM433.894 475H432.886V476.008H433.894V475ZM552.994 475V476.008H554.002V475H552.994ZM552.994 435.7H554.002V434.692H552.994V435.7ZM474.994 435.7H473.986V436.708H474.994V435.7ZM474.994 384.1V383.092H473.986V384.1H474.994ZM549.694 384.1V385.108H550.702V384.1H549.694ZM549.694 344.8H550.702V343.792H549.694V344.8ZM474.994 344.8H473.986V345.808H474.994V344.8ZM474.994 292.6V291.592H473.986V292.6H474.994ZM552.994 292.6V293.608H554.002V292.6H552.994ZM552.994 253.3H554.002V252.292H552.994V253.3ZM433.894 253.3V252.292H432.886V253.3H433.894ZM433.894 476.008H552.994V473.992H433.894V476.008ZM554.002 475V435.7H551.986V475H554.002ZM552.994 434.692H474.994V436.708H552.994V434.692ZM476.002 435.7V384.1H473.986V435.7H476.002ZM474.994 385.108H549.694V383.092H474.994V385.108ZM550.702 384.1V344.8H548.686V384.1H550.702ZM549.694 343.792H474.994V345.808H549.694V343.792ZM476.002 344.8V292.6H473.986V344.8H476.002ZM474.994 293.608H552.994V291.592H474.994V293.608ZM554.002 292.6V253.3H551.986V292.6H554.002ZM552.994 252.292H433.894V254.308H552.994V252.292ZM432.886 253.3V475H434.902V253.3H432.886ZM591.218 475H590.21V476.008H591.218V475ZM632.318 475V476.008H633.326V475H632.318ZM632.318 390.1L633.149 389.53L631.31 386.848V390.1H632.318ZM690.518 475L689.687 475.57L689.987 476.008H690.518V475ZM741.218 475V476.008H743.206L742.031 474.404L741.218 475ZM681.218 393.1L680.969 392.123L679.523 392.492L680.405 393.696L681.218 393.1ZM715.118 377.8L715.751 378.584L715.753 378.583L715.118 377.8ZM717.218 271L716.545 271.75L716.546 271.751L717.218 271ZM591.218 253.3V252.292H590.21V253.3H591.218ZM632.318 359.2H631.31V360.208H632.318V359.2ZM632.318 292.6V291.592H631.31V292.6H632.318ZM686.318 299.8L685.702 300.597L685.708 300.602L686.318 299.8ZM591.218 476.008H632.318V473.992H591.218V476.008ZM633.326 475V390.1H631.31V475H633.326ZM631.487 390.67L689.687 475.57L691.349 474.43L633.149 389.53L631.487 390.67ZM690.518 476.008H741.218V473.992H690.518V476.008ZM742.031 474.404L682.031 392.504L680.405 393.696L740.405 475.596L742.031 474.404ZM681.467 394.077C698.047 389.856 706.298 386.207 715.751 378.584L714.485 377.016C705.338 384.392 697.389 387.944 680.969 392.123L681.467 394.077ZM715.753 378.583C731.914 365.471 740.126 347.17 740.126 324.4H738.11C738.11 346.63 730.122 364.329 714.483 377.017L715.753 378.583ZM740.126 324.4C740.126 301.961 732.537 283.37 717.89 270.249L716.546 271.751C730.699 284.43 738.11 302.439 738.11 324.4H740.126ZM717.891 270.25C702.922 256.808 686.423 252.292 655.118 252.292V254.308C686.213 254.308 702.114 258.792 716.545 271.75L717.891 270.25ZM655.118 252.292H591.218V254.308H655.118V252.292ZM590.21 253.3V475H592.226V253.3H590.21ZM633.326 359.2V292.6H631.31V359.2H633.326ZM632.318 293.608H650.618V291.592H632.318V293.608ZM650.618 293.608C669.215 293.608 679.396 295.725 685.702 300.597L686.934 299.003C680.04 293.675 669.221 291.592 650.618 291.592V293.608ZM685.708 300.602C692.905 306.072 696.71 314.742 696.71 325.6H698.726C698.726 314.258 694.731 304.928 686.928 298.998L685.708 300.602ZM696.71 325.6C696.71 337.097 693.405 345.142 686.391 350.367C679.306 355.644 668.252 358.192 652.418 358.192V360.208C668.384 360.208 679.98 357.656 687.595 351.983C695.281 346.258 698.726 337.503 698.726 325.6H696.71ZM652.418 358.192H632.318V360.208H652.418V358.192ZM833.299 475L832.36 475.366L832.61 476.008H833.299V475ZM866.899 475V476.008H867.59L867.839 475.364L866.899 475ZM952.699 253.3L953.639 253.664L954.17 252.292H952.699V253.3ZM909.499 253.3V252.292H908.787L908.549 252.964L909.499 253.3ZM849.799 421.9L848.849 422.236L849.799 424.919L850.749 422.236L849.799 421.9ZM790.099 253.3L791.049 252.964L790.811 252.292H790.099V253.3ZM746.899 253.3V252.292H745.425L745.96 253.666L746.899 253.3ZM833.299 476.008H866.899V473.992H833.299V476.008ZM867.839 475.364L953.639 253.664L951.759 252.936L865.959 474.636L867.839 475.364ZM952.699 252.292H909.499V254.308H952.699V252.292ZM908.549 252.964L848.849 421.564L850.749 422.236L910.449 253.636L908.549 252.964ZM850.749 421.564L791.049 252.964L789.149 253.636L848.849 422.236L850.749 421.564ZM790.099 252.292H746.899V254.308H790.099V252.292ZM745.96 253.666L832.36 475.366L834.238 474.634L747.838 252.934L745.96 253.666ZM975.3 475H974.292V476.008H975.3V475ZM1016.4 475V476.008H1017.41V475H1016.4ZM1016.4 253.3H1017.41V252.292H1016.4V253.3ZM975.3 253.3V252.292H974.292V253.3H975.3ZM975.3 476.008H1016.4V473.992H975.3V476.008ZM1017.41 475V253.3H1015.39V475H1017.41ZM1016.4 252.292H975.3V254.308H1016.4V252.292ZM974.292 253.3V475H976.308V253.3H974.292ZM1059.09 475H1058.08V476.008H1059.09V475ZM1178.19 475V476.008H1179.2V475H1178.19ZM1178.19 435.7H1179.2V434.692H1178.19V435.7ZM1100.19 435.7H1099.18V436.708H1100.19V435.7ZM1100.19 384.1V383.092H1099.18V384.1H1100.19ZM1174.89 384.1V385.108H1175.9V384.1H1174.89ZM1174.89 344.8H1175.9V343.792H1174.89V344.8ZM1100.19 344.8H1099.18V345.808H1100.19V344.8ZM1100.19 292.6V291.592H1099.18V292.6H1100.19ZM1178.19 292.6V293.608H1179.2V292.6H1178.19ZM1178.19 253.3H1179.2V252.292H1178.19V253.3ZM1059.09 253.3V252.292H1058.08V253.3H1059.09ZM1059.09 476.008H1178.19V473.992H1059.09V476.008ZM1179.2 475V435.7H1177.18V475H1179.2ZM1178.19 434.692H1100.19V436.708H1178.19V434.692ZM1101.2 435.7V384.1H1099.18V435.7H1101.2ZM1100.19 385.108H1174.89V383.092H1100.19V385.108ZM1175.9 384.1V344.8H1173.88V384.1H1175.9ZM1174.89 343.792H1100.19V345.808H1174.89V343.792ZM1101.2 344.8V292.6H1099.18V344.8H1101.2ZM1100.19 293.608H1178.19V291.592H1100.19V293.608ZM1179.2 292.6V253.3H1177.18V292.6H1179.2ZM1178.19 252.292H1059.09V254.308H1178.19V252.292ZM1058.08 253.3V475H1060.1V253.3H1058.08ZM1263.81 475L1262.85 475.284L1263.06 476.008H1263.81V475ZM1296.21 475V476.008H1297L1297.19 475.244L1296.21 475ZM1332.81 328.3L1333.79 328.062L1331.84 328.056L1332.81 328.3ZM1368.51 475L1367.53 475.238L1367.72 476.008H1368.51V475ZM1401.21 475V476.008H1401.97L1402.18 475.283L1401.21 475ZM1466.01 253.3L1466.98 253.583L1467.36 252.292H1466.01V253.3ZM1424.01 253.3V252.292H1423.23L1423.04 253.052L1424.01 253.3ZM1384.71 408.1L1383.73 408.335L1385.69 408.348L1384.71 408.1ZM1347.51 253.3L1348.49 253.065L1348.31 252.292H1347.51V253.3ZM1317.51 253.3V252.292H1316.72L1316.53 253.061L1317.51 253.3ZM1279.71 408.1L1278.74 408.346L1280.69 408.339L1279.71 408.1ZM1240.71 253.3L1241.69 253.054L1241.5 252.292H1240.71V253.3ZM1198.71 253.3V252.292H1197.37L1197.75 253.584L1198.71 253.3ZM1263.81 476.008H1296.21V473.992H1263.81V476.008ZM1297.19 475.244L1333.79 328.544L1331.84 328.056L1295.24 474.756L1297.19 475.244ZM1331.83 328.538L1367.53 475.238L1369.49 474.762L1333.79 328.062L1331.83 328.538ZM1368.51 476.008H1401.21V473.992H1368.51V476.008ZM1402.18 475.283L1466.98 253.583L1465.05 253.017L1400.25 474.717L1402.18 475.283ZM1466.01 252.292H1424.01V254.308H1466.01V252.292ZM1423.04 253.052L1383.74 407.852L1385.69 408.348L1424.99 253.548L1423.04 253.052ZM1385.69 407.865L1348.49 253.065L1346.53 253.535L1383.73 408.335L1385.69 407.865ZM1347.51 252.292H1317.51V254.308H1347.51V252.292ZM1316.53 253.061L1278.73 407.861L1280.69 408.339L1318.49 253.539L1316.53 253.061ZM1280.69 407.854L1241.69 253.054L1239.74 253.546L1278.74 408.346L1280.69 407.854ZM1240.71 252.292H1198.71V254.308H1240.71V252.292ZM1197.75 253.584L1262.85 475.284L1264.78 474.716L1199.68 253.016L1197.75 253.584Z" fill="#1B3459"/>
</svg>
