<svg width="86" height="60" viewBox="0 0 86 60" fill="none" xmlns="http://www.w3.org/2000/svg">
<path d="M46.2101 59.492L65.9991 59.492L79.1918 37.5042C85.5683 26.7302 85.7882 24.0916 85.7882 19.2543C85.7882 8.70017 76.993 0.344814 65.9991 0.344813C55.0053 0.344812 46.2101 8.70017 46.2101 19.2543C46.2101 26.0705 49.9481 31.7874 57.6438 35.0855L46.2101 59.492ZM0.695406 59.492L20.4844 59.492L33.6771 37.5042C40.0536 26.7302 40.2734 24.0916 40.2734 19.2543C40.2734 8.70017 31.4783 0.34481 20.4844 0.344809C9.49053 0.344808 0.69541 8.70016 0.695409 19.2543C0.695409 26.0705 4.43334 31.7873 12.1291 35.0855L0.695406 59.492Z" fill="#DCA236"/>
</svg>
