<svg width="86" height="60" viewBox="0 0 86 60" fill="none" xmlns="http://www.w3.org/2000/svg">
<path d="M40.2871 0.00657019H20.4981L7.30538 21.9944C0.92892 32.7684 0.709042 35.4069 0.709042 40.2442C0.709042 50.7984 9.50416 59.1537 20.4981 59.1537C31.4919 59.1537 40.2871 50.7984 40.2871 40.2442C40.2871 33.428 36.5491 27.7112 28.8534 24.413L40.2871 0.00657019ZM85.8018 0.00657019H66.0128L52.8201 21.9944C46.4436 32.7684 46.2238 35.4069 46.2238 40.2442C46.2238 50.7984 55.0189 59.1537 66.0128 59.1537C77.0067 59.1537 85.8018 50.7984 85.8018 40.2442C85.8018 33.428 82.0639 27.7112 74.3681 24.413L85.8018 0.00657019Z" fill="#DCA236"/>
</svg>
