<svg width="1509" height="480" viewBox="0 0 1509 480" fill="none" xmlns="http://www.w3.org/2000/svg">
<path opacity="0.6" d="M20.2414 226.288H19.2336V227.296H20.2414V226.288ZM42.4414 226.288V227.296H43.4492V226.288H42.4414ZM42.4414 122.188V121.18H41.4336V122.188H42.4414ZM157.341 122.188H158.349V121.18H157.341V122.188ZM157.341 226.288H156.334V227.296H157.341V226.288ZM179.541 226.288V227.296H180.549V226.288H179.541ZM179.541 4.58808H180.549V3.58031H179.541V4.58808ZM157.341 4.58808V3.58031H156.334V4.58808H157.341ZM157.341 102.088V103.096H158.349V102.088H157.341ZM42.4414 102.088H41.4336V103.096H42.4414V102.088ZM42.4414 4.58808H43.4492V3.58031H42.4414V4.58808ZM20.2414 4.58808V3.58031H19.2336V4.58808H20.2414ZM20.2414 227.296H42.4414V225.28H20.2414V227.296ZM43.4492 226.288V122.188H41.4336V226.288H43.4492ZM42.4414 123.196H157.341V121.18H42.4414V123.196ZM156.334 122.188V226.288H158.349V122.188H156.334ZM157.341 227.296H179.541V225.28H157.341V227.296ZM180.549 226.288V4.58808H178.534V226.288H180.549ZM179.541 3.58031H157.341V5.59585H179.541V3.58031ZM156.334 4.58808V102.088H158.349V4.58808H156.334ZM157.341 101.08H42.4414V103.096H157.341V101.08ZM43.4492 102.088V4.58808H41.4336V102.088H43.4492ZM42.4414 3.58031H20.2414V5.59585H42.4414V3.58031ZM19.2336 4.58808V226.288H21.2492V4.58808H19.2336ZM334.227 -0.319698C267.702 -0.319698 214.419 51.0997 214.419 115.588H216.434C216.434 52.2765 268.751 1.69585 334.227 1.69585V-0.319698ZM214.419 115.588C214.419 178.867 267.992 231.196 332.727 231.196V229.18C269.061 229.18 216.434 177.71 216.434 115.588H214.419ZM332.727 231.196C397.463 231.196 450.734 179.165 450.734 115.588H448.719C448.719 178.011 396.39 229.18 332.727 229.18V231.196ZM450.734 115.588C450.734 52.3247 397.476 -0.319698 334.227 -0.319698V1.69585C396.377 1.69585 448.719 53.4514 448.719 115.588H450.734ZM331.527 22.0959C384.078 22.0959 426.219 63.9529 426.219 115.888H428.234C428.234 62.8232 385.175 20.0803 331.527 20.0803V22.0959ZM426.219 115.888C426.219 166.625 383.776 208.78 332.727 208.78V210.796C384.877 210.796 428.234 167.751 428.234 115.888H426.219ZM332.727 208.78C281.377 208.78 238.934 166.625 238.934 115.588H236.919C236.919 167.751 280.276 210.796 332.727 210.796V208.78ZM238.934 115.588C238.934 65.1342 281.393 22.0959 331.527 22.0959V20.0803C280.26 20.0803 236.919 64.0419 236.919 115.588H238.934ZM485.769 226.288H484.761V227.296H485.769V226.288ZM507.969 226.288V227.296H508.977V226.288H507.969ZM507.969 31.2881L508.803 30.7232L506.961 28.0015V31.2881H507.969ZM639.969 226.288L639.134 226.853L639.434 227.296H639.969V226.288ZM662.169 226.288V227.296H663.177V226.288H662.169ZM662.169 4.58808H663.177V3.58031H662.169V4.58808ZM639.969 4.58808V3.58031H638.961V4.58808H639.969ZM639.969 188.488L639.134 189.052L640.977 191.781V188.488H639.969ZM515.769 4.58808L516.604 4.02405L516.304 3.58031H515.769V4.58808ZM485.769 4.58808V3.58031H484.761V4.58808H485.769ZM485.769 227.296H507.969V225.28H485.769V227.296ZM508.977 226.288V31.2881H506.961V226.288H508.977ZM507.134 31.853L639.134 226.853L640.803 225.723L508.803 30.7232L507.134 31.853ZM639.969 227.296H662.169V225.28H639.969V227.296ZM663.177 226.288V4.58808H661.161V226.288H663.177ZM662.169 3.58031H639.969V5.59585H662.169V3.58031ZM638.961 4.58808V188.488H640.977V4.58808H638.961ZM640.804 187.924L516.604 4.02405L514.934 5.15211L639.134 189.052L640.804 187.924ZM515.769 3.58031H485.769V5.59585H515.769V3.58031ZM484.761 4.58808V226.288H486.777V4.58808H484.761ZM819.676 -0.319698C753.152 -0.319698 699.868 51.0997 699.868 115.588H701.884C701.884 52.2765 754.2 1.69585 819.676 1.69585V-0.319698ZM699.868 115.588C699.868 178.867 753.441 231.196 818.176 231.196V229.18C754.51 229.18 701.884 177.71 701.884 115.588H699.868ZM818.176 231.196C882.912 231.196 936.184 179.165 936.184 115.588H934.168C934.168 178.011 881.84 229.18 818.176 229.18V231.196ZM936.184 115.588C936.184 52.3247 882.926 -0.319698 819.676 -0.319698V1.69585C881.826 1.69585 934.168 53.4514 934.168 115.588H936.184ZM816.976 22.0959C869.528 22.0959 911.668 63.9529 911.668 115.888H913.684C913.684 62.8232 870.624 20.0803 816.976 20.0803V22.0959ZM911.668 115.888C911.668 166.625 869.225 208.78 818.176 208.78V210.796C870.326 210.796 913.684 167.751 913.684 115.888H911.668ZM818.176 208.78C766.826 208.78 724.384 166.625 724.384 115.588H722.368C722.368 167.751 765.725 210.796 818.176 210.796V208.78ZM724.384 115.588C724.384 65.1342 766.843 22.0959 816.976 22.0959V20.0803C765.709 20.0803 722.368 64.0419 722.368 115.588H724.384ZM1056.12 143.488L1056.01 142.486L1054.25 142.672L1055.31 144.093L1056.12 143.488ZM1089.72 15.9881L1090.22 15.1162L1090.21 15.1111L1090.21 15.1062L1089.72 15.9881ZM971.218 4.58808V3.58031H970.21V4.58808H971.218ZM971.218 226.288H970.21V227.296H971.218V226.288ZM993.418 226.288V227.296H994.426V226.288H993.418ZM993.418 24.6881V23.6803H992.41V24.6881H993.418ZM1075.62 32.7881L1076.05 31.8795L1076.05 31.8778L1075.62 32.7881ZM1066.92 121.588L1067.19 122.557L1067.2 122.554L1066.92 121.588ZM1015.92 125.788V124.78H1013.91L1015.11 126.389L1015.92 125.788ZM1090.62 226.288L1089.81 226.889L1090.11 227.296H1090.62V226.288ZM1118.22 226.288V227.296H1120.23L1119.02 225.683L1118.22 226.288ZM1056.22 144.49C1077.68 142.224 1094.28 135.107 1105.52 123.45C1116.76 111.784 1122.53 95.6866 1122.53 75.6881H1120.51C1120.51 95.2896 1114.87 110.842 1104.07 122.051C1093.25 133.27 1077.15 140.253 1056.01 142.486L1056.22 144.49ZM1122.53 75.6881C1122.53 48.3806 1111.28 27.3211 1090.22 15.1162L1089.21 16.8599C1109.56 28.6551 1120.51 48.9956 1120.51 75.6881H1122.53ZM1090.21 15.1062C1075.88 7.18136 1056.47 3.58031 1026.12 3.58031V5.59585C1056.36 5.59585 1075.36 9.19478 1089.23 16.8699L1090.21 15.1062ZM1026.12 3.58031H971.218V5.59585H1026.12V3.58031ZM970.21 4.58808V226.288H972.226V4.58808H970.21ZM971.218 227.296H993.418V225.28H971.218V227.296ZM994.426 226.288V24.6881H992.41V226.288H994.426ZM993.418 25.6958H1024.62V23.6803H993.418V25.6958ZM1024.62 25.6958C1047.97 25.6958 1063.39 28.0956 1075.19 33.6984L1076.05 31.8778C1063.85 26.0806 1048.06 23.6803 1024.62 23.6803V25.6958ZM1075.18 33.6966C1089.75 40.6914 1098.01 55.2808 1098.01 75.3881H1100.03C1100.03 54.6954 1091.48 39.2847 1076.05 31.8795L1075.18 33.6966ZM1098.01 75.3881C1098.01 87.3917 1095.34 97.1499 1090.13 104.663C1084.92 112.168 1077.1 117.525 1066.63 120.622L1067.2 122.554C1078.03 119.351 1086.27 113.758 1091.78 105.813C1097.29 97.8763 1100.03 87.6844 1100.03 75.3881H1098.01ZM1066.64 120.619C1056.29 123.577 1042.91 124.78 1015.92 124.78V126.796C1042.92 126.796 1056.55 125.599 1067.19 122.557L1066.64 120.619ZM1015.11 126.389L1089.81 226.889L1091.43 225.687L1016.73 125.187L1015.11 126.389ZM1090.62 227.296H1118.22V225.28H1090.62V227.296ZM1119.02 225.683L1056.92 142.883L1055.31 144.093L1117.41 226.893L1119.02 225.683ZM1133.94 226.288L1133.02 225.891L1132.42 227.296H1133.94V226.288ZM1157.34 226.288V227.296H1158.01L1158.27 226.689L1157.34 226.288ZM1189.74 151.588V150.58H1189.08L1188.82 151.187L1189.74 151.588ZM1292.94 151.588L1293.87 151.19L1293.61 150.58H1292.94V151.588ZM1325.04 226.288L1324.12 226.686L1324.38 227.296H1325.04V226.288ZM1349.34 226.288V227.296H1350.88L1350.27 225.89L1349.34 226.288ZM1253.94 4.58808L1254.87 4.18974L1254.61 3.58031H1253.94V4.58808ZM1229.04 4.58808V3.58031H1228.38L1228.12 4.1908L1229.04 4.58808ZM1198.14 131.488L1197.22 131.092L1196.62 132.496H1198.14V131.488ZM1241.64 29.7881L1242.57 29.3987L1241.65 27.2028L1240.72 29.3918L1241.64 29.7881ZM1284.24 131.488V132.496H1285.76L1285.17 131.099L1284.24 131.488ZM1133.94 227.296H1157.34V225.28H1133.94V227.296ZM1158.27 226.689L1190.67 151.989L1188.82 151.187L1156.42 225.887L1158.27 226.689ZM1189.74 152.596H1292.94V150.58H1189.74V152.596ZM1292.02 151.986L1324.12 226.686L1325.97 225.89L1293.87 151.19L1292.02 151.986ZM1325.04 227.296H1349.34V225.28H1325.04V227.296ZM1350.27 225.89L1254.87 4.18974L1253.02 4.98642L1348.42 226.686L1350.27 225.89ZM1253.94 3.58031H1229.04V5.59585H1253.94V3.58031ZM1228.12 4.1908L1133.02 225.891L1134.87 226.685L1229.97 4.98536L1228.12 4.1908ZM1199.07 131.884L1242.57 30.1844L1240.72 29.3918L1197.22 131.092L1199.07 131.884ZM1240.71 30.1774L1283.32 131.877L1285.17 131.099L1242.57 29.3987L1240.71 30.1774ZM1284.24 130.48H1198.14V132.496H1284.24V130.48ZM1460.41 143.488L1460.31 142.486L1458.54 142.672L1459.61 144.093L1460.41 143.488ZM1494.01 15.9881L1494.52 15.1162L1494.51 15.1111L1494.5 15.1062L1494.01 15.9881ZM1375.51 4.58808V3.58031H1374.51V4.58808H1375.51ZM1375.51 226.288H1374.51V227.296H1375.51V226.288ZM1397.71 226.288V227.296H1398.72V226.288H1397.71ZM1397.71 24.6881V23.6803H1396.71V24.6881H1397.71ZM1479.91 32.7881L1480.35 31.8795L1480.35 31.8778L1479.91 32.7881ZM1471.21 121.588L1471.49 122.557L1471.5 122.554L1471.21 121.588ZM1420.21 125.788V124.78H1418.21L1419.41 126.389L1420.21 125.788ZM1494.91 226.288L1494.11 226.889L1494.41 227.296H1494.91V226.288ZM1522.51 226.288V227.296H1524.53L1523.32 225.683L1522.51 226.288ZM1460.52 144.49C1481.98 142.224 1498.58 135.107 1509.82 123.45C1521.06 111.784 1526.82 95.6866 1526.82 75.6881H1524.81C1524.81 95.2896 1519.17 110.842 1508.36 122.051C1497.55 133.27 1481.45 140.253 1460.31 142.486L1460.52 144.49ZM1526.82 75.6881C1526.82 48.3806 1515.57 27.3211 1494.52 15.1162L1493.51 16.8599C1513.86 28.6551 1524.81 48.9956 1524.81 75.6881H1526.82ZM1494.5 15.1062C1480.18 7.18136 1460.77 3.58031 1430.41 3.58031V5.59585C1460.66 5.59585 1479.65 9.19478 1493.53 16.8699L1494.5 15.1062ZM1430.41 3.58031H1375.51V5.59585H1430.41V3.58031ZM1374.51 4.58808V226.288H1376.52V4.58808H1374.51ZM1375.51 227.296H1397.71V225.28H1375.51V227.296ZM1398.72 226.288V24.6881H1396.71V226.288H1398.72ZM1397.71 25.6958H1428.91V23.6803H1397.71V25.6958ZM1428.91 25.6958C1452.27 25.6958 1467.69 28.0956 1479.48 33.6984L1480.35 31.8778C1468.14 26.0806 1452.36 23.6803 1428.91 23.6803V25.6958ZM1479.48 33.6966C1494.05 40.6914 1502.31 55.2808 1502.31 75.3881H1504.32C1504.32 54.6954 1495.78 39.2847 1480.35 31.8795L1479.48 33.6966ZM1502.31 75.3881C1502.31 87.3917 1499.64 97.1499 1494.42 104.663C1489.21 112.168 1481.4 117.525 1470.93 120.622L1471.5 122.554C1482.33 119.351 1490.56 113.758 1496.08 105.813C1501.59 97.8763 1504.32 87.6844 1504.32 75.3881H1502.31ZM1470.94 120.619C1460.59 123.577 1447.21 124.78 1420.21 124.78V126.796C1447.22 126.796 1460.84 125.599 1471.49 122.557L1470.94 120.619ZM1419.41 126.389L1494.11 226.889L1495.72 225.687L1421.02 125.187L1419.41 126.389ZM1494.91 227.296H1522.51V225.28H1494.91V227.296ZM1523.32 225.683L1461.22 142.883L1459.61 144.093L1521.71 226.893L1523.32 225.683ZM1608.24 226.288H1607.23V227.296H1608.24V226.288ZM1630.44 226.288V227.296H1631.45V226.288H1630.44ZM1630.44 152.188L1629.55 151.72L1629.43 151.94V152.188H1630.44ZM1707.84 4.58808L1708.73 5.0561L1709.51 3.58031H1707.84V4.58808ZM1683.54 4.58808V3.58031H1682.93L1682.65 4.12362L1683.54 4.58808ZM1619.04 128.788L1618.14 129.244L1619.03 130.995L1619.93 129.253L1619.04 128.788ZM1556.04 4.58808L1556.94 4.13219L1556.66 3.58031H1556.04V4.58808ZM1531.44 4.58808V3.58031H1529.78L1530.55 5.05325L1531.44 4.58808ZM1608.24 152.188H1609.25V151.942L1609.13 151.723L1608.24 152.188ZM1608.24 227.296H1630.44V225.28H1608.24V227.296ZM1631.45 226.288V152.188H1629.43V226.288H1631.45ZM1631.33 152.656L1708.73 5.0561L1706.95 4.12006L1629.55 151.72L1631.33 152.656ZM1707.84 3.58031H1683.54V5.59585H1707.84V3.58031ZM1682.65 4.12362L1618.15 128.324L1619.93 129.253L1684.43 5.05254L1682.65 4.12362ZM1619.94 128.332L1556.94 4.13219L1555.14 5.04397L1618.14 129.244L1619.94 128.332ZM1556.04 3.58031H1531.44V5.59585H1556.04V3.58031ZM1530.55 5.05325L1607.35 152.653L1609.13 151.723L1532.33 4.12291L1530.55 5.05325ZM1607.23 152.188V226.288H1609.25V152.188H1607.23ZM0.741406 475.288L-0.184754 474.891L-0.787465 476.296H0.741406V475.288ZM24.1414 475.288V476.296H24.8028L25.066 475.689L24.1414 475.288ZM56.5414 400.588V399.58H55.88L55.6169 400.187L56.5414 400.588ZM159.741 400.588L160.667 400.19L160.405 399.58H159.741V400.588ZM191.841 475.288L190.915 475.686L191.178 476.296H191.841V475.288ZM216.141 475.288V476.296H217.672L217.067 474.89L216.141 475.288ZM120.741 253.588L121.667 253.19L121.405 252.58H120.741V253.588ZM95.8414 253.588V252.58H95.1771L94.9152 253.191L95.8414 253.588ZM64.9414 380.488L64.0148 380.092L63.4143 381.496H64.9414V380.488ZM108.441 278.788L109.371 278.399L108.451 276.203L107.515 278.392L108.441 278.788ZM151.041 380.488V381.496H152.556L151.971 380.099L151.041 380.488ZM0.741406 476.296H24.1414V474.28H0.741406V476.296ZM25.066 475.689L57.466 400.989L55.6169 400.187L23.2169 474.887L25.066 475.689ZM56.5414 401.596H159.741V399.58H56.5414V401.596ZM158.816 400.986L190.915 475.686L192.767 474.89L160.667 400.19L158.816 400.986ZM191.841 476.296H216.141V474.28H191.841V476.296ZM217.067 474.89L121.667 253.19L119.816 253.986L215.216 475.686L217.067 474.89ZM120.741 252.58H95.8414V254.596H120.741V252.58ZM94.9152 253.191L-0.184754 474.891L1.66757 475.685L96.7676 253.985L94.9152 253.191ZM65.868 380.884L109.368 279.184L107.515 278.392L64.0148 380.092L65.868 380.884ZM107.512 279.177L150.112 380.877L151.971 380.099L109.371 278.399L107.512 279.177ZM151.041 379.48H64.9414V381.496H151.041V379.48ZM271.749 475.288L270.78 475.565L270.989 476.296H271.749V475.288ZM300.549 475.288V476.296H301.323L301.523 475.548L300.549 475.288ZM349.149 293.488L350.122 293.225L349.143 289.608L348.176 293.228L349.149 293.488ZM398.349 475.288L397.376 475.551L397.578 476.296H398.349V475.288ZM426.849 475.288V476.296H427.609L427.818 475.566L426.849 475.288ZM490.449 253.588L491.418 253.866L491.787 252.58H490.449V253.588ZM467.649 253.588V252.58H466.887L466.68 253.314L467.649 253.588ZM413.049 446.488L412.078 446.756L413.036 450.236L414.019 446.763L413.049 446.488ZM359.949 253.588L360.921 253.321L360.717 252.58H359.949V253.588ZM338.949 253.588V252.58H338.181L337.978 253.321L338.949 253.588ZM285.849 446.488L284.88 446.763L285.863 450.236L286.821 446.756L285.849 446.488ZM231.249 253.588L232.219 253.314L232.011 252.58H231.249V253.588ZM208.449 253.588V252.58H207.113L207.48 253.865L208.449 253.588ZM271.749 476.296H300.549V474.28H271.749V476.296ZM301.523 475.548L350.123 293.748L348.176 293.228L299.576 475.028L301.523 475.548ZM348.176 293.751L397.376 475.551L399.322 475.025L350.122 293.225L348.176 293.751ZM398.349 476.296H426.849V474.28H398.349V476.296ZM427.818 475.566L491.418 253.866L489.481 253.31L425.881 475.01L427.818 475.566ZM490.449 252.58H467.649V254.596H490.449V252.58ZM466.68 253.314L412.08 446.214L414.019 446.763L468.619 253.863L466.68 253.314ZM414.021 446.221L360.921 253.321L358.978 253.856L412.078 446.756L414.021 446.221ZM359.949 252.58H338.949V254.596H359.949V252.58ZM337.978 253.321L284.878 446.221L286.821 446.756L339.921 253.856L337.978 253.321ZM286.819 446.214L232.219 253.314L230.28 253.863L284.88 446.763L286.819 446.214ZM231.249 252.58H208.449V254.596H231.249V252.58ZM207.48 253.865L270.78 475.565L272.718 475.011L209.418 253.311L207.48 253.865ZM482.382 475.288L481.456 474.891L480.853 476.296H482.382V475.288ZM505.782 475.288V476.296H506.443L506.707 475.689L505.782 475.288ZM538.182 400.588V399.58H537.521L537.258 400.187L538.182 400.588ZM641.382 400.588L642.308 400.19L642.046 399.58H641.382V400.588ZM673.482 475.288L672.556 475.686L672.818 476.296H673.482V475.288ZM697.782 475.288V476.296H699.313L698.708 474.89L697.782 475.288ZM602.382 253.588L603.308 253.19L603.045 252.58H602.382V253.588ZM577.482 253.588V252.58H576.818L576.556 253.191L577.482 253.588ZM546.582 380.488L545.655 380.092L545.055 381.496H546.582V380.488ZM590.082 278.788L591.012 278.399L590.092 276.203L589.155 278.392L590.082 278.788ZM632.682 380.488V381.496H634.197L633.612 380.099L632.682 380.488ZM482.382 476.296H505.782V474.28H482.382V476.296ZM506.707 475.689L539.107 400.989L537.258 400.187L504.857 474.887L506.707 475.689ZM538.182 401.596H641.382V399.58H538.182V401.596ZM640.456 400.986L672.556 475.686L674.408 474.89L642.308 400.19L640.456 400.986ZM673.482 476.296H697.782V474.28H673.482V476.296ZM698.708 474.89L603.308 253.19L601.456 253.986L696.856 475.686L698.708 474.89ZM602.382 252.58H577.482V254.596H602.382V252.58ZM576.556 253.191L481.456 474.891L483.308 475.685L578.408 253.985L576.556 253.191ZM547.509 380.884L591.009 279.184L589.155 278.392L545.655 380.092L547.509 380.884ZM589.153 279.177L631.753 380.877L633.612 380.099L591.012 278.399L589.153 279.177ZM632.682 379.48H546.582V381.496H632.682V379.48ZM808.852 392.488L808.746 391.486L806.981 391.672L808.046 393.093L808.852 392.488ZM842.452 264.988L842.958 264.116L842.949 264.111L842.94 264.106L842.452 264.988ZM723.952 253.588V252.58H722.945V253.588H723.952ZM723.952 475.288H722.945V476.296H723.952V475.288ZM746.152 475.288V476.296H747.16V475.288H746.152ZM746.152 273.688V272.68H745.145V273.688H746.152ZM828.352 281.788L828.788 280.88L828.785 280.878L828.352 281.788ZM819.652 370.588L819.929 371.557L819.938 371.554L819.652 370.588ZM768.652 374.788V373.78H766.648L767.844 375.389L768.652 374.788ZM843.352 475.288L842.544 475.889L842.846 476.296H843.352V475.288ZM870.952 475.288V476.296H872.968L871.759 474.683L870.952 475.288ZM808.958 393.49C830.417 391.224 847.017 384.107 858.253 372.45C869.498 360.784 875.26 344.687 875.26 324.688H873.245C873.245 344.29 867.607 359.842 856.802 371.051C845.988 382.27 829.888 389.253 808.746 391.486L808.958 393.49ZM875.26 324.688C875.26 297.381 864.011 276.321 842.958 264.116L841.947 265.86C862.294 277.655 873.245 297.996 873.245 324.688H875.26ZM842.94 264.106C828.614 256.181 809.207 252.58 778.852 252.58V254.596C809.098 254.596 828.09 258.195 841.965 265.87L842.94 264.106ZM778.852 252.58H723.952V254.596H778.852V252.58ZM722.945 253.588V475.288H724.96V253.588H722.945ZM723.952 476.296H746.152V474.28H723.952V476.296ZM747.16 475.288V273.688H745.145V475.288H747.16ZM746.152 274.696H777.352V272.68H746.152V274.696ZM777.352 274.696C800.706 274.696 816.125 277.096 827.92 282.698L828.785 280.878C816.58 275.081 800.799 272.68 777.352 272.68V274.696ZM827.916 282.697C842.489 289.691 850.745 304.281 850.745 324.388H852.76C852.76 303.695 844.216 288.285 828.788 280.88L827.916 282.697ZM850.745 324.388C850.745 336.392 848.078 346.15 842.862 353.663C837.652 361.168 829.836 366.525 819.367 369.622L819.938 371.554C830.768 368.351 839.002 362.758 844.518 354.813C850.027 346.876 852.76 336.684 852.76 324.388H850.745ZM819.375 369.619C809.024 372.577 795.649 373.78 768.652 373.78V375.796C795.656 375.796 809.281 374.599 819.929 371.557L819.375 369.619ZM767.844 375.389L842.544 475.889L844.161 474.687L769.461 374.187L767.844 375.389ZM843.352 476.296H870.952V474.28H843.352V476.296ZM871.759 474.683L809.659 391.883L808.046 393.093L870.146 475.893L871.759 474.683ZM906.179 475.288H905.171V476.296H906.179V475.288ZM1039.98 459.988L1040.46 460.872L1040.47 460.87L1039.98 459.988ZM1045.38 272.488L1044.84 273.337L1044.84 273.341L1045.38 272.488ZM906.179 253.588V252.58H905.171V253.588H906.179ZM928.379 455.188H927.371V456.196H928.379V455.188ZM928.379 273.688V272.68H927.371V273.688H928.379ZM1028.58 286.888L1028.08 287.762L1028.09 287.767L1028.58 286.888ZM1040.88 433.888L1041.53 434.656L1041.54 434.652L1040.88 433.888ZM906.179 476.296H965.879V474.28H906.179V476.296ZM965.879 476.296C998.079 476.296 1021.06 471.481 1040.46 460.872L1039.5 459.104C1020.49 469.495 997.879 474.28 965.879 474.28V476.296ZM1040.47 460.87C1075.62 441.477 1094.39 407.821 1094.39 365.188H1092.37C1092.37 407.155 1073.94 440.099 1039.49 459.106L1040.47 460.87ZM1094.39 365.188C1094.39 324.085 1077.74 291.641 1045.92 271.635L1044.84 273.341C1076.01 292.935 1092.37 324.691 1092.37 365.188H1094.39ZM1045.92 271.639C1024.09 257.688 999.859 252.58 958.379 252.58V254.596C999.699 254.596 1023.47 259.688 1044.84 273.337L1045.92 271.639ZM958.379 252.58H906.179V254.596H958.379V252.58ZM905.171 253.588V475.288H907.187V253.588H905.171ZM929.387 455.188V273.688H927.371V455.188H929.387ZM928.379 274.696H959.279V272.68H928.379V274.696ZM959.279 274.696C991.618 274.696 1012.11 278.593 1028.08 287.762L1029.08 286.014C1012.65 276.583 991.74 272.68 959.279 272.68V274.696ZM1028.09 287.767C1054.43 302.567 1069.87 330.706 1069.87 364.288H1071.89C1071.89 330.07 1056.13 301.21 1029.07 286.009L1028.09 287.767ZM1069.87 364.288C1069.87 392.229 1059.17 416.837 1040.22 433.124L1041.54 434.652C1060.98 417.939 1071.89 392.747 1071.89 364.288H1069.87ZM1040.23 433.12C1022.5 448.187 999.697 454.18 959.279 454.18V456.196C999.861 456.196 1023.26 450.189 1041.53 434.656L1040.23 433.12ZM959.279 454.18H928.379V456.196H959.279V454.18ZM1321.82 248.68C1255.3 248.68 1202.02 300.1 1202.02 364.588H1204.03C1204.03 301.276 1256.35 250.696 1321.82 250.696V248.68ZM1202.02 364.588C1202.02 427.867 1255.59 480.196 1320.32 480.196V478.18C1256.66 478.18 1204.03 426.71 1204.03 364.588H1202.02ZM1320.32 480.196C1385.06 480.196 1438.33 428.165 1438.33 364.588H1436.32C1436.32 427.011 1383.99 478.18 1320.32 478.18V480.196ZM1438.33 364.588C1438.33 301.325 1385.07 248.68 1321.82 248.68V250.696C1383.97 250.696 1436.32 302.451 1436.32 364.588H1438.33ZM1319.12 271.096C1371.68 271.096 1413.82 312.953 1413.82 364.888H1415.83C1415.83 311.823 1372.77 269.08 1319.12 269.08V271.096ZM1413.82 364.888C1413.82 415.625 1371.37 457.78 1320.32 457.78V459.796C1372.47 459.796 1415.83 416.751 1415.83 364.888H1413.82ZM1320.32 457.78C1268.97 457.78 1226.53 415.625 1226.53 364.588H1224.52C1224.52 416.751 1267.87 459.796 1320.32 459.796V457.78ZM1226.53 364.588C1226.53 314.134 1268.99 271.096 1319.12 271.096V269.08C1267.86 269.08 1224.52 313.042 1224.52 364.588H1226.53ZM1473.37 475.288H1472.36V476.296H1473.37V475.288ZM1495.57 475.288V476.296H1496.57V475.288H1495.57ZM1495.57 373.888V372.88H1494.56V373.888H1495.57ZM1582.57 373.888V374.896H1583.57V373.888H1582.57ZM1582.57 353.788H1583.57V352.78H1582.57V353.788ZM1495.57 353.788H1494.56V354.796H1495.57V353.788ZM1495.57 273.688V272.68H1494.56V273.688H1495.57ZM1585.87 273.688V274.696H1586.87V273.688H1585.87ZM1585.87 253.588H1586.87V252.58H1585.87V253.588ZM1473.37 253.588V252.58H1472.36V253.588H1473.37ZM1473.37 476.296H1495.57V474.28H1473.37V476.296ZM1496.57 475.288V373.888H1494.56V475.288H1496.57ZM1495.57 374.896H1582.57V372.88H1495.57V374.896ZM1583.57 373.888V353.788H1581.56V373.888H1583.57ZM1582.57 352.78H1495.57V354.796H1582.57V352.78ZM1496.57 353.788V273.688H1494.56V353.788H1496.57ZM1495.57 274.696H1585.87V272.68H1495.57V274.696ZM1586.87 273.688V253.588H1584.86V273.688H1586.87ZM1585.87 252.58H1473.37V254.596H1585.87V252.58ZM1472.36 253.588V475.288H1474.37V253.588H1472.36ZM1787.07 392.488L1786.97 391.486L1785.2 391.672L1786.27 393.093L1787.07 392.488ZM1820.68 264.988L1821.18 264.116L1821.17 264.111L1821.16 264.106L1820.68 264.988ZM1702.18 253.588V252.58H1701.17V253.588H1702.18ZM1702.18 475.288H1701.17V476.296H1702.18V475.288ZM1724.38 475.288V476.296H1725.38V475.288H1724.38ZM1724.38 273.688V272.68H1723.37V273.688H1724.38ZM1806.57 281.788L1807.01 280.88L1807.01 280.878L1806.57 281.788ZM1797.88 370.588L1798.15 371.557L1798.16 371.554L1797.88 370.588ZM1746.88 374.788V373.78H1744.87L1746.07 375.389L1746.88 374.788ZM1821.57 475.288L1820.77 475.889L1821.07 476.296H1821.57V475.288ZM1849.18 475.288V476.296H1851.19L1849.98 474.683L1849.18 475.288ZM1787.18 393.49C1808.64 391.224 1825.24 384.107 1836.48 372.45C1847.72 360.784 1853.48 344.687 1853.48 324.688H1851.47C1851.47 344.29 1845.83 359.842 1835.02 371.051C1824.21 382.27 1808.11 389.253 1786.97 391.486L1787.18 393.49ZM1853.48 324.688C1853.48 297.381 1842.23 276.321 1821.18 264.116L1820.17 265.86C1840.52 277.655 1851.47 297.996 1851.47 324.688H1853.48ZM1821.16 264.106C1806.84 256.181 1787.43 252.58 1757.07 252.58V254.596C1787.32 254.596 1806.31 258.195 1820.19 265.87L1821.16 264.106ZM1757.07 252.58H1702.18V254.596H1757.07V252.58ZM1701.17 253.588V475.288H1703.18V253.588H1701.17ZM1702.18 476.296H1724.38V474.28H1702.18V476.296ZM1725.38 475.288V273.688H1723.37V475.288H1725.38ZM1724.38 274.696H1755.57V272.68H1724.38V274.696ZM1755.57 274.696C1778.93 274.696 1794.35 277.096 1806.14 282.698L1807.01 280.878C1794.8 275.081 1779.02 272.68 1755.57 272.68V274.696ZM1806.14 282.697C1820.71 289.691 1828.97 304.281 1828.97 324.388H1830.98C1830.98 303.695 1822.44 288.285 1807.01 280.88L1806.14 282.697ZM1828.97 324.388C1828.97 336.392 1826.3 346.15 1821.08 353.663C1815.87 361.168 1808.06 366.525 1797.59 369.622L1798.16 371.554C1808.99 368.351 1817.23 362.758 1822.74 354.813C1828.25 346.876 1830.98 336.684 1830.98 324.388H1828.97ZM1797.6 369.619C1787.25 372.577 1773.87 373.78 1746.88 373.78V375.796C1773.88 375.796 1787.5 374.599 1798.15 371.557L1797.6 369.619ZM1746.07 375.389L1820.77 475.889L1822.38 474.687L1747.68 374.187L1746.07 375.389ZM1821.57 476.296H1849.18V474.28H1821.57V476.296ZM1849.98 474.683L1787.88 391.883L1786.27 393.093L1848.37 475.893L1849.98 474.683ZM1884.4 475.288H1883.39V476.296H1884.4V475.288ZM2005.6 475.288V476.296H2006.61V475.288H2005.6ZM2005.6 455.188H2006.61V454.18H2005.6V455.188ZM1906.6 455.188H1905.59V456.196H1906.6V455.188ZM1906.6 373.288V372.28H1905.59V373.288H1906.6ZM2002.3 373.288V374.296H2003.31V373.288H2002.3ZM2002.3 353.188H2003.31V352.18H2002.3V353.188ZM1906.6 353.188H1905.59V354.196H1906.6V353.188ZM1906.6 273.688V272.68H1905.59V273.688H1906.6ZM2005.6 273.688V274.696H2006.61V273.688H2005.6ZM2005.6 253.588H2006.61V252.58H2005.6V253.588ZM1884.4 253.588V252.58H1883.39V253.588H1884.4ZM1884.4 476.296H2005.6V474.28H1884.4V476.296ZM2006.61 475.288V455.188H2004.59V475.288H2006.61ZM2005.6 454.18H1906.6V456.196H2005.6V454.18ZM1907.61 455.188V373.288H1905.59V455.188H1907.61ZM1906.6 374.296H2002.3V372.28H1906.6V374.296ZM2003.31 373.288V353.188H2001.29V373.288H2003.31ZM2002.3 352.18H1906.6V354.196H2002.3V352.18ZM1907.61 353.188V273.688H1905.59V353.188H1907.61ZM1906.6 274.696H2005.6V272.68H1906.6V274.696ZM2006.61 273.688V253.588H2004.59V273.688H2006.61ZM2005.6 252.58H1884.4V254.596H2005.6V252.58ZM1883.39 253.588V475.288H1885.41V253.588H1883.39ZM2228.84 417.088V416.08H2228.34L2228.04 416.477L2228.84 417.088ZM2207.84 439.588L2208.47 440.374L2208.48 440.365L2207.84 439.588ZM2202.14 284.188L2201.6 285.04L2201.61 285.041L2202.14 284.188ZM2227.64 311.188L2226.79 311.726L2227.09 312.196H2227.64V311.188ZM2252.54 311.188V312.196H2254.1L2253.46 310.775L2252.54 311.188ZM2253.44 417.088L2254.33 417.567L2255.13 416.08H2253.44V417.088ZM2228.04 416.477C2219.38 427.825 2214.03 433.167 2207.2 438.811L2208.48 440.365C2215.45 434.609 2220.9 429.151 2229.64 417.699L2228.04 416.477ZM2207.21 438.803C2192.1 450.951 2172.22 457.78 2151.74 457.78V459.796C2172.66 459.796 2192.98 452.825 2208.47 440.374L2207.21 438.803ZM2151.74 457.78C2100.71 457.78 2059.15 415.94 2059.15 364.288H2057.13C2057.13 417.036 2099.58 459.796 2151.74 459.796V457.78ZM2059.15 364.288C2059.15 311.434 2098.91 271.096 2151.44 271.096V269.08C2097.77 269.08 2057.13 310.342 2057.13 364.288H2059.15ZM2151.44 271.096C2170.17 271.096 2187.08 275.849 2201.6 285.04L2202.68 283.336C2187.81 273.927 2170.52 269.08 2151.44 269.08V271.096ZM2201.61 285.041C2211.95 291.542 2218.15 298.018 2226.79 311.726L2228.49 310.651C2219.74 296.758 2213.34 290.035 2202.68 283.335L2201.61 285.041ZM2227.64 312.196H2252.54V310.18H2227.64V312.196ZM2253.46 310.775C2236.18 272.267 2196.79 248.68 2150.54 248.68V250.696C2196.1 250.696 2234.71 273.909 2251.62 311.601L2253.46 310.775ZM2150.54 248.68C2083.98 248.68 2034.63 298.337 2034.63 365.188H2036.65C2036.65 299.439 2085.1 250.696 2150.54 250.696V248.68ZM2034.63 365.188C2034.63 430.564 2085.2 480.196 2152.04 480.196V478.18C2086.28 478.18 2036.65 429.413 2036.65 365.188H2034.63ZM2152.04 480.196C2197.43 480.196 2231.96 458.976 2254.33 417.567L2252.55 416.609C2230.52 457.4 2196.65 478.18 2152.04 478.18V480.196ZM2253.44 416.08H2228.84V418.096H2253.44V416.08ZM2393.5 248.68C2326.98 248.68 2273.7 300.1 2273.7 364.588H2275.71C2275.71 301.276 2328.03 250.696 2393.5 250.696V248.68ZM2273.7 364.588C2273.7 427.867 2327.27 480.196 2392 480.196V478.18C2328.34 478.18 2275.71 426.71 2275.71 364.588H2273.7ZM2392 480.196C2456.74 480.196 2510.01 428.165 2510.01 364.588H2508C2508 427.011 2455.67 478.18 2392 478.18V480.196ZM2510.01 364.588C2510.01 301.325 2456.75 248.68 2393.5 248.68V250.696C2455.65 250.696 2508 302.451 2508 364.588H2510.01ZM2390.8 271.096C2443.36 271.096 2485.5 312.953 2485.5 364.888H2487.51C2487.51 311.823 2444.45 269.08 2390.8 269.08V271.096ZM2485.5 364.888C2485.5 415.625 2443.05 457.78 2392 457.78V459.796C2444.15 459.796 2487.51 416.751 2487.51 364.888H2485.5ZM2392 457.78C2340.65 457.78 2298.21 415.625 2298.21 364.588H2296.2C2296.2 416.751 2339.55 459.796 2392 459.796V457.78ZM2298.21 364.588C2298.21 314.134 2340.67 271.096 2390.8 271.096V269.08C2339.54 269.08 2296.2 313.042 2296.2 364.588H2298.21ZM2620.95 372.988V371.98H2619.94V372.988H2620.95ZM2620.95 393.088H2619.94V394.096H2620.95V393.088ZM2744.85 393.088L2745.83 393.322L2746.12 392.08H2744.85V393.088ZM2722.65 431.188L2723.37 431.889L2723.38 431.883L2722.65 431.188ZM2733.15 312.688L2732.27 313.185L2732.56 313.696H2733.15V312.688ZM2758.05 312.688V313.696H2759.52L2758.99 312.323L2758.05 312.688ZM2740.65 443.488L2739.91 442.803L2739.9 442.81L2740.65 443.488ZM2771.55 372.988L2772.55 373.047L2772.61 371.98H2771.55V372.988ZM2619.94 372.988V393.088H2621.95V372.988H2619.94ZM2620.95 394.096H2744.85V392.08H2620.95V394.096ZM2743.87 392.854C2740.62 406.441 2733.83 417.989 2721.92 430.493L2723.38 431.883C2735.47 419.187 2742.48 407.335 2745.83 393.322L2743.87 392.854ZM2721.92 430.488C2704.73 448.277 2681.29 457.78 2655.15 457.78V459.796C2681.8 459.796 2705.77 450.099 2723.37 431.889L2721.92 430.488ZM2655.15 457.78C2601.37 457.78 2558.95 416.801 2558.95 364.588H2556.94C2556.94 417.975 2600.32 459.796 2655.15 459.796V457.78ZM2558.95 364.588C2558.95 311.767 2600.48 271.096 2654.85 271.096V269.08C2599.41 269.08 2556.94 310.609 2556.94 364.588H2558.95ZM2654.85 271.096C2688.73 271.096 2717.17 286.54 2732.27 313.185L2734.02 312.191C2718.52 284.836 2689.36 269.08 2654.85 269.08V271.096ZM2733.15 313.696H2758.05V311.68H2733.15V313.696ZM2758.99 312.323C2744.1 274.049 2701.66 248.68 2653.05 248.68V250.696C2701.03 250.696 2742.59 275.727 2757.11 313.053L2758.99 312.323ZM2653.05 248.68C2586.52 248.68 2534.44 299.204 2534.44 363.988H2536.45C2536.45 300.372 2587.58 250.696 2653.05 250.696V248.68ZM2534.44 363.988C2534.44 429.688 2587.43 480.196 2656.05 480.196V478.18C2588.46 478.18 2536.45 428.488 2536.45 363.988H2534.44ZM2656.05 480.196C2690.5 480.196 2719.88 467.794 2741.39 444.166L2739.9 442.81C2718.81 465.982 2689.99 478.18 2656.05 478.18V480.196ZM2741.39 444.173C2760.44 423.611 2771.04 399.093 2772.55 373.047L2770.54 372.93C2769.05 398.483 2758.66 422.565 2739.91 442.803L2741.39 444.173ZM2771.55 371.98H2620.95V373.996H2771.55V371.98ZM2806.67 475.288H2805.66V476.296H2806.67V475.288ZM2828.87 475.288V476.296H2829.88V475.288H2828.87ZM2828.87 280.288L2829.7 279.723L2827.86 277.002V280.288H2828.87ZM2960.87 475.288L2960.03 475.853L2960.33 476.296H2960.87V475.288ZM2983.07 475.288V476.296H2984.07V475.288H2983.07ZM2983.07 253.588H2984.07V252.58H2983.07V253.588ZM2960.87 253.588V252.58H2959.86V253.588H2960.87ZM2960.87 437.488L2960.03 438.052L2961.88 440.781V437.488H2960.87ZM2836.67 253.588L2837.5 253.024L2837.2 252.58H2836.67V253.588ZM2806.67 253.588V252.58H2805.66V253.588H2806.67ZM2806.67 476.296H2828.87V474.28H2806.67V476.296ZM2829.88 475.288V280.288H2827.86V475.288H2829.88ZM2828.03 280.853L2960.03 475.853L2961.7 474.723L2829.7 279.723L2828.03 280.853ZM2960.87 476.296H2983.07V474.28H2960.87V476.296ZM2984.07 475.288V253.588H2982.06V475.288H2984.07ZM2983.07 252.58H2960.87V254.596H2983.07V252.58ZM2959.86 253.588V437.488H2961.88V253.588H2959.86ZM2961.7 436.924L2837.5 253.024L2835.83 254.152L2960.03 438.052L2961.7 436.924ZM2836.67 252.58H2806.67V254.596H2836.67V252.58ZM2805.66 253.588V475.288H2807.68V253.588H2805.66ZM3028.74 475.288H3027.73V476.296H3028.74V475.288ZM3050.94 475.288V476.296H3051.95V475.288H3050.94ZM3050.94 253.588H3051.95V252.58H3050.94V253.588ZM3028.74 253.588V252.58H3027.73V253.588H3028.74ZM3028.74 476.296H3050.94V474.28H3028.74V476.296ZM3051.95 475.288V253.588H3049.93V475.288H3051.95ZM3050.94 252.58H3028.74V254.596H3050.94V252.58ZM3027.73 253.588V475.288H3029.75V253.588H3027.73ZM3126.41 475.288H3125.41V476.296H3126.41V475.288ZM3148.61 475.288V476.296H3149.62V475.288H3148.61ZM3148.61 273.688V272.68H3147.61V273.688H3148.61ZM3199.31 273.688V274.696H3200.32V273.688H3199.31ZM3199.31 253.588H3200.32V252.58H3199.31V253.588ZM3075.71 253.588V252.58H3074.71V253.588H3075.71ZM3075.71 273.688H3074.71V274.696H3075.71V273.688ZM3126.41 273.688H3127.42V272.68H3126.41V273.688ZM3126.41 476.296H3148.61V474.28H3126.41V476.296ZM3149.62 475.288V273.688H3147.61V475.288H3149.62ZM3148.61 274.696H3199.31V272.68H3148.61V274.696ZM3200.32 273.688V253.588H3198.31V273.688H3200.32ZM3199.31 252.58H3075.71V254.596H3199.31V252.58ZM3074.71 253.588V273.688H3076.72V253.588H3074.71ZM3075.71 274.696H3126.41V272.68H3075.71V274.696ZM3125.41 273.688V475.288H3127.42V273.688H3125.41ZM3224.15 475.288H3223.14V476.296H3224.15V475.288ZM3246.35 475.288V476.296H3247.36V475.288H3246.35ZM3246.35 253.588H3247.36V252.58H3246.35V253.588ZM3224.15 253.588V252.58H3223.14V253.588H3224.15ZM3224.15 476.296H3246.35V474.28H3224.15V476.296ZM3247.36 475.288V253.588H3245.34V475.288H3247.36ZM3246.35 252.58H3224.15V254.596H3246.35V252.58ZM3223.14 253.588V475.288H3225.16V253.588H3223.14ZM3401.02 248.68C3334.5 248.68 3281.22 300.1 3281.22 364.588H3283.23C3283.23 301.276 3335.55 250.696 3401.02 250.696V248.68ZM3281.22 364.588C3281.22 427.867 3334.79 480.196 3399.52 480.196V478.18C3335.86 478.18 3283.23 426.71 3283.23 364.588H3281.22ZM3399.52 480.196C3464.26 480.196 3517.53 428.165 3517.53 364.588H3515.52C3515.52 427.011 3463.19 478.18 3399.52 478.18V480.196ZM3517.53 364.588C3517.53 301.325 3464.27 248.68 3401.02 248.68V250.696C3463.17 250.696 3515.52 302.451 3515.52 364.588H3517.53ZM3398.32 271.096C3450.88 271.096 3493.02 312.953 3493.02 364.888H3495.03C3495.03 311.823 3451.97 269.08 3398.32 269.08V271.096ZM3493.02 364.888C3493.02 415.625 3450.57 457.78 3399.52 457.78V459.796C3451.67 459.796 3495.03 416.751 3495.03 364.888H3493.02ZM3399.52 457.78C3348.17 457.78 3305.73 415.625 3305.73 364.588H3303.72C3303.72 416.751 3347.07 459.796 3399.52 459.796V457.78ZM3305.73 364.588C3305.73 314.134 3348.19 271.096 3398.32 271.096V269.08C3347.06 269.08 3303.72 313.042 3303.72 364.588H3305.73ZM3552.57 475.288H3551.56V476.296H3552.57V475.288ZM3574.77 475.288V476.296H3575.77V475.288H3574.77ZM3574.77 280.288L3575.6 279.723L3573.76 277.002V280.288H3574.77ZM3706.77 475.288L3705.93 475.853L3706.23 476.296H3706.77V475.288ZM3728.97 475.288V476.296H3729.97V475.288H3728.97ZM3728.97 253.588H3729.97V252.58H3728.97V253.588ZM3706.77 253.588V252.58H3705.76V253.588H3706.77ZM3706.77 437.488L3705.93 438.052L3707.77 440.781V437.488H3706.77ZM3582.57 253.588L3583.4 253.024L3583.1 252.58H3582.57V253.588ZM3552.57 253.588V252.58H3551.56V253.588H3552.57ZM3552.57 476.296H3574.77V474.28H3552.57V476.296ZM3575.77 475.288V280.288H3573.76V475.288H3575.77ZM3573.93 280.853L3705.93 475.853L3707.6 474.723L3575.6 279.723L3573.93 280.853ZM3706.77 476.296H3728.97V474.28H3706.77V476.296ZM3729.97 475.288V253.588H3727.96V475.288H3729.97ZM3728.97 252.58H3706.77V254.596H3728.97V252.58ZM3705.76 253.588V437.488H3707.77V253.588H3705.76ZM3707.6 436.924L3583.4 253.024L3581.73 254.152L3705.93 438.052L3707.6 436.924ZM3582.57 252.58H3552.57V254.596H3582.57V252.58ZM3551.56 253.588V475.288H3553.57V253.588H3551.56Z" fill="#1B3459"/>
</svg>
