<svg width="870" height="471" viewBox="0 0 870 471" fill="none" xmlns="http://www.w3.org/2000/svg">
<path opacity="0.6" d="M51.3969 222H50.3892V223.008H51.3969V222ZM73.5969 222V223.008H74.6047V222H73.5969ZM73.5969 20.4V19.3922H72.5891V20.4H73.5969ZM124.297 20.4V21.4078H125.305V20.4H124.297ZM124.297 0.299994H125.305V-0.707781H124.297V0.299994ZM0.696924 0.299994V-0.707781H-0.31085V0.299994H0.696924ZM0.696924 20.4H-0.31085V21.4078H0.696924V20.4ZM51.3969 20.4H52.4047V19.3922H51.3969V20.4ZM51.3969 223.008H73.5969V220.992H51.3969V223.008ZM74.6047 222V20.4H72.5891V222H74.6047ZM73.5969 21.4078H124.297V19.3922H73.5969V21.4078ZM125.305 20.4V0.299994H123.289V20.4H125.305ZM124.297 -0.707781H0.696924V1.30777H124.297V-0.707781ZM-0.31085 0.299994V20.4H1.7047V0.299994H-0.31085ZM0.696924 21.4078H51.3969V19.3922H0.696924V21.4078ZM50.3892 20.4V222H52.4047V20.4H50.3892ZM149.131 222H148.124V223.008H149.131V222ZM171.331 222V223.008H172.339V222H171.331ZM171.331 117.9V116.892H170.324V117.9H171.331ZM286.231 117.9H287.239V116.892H286.231V117.9ZM286.231 222H285.224V223.008H286.231V222ZM308.431 222V223.008H309.439V222H308.431ZM308.431 0.299994H309.439V-0.707781H308.431V0.299994ZM286.231 0.299994V-0.707781H285.224V0.299994H286.231ZM286.231 97.8V98.8078H287.239V97.8H286.231ZM171.331 97.8H170.324V98.8078H171.331V97.8ZM171.331 0.299994H172.339V-0.707781H171.331V0.299994ZM149.131 0.299994V-0.707781H148.124V0.299994H149.131ZM149.131 223.008H171.331V220.992H149.131V223.008ZM172.339 222V117.9H170.324V222H172.339ZM171.331 118.908H286.231V116.892H171.331V118.908ZM285.224 117.9V222H287.239V117.9H285.224ZM286.231 223.008H308.431V220.992H286.231V223.008ZM309.439 222V0.299994H307.424V222H309.439ZM308.431 -0.707781H286.231V1.30777H308.431V-0.707781ZM285.224 0.299994V97.8H287.239V0.299994H285.224ZM286.231 96.7922H171.331V98.8078H286.231V96.7922ZM172.339 97.8V0.299994H170.324V97.8H172.339ZM171.331 -0.707781H149.131V1.30777H171.331V-0.707781ZM148.124 0.299994V222H150.139V0.299994H148.124ZM353.916 222H352.909V223.008H353.916V222ZM475.116 222V223.008H476.124V222H475.116ZM475.116 201.9H476.124V200.892H475.116V201.9ZM376.116 201.9H375.109V202.908H376.116V201.9ZM376.116 120V118.992H375.109V120H376.116ZM471.816 120V121.008H472.824V120H471.816ZM471.816 99.9H472.824V98.8922H471.816V99.9ZM376.116 99.9H375.109V100.908H376.116V99.9ZM376.116 20.4V19.3922H375.109V20.4H376.116ZM475.116 20.4V21.4078H476.124V20.4H475.116ZM475.116 0.299994H476.124V-0.707781H475.116V0.299994ZM353.916 0.299994V-0.707781H352.909V0.299994H353.916ZM353.916 223.008H475.116V220.992H353.916V223.008ZM476.124 222V201.9H474.109V222H476.124ZM475.116 200.892H376.116V202.908H475.116V200.892ZM377.124 201.9V120H375.109V201.9H377.124ZM376.116 121.008H471.816V118.992H376.116V121.008ZM472.824 120V99.9H470.809V120H472.824ZM471.816 98.8922H376.116V100.908H471.816V98.8922ZM377.124 99.9V20.4H375.109V99.9H377.124ZM376.116 21.4078H475.116V19.3922H376.116V21.4078ZM476.124 20.4V0.299994H474.109V20.4H476.124ZM475.116 -0.707781H353.916V1.30777H475.116V-0.707781ZM352.909 0.299994V222H354.924V0.299994H352.909ZM19.8969 471H18.8892V472.008H19.8969V471ZM138.997 471V472.008H140.005V471H138.997ZM138.997 431.7H140.005V430.692H138.997V431.7ZM60.9969 431.7H59.9892V432.708H60.9969V431.7ZM60.9969 380.1V379.092H59.9892V380.1H60.9969ZM135.697 380.1V381.108H136.705V380.1H135.697ZM135.697 340.8H136.705V339.792H135.697V340.8ZM60.9969 340.8H59.9892V341.808H60.9969V340.8ZM60.9969 288.6V287.592H59.9892V288.6H60.9969ZM138.997 288.6V289.608H140.005V288.6H138.997ZM138.997 249.3H140.005V248.292H138.997V249.3ZM19.8969 249.3V248.292H18.8892V249.3H19.8969ZM19.8969 472.008H138.997V469.992H19.8969V472.008ZM140.005 471V431.7H137.989V471H140.005ZM138.997 430.692H60.9969V432.708H138.997V430.692ZM62.0047 431.7V380.1H59.9892V431.7H62.0047ZM60.9969 381.108H135.697V379.092H60.9969V381.108ZM136.705 380.1V340.8H134.689V380.1H136.705ZM135.697 339.792H60.9969V341.808H135.697V339.792ZM62.0047 340.8V288.6H59.9892V340.8H62.0047ZM60.9969 289.608H138.997V287.592H60.9969V289.608ZM140.005 288.6V249.3H137.989V288.6H140.005ZM138.997 248.292H19.8969V250.308H138.997V248.292ZM18.8892 249.3V471H20.9047V249.3H18.8892ZM243.521 471L242.582 471.366L242.832 472.008H243.521V471ZM277.121 471V472.008H277.812L278.061 471.364L277.121 471ZM362.921 249.3L363.861 249.664L364.392 248.292H362.921V249.3ZM319.721 249.3V248.292H319.009L318.771 248.964L319.721 249.3ZM260.021 417.9L259.071 418.236L260.021 420.919L260.971 418.236L260.021 417.9ZM200.321 249.3L201.271 248.964L201.033 248.292H200.321V249.3ZM157.121 249.3V248.292H155.647L156.182 249.666L157.121 249.3ZM243.521 472.008H277.121V469.992H243.521V472.008ZM278.061 471.364L363.861 249.664L361.981 248.936L276.181 470.636L278.061 471.364ZM362.921 248.292H319.721V250.308H362.921V248.292ZM318.771 248.964L259.071 417.564L260.971 418.236L320.671 249.636L318.771 248.964ZM260.971 417.564L201.271 248.964L199.371 249.636L259.071 418.236L260.971 417.564ZM200.321 248.292H157.121V250.308H200.321V248.292ZM156.182 249.666L242.582 471.366L244.46 470.634L158.06 248.934L156.182 249.666ZM385.522 471H384.514V472.008H385.522V471ZM504.622 471V472.008H505.63V471H504.622ZM504.622 431.7H505.63V430.692H504.622V431.7ZM426.622 431.7H425.614V432.708H426.622V431.7ZM426.622 380.1V379.092H425.614V380.1H426.622ZM501.322 380.1V381.108H502.33V380.1H501.322ZM501.322 340.8H502.33V339.792H501.322V340.8ZM426.622 340.8H425.614V341.808H426.622V340.8ZM426.622 288.6V287.592H425.614V288.6H426.622ZM504.622 288.6V289.608H505.63V288.6H504.622ZM504.622 249.3H505.63V248.292H504.622V249.3ZM385.522 249.3V248.292H384.514V249.3H385.522ZM385.522 472.008H504.622V469.992H385.522V472.008ZM505.63 471V431.7H503.614V471H505.63ZM504.622 430.692H426.622V432.708H504.622V430.692ZM427.63 431.7V380.1H425.614V431.7H427.63ZM426.622 381.108H501.322V379.092H426.622V381.108ZM502.33 380.1V340.8H500.314V380.1H502.33ZM501.322 339.792H426.622V341.808H501.322V339.792ZM427.63 340.8V288.6H425.614V340.8H427.63ZM426.622 289.608H504.622V287.592H426.622V289.608ZM505.63 288.6V249.3H503.614V288.6H505.63ZM504.622 248.292H385.522V250.308H504.622V248.292ZM384.514 249.3V471H386.53V249.3H384.514ZM542.846 471H541.838V472.008H542.846V471ZM583.946 471V472.008H584.954V471H583.946ZM583.946 309.9L584.82 309.397L582.938 306.128V309.9H583.946ZM676.646 471L675.773 471.503L676.063 472.008H676.646V471ZM722.546 471V472.008H723.554V471H722.546ZM722.546 249.3H723.554V248.292H722.546V249.3ZM681.446 249.3V248.292H680.438V249.3H681.446ZM681.446 410.7L680.57 411.198L682.454 414.51V410.7H681.446ZM589.646 249.3L590.522 248.802L590.232 248.292H589.646V249.3ZM542.846 249.3V248.292H541.838V249.3H542.846ZM542.846 472.008H583.946V469.992H542.846V472.008ZM584.954 471V309.9H582.938V471H584.954ZM583.073 310.403L675.773 471.503L677.52 470.497L584.82 309.397L583.073 310.403ZM676.646 472.008H722.546V469.992H676.646V472.008ZM723.554 471V249.3H721.538V471H723.554ZM722.546 248.292H681.446V250.308H722.546V248.292ZM680.438 249.3V410.7H682.454V249.3H680.438ZM682.322 410.202L590.522 248.802L588.77 249.798L680.57 411.198L682.322 410.202ZM589.646 248.292H542.846V250.308H589.646V248.292ZM541.838 249.3V471H543.854V249.3H541.838ZM787.109 471H786.102V472.008H787.109V471ZM828.209 471V472.008H829.217V471H828.209ZM828.209 288.6V287.592H827.202V288.6H828.209ZM869.309 288.6V289.608H870.317V288.6H869.309ZM869.309 249.3H870.317V248.292H869.309V249.3ZM746.009 249.3V248.292H745.002V249.3H746.009ZM746.009 288.6H745.002V289.608H746.009V288.6ZM787.109 288.6H788.117V287.592H787.109V288.6ZM787.109 472.008H828.209V469.992H787.109V472.008ZM829.217 471V288.6H827.202V471H829.217ZM828.209 289.608H869.309V287.592H828.209V289.608ZM870.317 288.6V249.3H868.302V288.6H870.317ZM869.309 248.292H746.009V250.308H869.309V248.292ZM745.002 249.3V288.6H747.017V249.3H745.002ZM746.009 289.608H787.109V287.592H746.009V289.608ZM786.102 288.6V471H788.117V288.6H786.102Z" fill="#DCA236"/>
</svg>
