<svg width="1132" height="471" viewBox="0 0 1132 471" fill="none" xmlns="http://www.w3.org/2000/svg">
<path opacity="0.6" d="M50.8 222H49.7922V223.008H50.8V222ZM73 222V223.008H74.0078V222H73ZM73 20.4V19.3922H71.9922V20.4H73ZM123.7 20.4V21.4078H124.708V20.4H123.7ZM123.7 0.299994H124.708V-0.707781H123.7V0.299994ZM0.1 0.299994V-0.707781H-0.907774V0.299994H0.1ZM0.1 20.4H-0.907774V21.4078H0.1V20.4ZM50.8 20.4H51.8078V19.3922H50.8V20.4ZM50.8 223.008H73V220.992H50.8V223.008ZM74.0078 222V20.4H71.9922V222H74.0078ZM73 21.4078H123.7V19.3922H73V21.4078ZM124.708 20.4V0.299994H122.692V20.4H124.708ZM123.7 -0.707781H0.1V1.30777H123.7V-0.707781ZM-0.907774 0.299994V20.4H1.10777V0.299994H-0.907774ZM0.1 21.4078H50.8V19.3922H0.1V21.4078ZM49.7922 20.4V222H51.8078V20.4H49.7922ZM148.534 222H147.527V223.008H148.534V222ZM170.734 222V223.008H171.742V222H170.734ZM170.734 117.9V116.892H169.727V117.9H170.734ZM285.634 117.9H286.642V116.892H285.634V117.9ZM285.634 222H284.627V223.008H285.634V222ZM307.834 222V223.008H308.842V222H307.834ZM307.834 0.299994H308.842V-0.707781H307.834V0.299994ZM285.634 0.299994V-0.707781H284.627V0.299994H285.634ZM285.634 97.8V98.8078H286.642V97.8H285.634ZM170.734 97.8H169.727V98.8078H170.734V97.8ZM170.734 0.299994H171.742V-0.707781H170.734V0.299994ZM148.534 0.299994V-0.707781H147.527V0.299994H148.534ZM148.534 223.008H170.734V220.992H148.534V223.008ZM171.742 222V117.9H169.727V222H171.742ZM170.734 118.908H285.634V116.892H170.734V118.908ZM284.627 117.9V222H286.642V117.9H284.627ZM285.634 223.008H307.834V220.992H285.634V223.008ZM308.842 222V0.299994H306.827V222H308.842ZM307.834 -0.707781H285.634V1.30777H307.834V-0.707781ZM284.627 0.299994V97.8H286.642V0.299994H284.627ZM285.634 96.7922H170.734V98.8078H285.634V96.7922ZM171.742 97.8V0.299994H169.727V97.8H171.742ZM170.734 -0.707781H148.534V1.30777H170.734V-0.707781ZM147.527 0.299994V222H149.542V0.299994H147.527ZM353.32 222H352.312V223.008H353.32V222ZM474.52 222V223.008H475.527V222H474.52ZM474.52 201.9H475.527V200.892H474.52V201.9ZM375.52 201.9H374.512V202.908H375.52V201.9ZM375.52 120V118.992H374.512V120H375.52ZM471.22 120V121.008H472.227V120H471.22ZM471.22 99.9H472.227V98.8922H471.22V99.9ZM375.52 99.9H374.512V100.908H375.52V99.9ZM375.52 20.4V19.3922H374.512V20.4H375.52ZM474.52 20.4V21.4078H475.527V20.4H474.52ZM474.52 0.299994H475.527V-0.707781H474.52V0.299994ZM353.32 0.299994V-0.707781H352.312V0.299994H353.32ZM353.32 223.008H474.52V220.992H353.32V223.008ZM475.527 222V201.9H473.512V222H475.527ZM474.52 200.892H375.52V202.908H474.52V200.892ZM376.527 201.9V120H374.512V201.9H376.527ZM375.52 121.008H471.22V118.992H375.52V121.008ZM472.227 120V99.9H470.212V120H472.227ZM471.22 98.8922H375.52V100.908H471.22V98.8922ZM376.527 99.9V20.4H374.512V99.9H376.527ZM375.52 21.4078H474.52V19.3922H375.52V21.4078ZM475.527 20.4V0.299994H473.512V20.4H475.527ZM474.52 -0.707781H353.32V1.30777H474.52V-0.707781ZM352.312 0.299994V222H354.327V0.299994H352.312ZM64.3 471L63.331 471.277L63.5397 472.008H64.3V471ZM93.1 471V472.008H93.8738L94.0736 471.26L93.1 471ZM141.7 289.2L142.673 288.937L141.694 285.32L140.726 288.94L141.7 289.2ZM190.9 471L189.927 471.263L190.129 472.008H190.9V471ZM219.4 471V472.008H220.159L220.369 471.278L219.4 471ZM283 249.3L283.969 249.578L284.338 248.292H283V249.3ZM260.2 249.3V248.292H259.438L259.23 249.026L260.2 249.3ZM205.6 442.2L204.628 442.467L205.586 445.948L206.57 442.474L205.6 442.2ZM152.5 249.3L153.472 249.033L153.268 248.292H152.5V249.3ZM131.5 249.3V248.292H130.732L130.528 249.033L131.5 249.3ZM78.4 442.2L77.4303 442.474L78.4135 445.948L79.3716 442.467L78.4 442.2ZM23.8 249.3L24.7697 249.026L24.5621 248.292H23.8V249.3ZM1 249.3V248.292H-0.335787L0.0309522 249.577L1 249.3ZM64.3 472.008H93.1V469.992H64.3V472.008ZM94.0736 471.26L142.674 289.46L140.726 288.94L92.1264 470.74L94.0736 471.26ZM140.727 289.463L189.927 471.263L191.873 470.737L142.673 288.937L140.727 289.463ZM190.9 472.008H219.4V469.992H190.9V472.008ZM220.369 471.278L283.969 249.578L282.031 249.022L218.431 470.722L220.369 471.278ZM283 248.292H260.2V250.308H283V248.292ZM259.23 249.026L204.63 441.926L206.57 442.474L261.17 249.574L259.23 249.026ZM206.572 441.933L153.472 249.033L151.528 249.567L204.628 442.467L206.572 441.933ZM152.5 248.292H131.5V250.308H152.5V248.292ZM130.528 249.033L77.4284 441.933L79.3716 442.467L132.472 249.567L130.528 249.033ZM79.3697 441.926L24.7697 249.026L22.8303 249.574L77.4303 442.474L79.3697 441.926ZM23.8 248.292H1V250.308H23.8V248.292ZM0.0309522 249.577L63.331 471.277L65.2691 470.723L1.96905 249.023L0.0309522 249.577ZM308.788 471H307.781V472.008H308.788V471ZM330.988 471V472.008H331.996V471H330.988ZM330.988 249.3H331.996V248.292H330.988V249.3ZM308.788 249.3V248.292H307.781V249.3H308.788ZM308.788 472.008H330.988V469.992H308.788V472.008ZM331.996 471V249.3H329.98V471H331.996ZM330.988 248.292H308.788V250.308H330.988V248.292ZM307.781 249.3V471H309.796V249.3H307.781ZM376.464 471H375.456V472.008H376.464V471ZM398.664 471V472.008H399.672V471H398.664ZM398.664 276L399.499 275.435L397.656 272.713V276H398.664ZM530.664 471L529.83 471.565L530.129 472.008H530.664V471ZM552.864 471V472.008H553.872V471H552.864ZM552.864 249.3H553.872V248.292H552.864V249.3ZM530.664 249.3V248.292H529.656V249.3H530.664ZM530.664 433.2L529.829 433.764L531.672 436.493V433.2H530.664ZM406.464 249.3L407.299 248.736L407 248.292H406.464V249.3ZM376.464 249.3V248.292H375.456V249.3H376.464ZM376.464 472.008H398.664V469.992H376.464V472.008ZM399.672 471V276H397.656V471H399.672ZM397.83 276.565L529.83 471.565L531.499 470.435L399.499 275.435L397.83 276.565ZM530.664 472.008H552.864V469.992H530.664V472.008ZM553.872 471V249.3H551.856V471H553.872ZM552.864 248.292H530.664V250.308H552.864V248.292ZM529.656 249.3V433.2H531.672V249.3H529.656ZM531.499 432.636L407.299 248.736L405.629 249.864L529.829 433.764L531.499 432.636ZM406.464 248.292H376.464V250.308H406.464V248.292ZM375.456 249.3V471H377.472V249.3H375.456ZM598.534 471H597.527V472.008H598.534V471ZM620.734 471V472.008H621.742V471H620.734ZM620.734 276L621.569 275.435L619.727 272.713V276H620.734ZM752.734 471L751.9 471.565L752.2 472.008H752.734V471ZM774.934 471V472.008H775.942V471H774.934ZM774.934 249.3H775.942V248.292H774.934V249.3ZM752.734 249.3V248.292H751.727V249.3H752.734ZM752.734 433.2L751.899 433.764L753.742 436.493V433.2H752.734ZM628.534 249.3L629.37 248.736L629.07 248.292H628.534V249.3ZM598.534 249.3V248.292H597.527V249.3H598.534ZM598.534 472.008H620.734V469.992H598.534V472.008ZM621.742 471V276H619.727V471H621.742ZM619.9 276.565L751.9 471.565L753.569 470.435L621.569 275.435L619.9 276.565ZM752.734 472.008H774.934V469.992H752.734V472.008ZM775.942 471V249.3H773.927V471H775.942ZM774.934 248.292H752.734V250.308H774.934V248.292ZM751.727 249.3V433.2H753.742V249.3H751.727ZM753.57 432.636L629.37 248.736L627.699 249.864L751.899 433.764L753.57 432.636ZM628.534 248.292H598.534V250.308H628.534V248.292ZM597.527 249.3V471H599.542V249.3H597.527ZM820.605 471H819.597V472.008H820.605V471ZM941.805 471V472.008H942.812V471H941.805ZM941.805 450.9H942.812V449.892H941.805V450.9ZM842.805 450.9H841.797V451.908H842.805V450.9ZM842.805 369V367.992H841.797V369H842.805ZM938.505 369V370.008H939.512V369H938.505ZM938.505 348.9H939.512V347.892H938.505V348.9ZM842.805 348.9H841.797V349.908H842.805V348.9ZM842.805 269.4V268.392H841.797V269.4H842.805ZM941.805 269.4V270.408H942.812V269.4H941.805ZM941.805 249.3H942.812V248.292H941.805V249.3ZM820.605 249.3V248.292H819.597V249.3H820.605ZM820.605 472.008H941.805V469.992H820.605V472.008ZM942.812 471V450.9H940.797V471H942.812ZM941.805 449.892H842.805V451.908H941.805V449.892ZM843.812 450.9V369H841.797V450.9H843.812ZM842.805 370.008H938.505V367.992H842.805V370.008ZM939.512 369V348.9H937.497V369H939.512ZM938.505 347.892H842.805V349.908H938.505V347.892ZM843.812 348.9V269.4H841.797V348.9H843.812ZM842.805 270.408H941.805V268.392H842.805V270.408ZM942.812 269.4V249.3H940.797V269.4H942.812ZM941.805 248.292H820.605V250.308H941.805V248.292ZM819.597 249.3V471H821.612V249.3H819.597ZM1066.34 388.2L1066.24 387.198L1064.47 387.384L1065.54 388.805L1066.34 388.2ZM1099.94 260.7L1100.45 259.828L1100.44 259.823L1100.43 259.818L1099.94 260.7ZM981.445 249.3V248.292H980.437V249.3H981.445ZM981.445 471H980.437V472.008H981.445V471ZM1003.64 471V472.008H1004.65V471H1003.64ZM1003.64 269.4V268.392H1002.64V269.4H1003.64ZM1085.84 277.5L1086.28 276.591L1086.28 276.59L1085.84 277.5ZM1077.14 366.3L1077.42 367.269L1077.43 367.266L1077.14 366.3ZM1026.14 370.5V369.492H1024.14L1025.34 371.101L1026.14 370.5ZM1100.84 471L1100.04 471.601L1100.34 472.008H1100.84V471ZM1128.44 471V472.008H1130.46L1129.25 470.395L1128.44 471ZM1066.45 389.202C1087.91 386.935 1104.51 379.819 1115.75 368.162C1126.99 356.496 1132.75 340.398 1132.75 320.4H1130.74C1130.74 340.001 1125.1 355.554 1114.29 366.763C1103.48 377.981 1087.38 384.965 1066.24 387.198L1066.45 389.202ZM1132.75 320.4C1132.75 293.092 1121.5 272.033 1100.45 259.828L1099.44 261.572C1119.79 273.367 1130.74 293.707 1130.74 320.4H1132.75ZM1100.43 259.818C1086.11 251.893 1066.7 248.292 1036.34 248.292V250.308C1066.59 250.308 1085.58 253.907 1099.46 261.582L1100.43 259.818ZM1036.34 248.292H981.445V250.308H1036.34V248.292ZM980.437 249.3V471H982.452V249.3H980.437ZM981.445 472.008H1003.64V469.992H981.445V472.008ZM1004.65 471V269.4H1002.64V471H1004.65ZM1003.64 270.408H1034.84V268.392H1003.64V270.408ZM1034.84 270.408C1058.2 270.408 1073.62 272.807 1085.41 278.41L1086.28 276.59C1074.07 270.793 1058.29 268.392 1034.84 268.392V270.408ZM1085.41 278.409C1099.98 285.403 1108.24 299.993 1108.24 320.1H1110.25C1110.25 299.407 1101.71 283.997 1086.28 276.591L1085.41 278.409ZM1108.24 320.1C1108.24 332.104 1105.57 341.862 1100.35 349.375C1095.14 356.88 1087.33 362.237 1076.86 365.334L1077.43 367.266C1088.26 364.063 1096.49 358.47 1102.01 350.525C1107.52 342.588 1110.25 332.396 1110.25 320.1H1108.24ZM1076.87 365.331C1066.52 368.289 1053.14 369.492 1026.14 369.492V371.508C1053.15 371.508 1066.77 370.311 1077.42 367.269L1076.87 365.331ZM1025.34 371.101L1100.04 471.601L1101.65 470.399L1026.95 369.899L1025.34 371.101ZM1100.84 472.008H1128.44V469.992H1100.84V472.008ZM1129.25 470.395L1067.15 387.595L1065.54 388.805L1127.64 471.605L1129.25 470.395Z" fill="#DCA236"/>
</svg>
