<svg width="777" height="473" viewBox="0 0 777 473" fill="none" xmlns="http://www.w3.org/2000/svg">
<path opacity="0.6" d="M51.3969 222H50.3892V223.008H51.3969V222ZM73.5969 222V223.008H74.6047V222H73.5969ZM73.5969 20.4V19.3922H72.5891V20.4H73.5969ZM124.297 20.4V21.4078H125.305V20.4H124.297ZM124.297 0.299994H125.305V-0.707781H124.297V0.299994ZM0.696924 0.299994V-0.707781H-0.31085V0.299994H0.696924ZM0.696924 20.4H-0.31085V21.4078H0.696924V20.4ZM51.3969 20.4H52.4047V19.3922H51.3969V20.4ZM51.3969 223.008H73.5969V220.992H51.3969V223.008ZM74.6047 222V20.4H72.5891V222H74.6047ZM73.5969 21.4078H124.297V19.3922H73.5969V21.4078ZM125.305 20.4V0.299994H123.289V20.4H125.305ZM124.297 -0.707781H0.696924V1.30777H124.297V-0.707781ZM-0.31085 0.299994V20.4H1.7047V0.299994H-0.31085ZM0.696924 21.4078H51.3969V19.3922H0.696924V21.4078ZM50.3892 20.4V222H52.4047V20.4H50.3892ZM149.131 222H148.124V223.008H149.131V222ZM171.331 222V223.008H172.339V222H171.331ZM171.331 117.9V116.892H170.324V117.9H171.331ZM286.231 117.9H287.239V116.892H286.231V117.9ZM286.231 222H285.224V223.008H286.231V222ZM308.431 222V223.008H309.439V222H308.431ZM308.431 0.299994H309.439V-0.707781H308.431V0.299994ZM286.231 0.299994V-0.707781H285.224V0.299994H286.231ZM286.231 97.8V98.8078H287.239V97.8H286.231ZM171.331 97.8H170.324V98.8078H171.331V97.8ZM171.331 0.299994H172.339V-0.707781H171.331V0.299994ZM149.131 0.299994V-0.707781H148.124V0.299994H149.131ZM149.131 223.008H171.331V220.992H149.131V223.008ZM172.339 222V117.9H170.324V222H172.339ZM171.331 118.908H286.231V116.892H171.331V118.908ZM285.224 117.9V222H287.239V117.9H285.224ZM286.231 223.008H308.431V220.992H286.231V223.008ZM309.439 222V0.299994H307.424V222H309.439ZM308.431 -0.707781H286.231V1.30777H308.431V-0.707781ZM285.224 0.299994V97.8H287.239V0.299994H285.224ZM286.231 96.7922H171.331V98.8078H286.231V96.7922ZM172.339 97.8V0.299994H170.324V97.8H172.339ZM171.331 -0.707781H149.131V1.30777H171.331V-0.707781ZM148.124 0.299994V222H150.139V0.299994H148.124ZM353.916 222H352.909V223.008H353.916V222ZM475.116 222V223.008H476.124V222H475.116ZM475.116 201.9H476.124V200.892H475.116V201.9ZM376.116 201.9H375.109V202.908H376.116V201.9ZM376.116 120V118.992H375.109V120H376.116ZM471.816 120V121.008H472.824V120H471.816ZM471.816 99.9H472.824V98.8922H471.816V99.9ZM376.116 99.9H375.109V100.908H376.116V99.9ZM376.116 20.4V19.3922H375.109V20.4H376.116ZM475.116 20.4V21.4078H476.124V20.4H475.116ZM475.116 0.299994H476.124V-0.707781H475.116V0.299994ZM353.916 0.299994V-0.707781H352.909V0.299994H353.916ZM353.916 223.008H475.116V220.992H353.916V223.008ZM476.124 222V201.9H474.109V222H476.124ZM475.116 200.892H376.116V202.908H475.116V200.892ZM377.124 201.9V120H375.109V201.9H377.124ZM376.116 121.008H471.816V118.992H376.116V121.008ZM472.824 120V99.9H470.809V120H472.824ZM471.816 98.8922H376.116V100.908H471.816V98.8922ZM377.124 99.9V20.4H375.109V99.9H377.124ZM376.116 21.4078H475.116V19.3922H376.116V21.4078ZM476.124 20.4V0.299994H474.109V20.4H476.124ZM475.116 -0.707781H353.916V1.30777H475.116V-0.707781ZM352.909 0.299994V222H354.924V0.299994H352.909ZM19.8969 469H18.8892V470.008H19.8969V469ZM60.9969 469V470.008H62.0047V469H60.9969ZM60.9969 247.3H62.0047V246.292H60.9969V247.3ZM19.8969 247.3V246.292H18.8892V247.3H19.8969ZM19.8969 470.008H60.9969V467.992H19.8969V470.008ZM62.0047 469V247.3H59.9892V469H62.0047ZM60.9969 246.292H19.8969V248.308H60.9969V246.292ZM18.8892 247.3V469H20.9047V247.3H18.8892ZM263.886 407.2V406.192H263.459L263.162 406.499L263.886 407.2ZM152.886 307.3L153.649 307.959L153.654 307.952L152.886 307.3ZM266.286 310.9L265.487 311.514L265.79 311.908H266.286V310.9ZM312.186 310.9V311.908H313.747L313.104 310.485L312.186 310.9ZM282.486 270.4L283.139 269.633L283.134 269.629L282.486 270.4ZM312.186 407.2L313.112 407.598L313.716 406.192H312.186V407.2ZM263.162 406.499C254.062 415.897 245.758 422.334 237.129 426.427C228.511 430.515 219.513 432.292 208.986 432.292V434.308C219.759 434.308 229.061 432.485 237.993 428.248C246.914 424.016 255.41 417.403 264.61 407.901L263.162 406.499ZM208.986 432.292C168.461 432.292 135.594 398.562 135.594 357.7H133.578C133.578 399.638 167.311 434.308 208.986 434.308V432.292ZM135.594 357.7C135.594 339.929 142.415 320.966 153.649 307.959L152.123 306.641C140.557 320.034 133.578 339.471 133.578 357.7H135.594ZM153.654 307.952C166.946 292.298 185.555 284.008 208.086 284.008V281.992C185.017 281.992 165.826 290.502 152.118 306.648L153.654 307.952ZM208.086 284.008C220.875 284.008 231.518 286.089 240.8 290.546C250.079 295.001 258.062 301.862 265.487 311.514L267.085 310.286C259.51 300.438 251.293 293.349 241.672 288.729C232.054 284.111 221.097 281.992 208.086 281.992V284.008ZM266.286 311.908H312.186V309.892H266.286V311.908ZM313.104 310.485C304.651 291.766 297.366 281.74 283.139 269.633L281.833 271.167C295.806 283.06 302.921 292.834 311.268 311.315L313.104 310.485ZM283.134 269.629C262.247 252.071 235.316 242.392 207.186 242.392V244.408C234.856 244.408 261.325 253.929 281.838 271.171L283.134 269.629ZM207.186 242.392C143.929 242.392 92.1782 294.143 92.1782 357.4H94.1938C94.1938 295.257 145.043 244.408 207.186 244.408V242.392ZM92.1782 357.4C92.1782 422.167 144.54 473.908 209.886 473.908V471.892C145.632 471.892 94.1938 421.033 94.1938 357.4H92.1782ZM209.886 473.908C255.87 473.908 295.545 448.485 313.112 407.598L311.26 406.802C294.026 446.915 255.102 471.892 209.886 471.892V473.908ZM312.186 406.192H263.886V408.208H312.186V406.192ZM451.013 242.392C384.176 242.392 332.706 292.925 332.706 358.3H334.721C334.721 294.075 385.251 244.408 451.013 244.408V242.392ZM332.706 358.3C332.706 423.075 384.776 473.908 450.413 473.908V471.892C385.851 471.892 334.721 421.925 334.721 358.3H332.706ZM450.413 473.908C515.475 473.908 565.721 423.351 565.721 358H563.706C563.706 422.249 514.352 471.892 450.413 471.892V473.908ZM565.721 358C565.721 294.152 514.579 242.392 451.013 242.392V244.408C513.448 244.408 563.706 295.248 563.706 358H565.721ZM448.313 284.008C490.949 284.008 522.306 315.649 522.306 358.6H524.321C524.321 314.551 492.078 281.992 448.313 281.992V284.008ZM522.306 358.6C522.306 400.962 491.538 432.292 450.113 432.292V434.308C492.689 434.308 524.321 402.038 524.321 358.6H522.306ZM450.113 432.292C408.673 432.292 376.121 399.746 376.121 358H374.106C374.106 400.854 407.554 434.308 450.113 434.308V432.292ZM376.121 358C376.121 316.835 408.391 284.008 448.313 284.008V281.992C407.236 281.992 374.106 315.765 374.106 358H376.121ZM596.752 469H595.745V470.008H596.752V469ZM637.852 469V470.008H638.86V469H637.852ZM637.852 307.9L638.726 307.397L636.845 304.128V307.9H637.852ZM730.552 469L729.679 469.503L729.97 470.008H730.552V469ZM776.452 469V470.008H777.46V469H776.452ZM776.452 247.3H777.46V246.292H776.452V247.3ZM735.352 247.3V246.292H734.345V247.3H735.352ZM735.352 408.7L734.476 409.198L736.36 412.51V408.7H735.352ZM643.552 247.3L644.428 246.802L644.139 246.292H643.552V247.3ZM596.752 247.3V246.292H595.745V247.3H596.752ZM596.752 470.008H637.852V467.992H596.752V470.008ZM638.86 469V307.9H636.845V469H638.86ZM636.979 308.403L729.679 469.503L731.426 468.497L638.726 307.397L636.979 308.403ZM730.552 470.008H776.452V467.992H730.552V470.008ZM777.46 469V247.3H775.445V469H777.46ZM776.452 246.292H735.352V248.308H776.452V246.292ZM734.345 247.3V408.7H736.36V247.3H734.345ZM736.228 408.202L644.428 246.802L642.676 247.798L734.476 409.198L736.228 408.202ZM643.552 246.292H596.752V248.308H643.552V246.292ZM595.745 247.3V469H597.76V247.3H595.745Z" fill="#DCA236"/>
</svg>
