<svg width="26" height="26" viewBox="0 0 26 26" fill="none" xmlns="http://www.w3.org/2000/svg">
<g clip-path="url(#clip0_220_4789)">
<path d="M23.6453 6.66755C22.8463 7.02098 21.999 7.2531 21.1314 7.35621C22.0458 6.80929 22.7303 5.94854 23.0571 4.93436C22.1989 5.44511 21.258 5.80305 20.2773 5.99667C19.6186 5.29186 18.7455 4.82443 17.7937 4.66704C16.8419 4.50966 15.8648 4.67113 15.0142 5.12637C14.1637 5.5816 13.4874 6.30509 13.0904 7.18435C12.6934 8.06362 12.5981 9.04939 12.8192 9.98843C11.0788 9.9012 9.37622 9.44893 7.82196 8.66098C6.2677 7.87303 4.89652 6.76702 3.79745 5.41476C3.40842 6.08296 3.20398 6.84257 3.20507 7.61577C3.20507 9.13335 3.97747 10.4741 5.15176 11.259C4.45682 11.2371 3.77718 11.0495 3.16949 10.7116V10.7661C3.1697 11.7768 3.51944 12.7563 4.15942 13.5386C4.7994 14.3209 5.69022 14.8577 6.68086 15.0582C6.03574 15.233 5.35931 15.2588 4.70277 15.1336C4.98207 16.0035 5.52646 16.7644 6.25969 17.3096C6.99293 17.8548 7.87831 18.157 8.79186 18.1739C7.88391 18.887 6.84431 19.4142 5.7325 19.7252C4.6207 20.0362 3.45849 20.1251 2.31232 19.9867C4.31311 21.2734 6.64223 21.9565 9.02107 21.9543C17.0726 21.9543 21.4757 15.2843 21.4757 9.49967C21.4757 9.31128 21.4705 9.12079 21.4621 8.9345C22.3191 8.31508 23.0588 7.54776 23.6464 6.66859L23.6453 6.66755Z" fill="#1B3459"/>
</g>
<defs>
<clipPath id="clip0_220_4789">
<rect width="25.1186" height="25.1186" fill="white" transform="translate(0.450073 0.749023)"/>
</clipPath>
</defs>
</svg>
